<?xml  version="1.0" encoding="UTF-8"?>
<!DOCTYPE svg PUBLIC "-//W3C//DTD SVG 1.0//EN" "http://www.w3.org/TR/2001/REC-SVG-20010904/DTD/svg10.dtd" >
<svg xmlns="http://www.w3.org/2000/svg" >
<metadata>
<version>1.0</version>
<id><![CDATA[Conduit ITC W01 Black]]></id>
<vendor>Monotype Imaging Inc.</vendor>
<credits>
<name>Fonts.com WebFonts</name>
<URL>http://webfonts.fonts.com</URL>
<role>Home of the Web fonts</role>
</credits>
<license>
<URL>http://webfonts.fonts.com/Legal</URL>
</license>
<copyright><![CDATA[Copyright 1997, 2007 International Typeface Corporation. All rights reserved.]]></copyright>
<trademark><![CDATA["ITC is a trademark of International Typeface Corporation Registered in the U.S. Patent and Trademark Office and may be registered in certain jurisdictions;Conduit is a trademark of International Typeface Corporation and may be registered in certain jurisdictions."]]></trademark>
<licensee>
<name></name>
</licensee>
</metadata>
<defs >
<font horiz-adv-x="492" id="9372a370-abb4-4516-836c-d7ca85e7f06a">
<font-face font-family="" panose-1="2 0 9 6 4 0 0 2 0 4" ascent="896" descent="-250" units-per-em="1000" alphabetic="0">
</font-face>
<missing-glyph horiz-adv-x="0" />

<glyph unicode="&#xA;" />
<glyph unicode="&#xD;" horiz-adv-x="0" />
<glyph unicode=" " horiz-adv-x="178" />
<glyph unicode="!" horiz-adv-x="281" d="M88 189Q81 189 79 197L57 354V621Q57 631 67 631H214Q217 631 220 629T223 621V353L202 197Q200 189 193 189H88ZM231 78Q231 61 224 46T203 20T174 1T141 -6Q123 -6 107 1T78 19T58 46T50 78Q50 113 77 137T141 161Q158 161 174 154T203 136T223 109T231 78Z"  />
<glyph unicode="&quot;" horiz-adv-x="368" d="M221 400Q211 400 211 409L195 614Q195 626 205 626H336Q345 626 345 614L316 409Q314 400 305 400H221ZM64 400Q55 400 54 409L23 614Q23 626 33 626H164Q173 626 173 614L159 409Q159 400 148 400H64Z"  />
<glyph unicode="#" horiz-adv-x="597" d="M52 0Q43 0 43 7Q43 9 44 14T48 25L87 148Q87 154 86 156T80 159H15Q5 159 5 166Q5 168 7 175T11 186L34 267Q37 276 45 276H115Q127 276 131 288L148 342Q149 344 149 348Q149 355 141 355H77Q67 355 67 362Q67 364 69 373T74 386L95 463Q98 472 106 472H177Q189 472 192 482L237 624Q239 631 247 631H351Q358 631 358 622L323 511Q321 505 317 493T313 478Q313 472 321 472H377Q387 472 390 481L435 624Q437 631 444 631H547Q555 631 555 624Q555 622 553 616T550 607L516 498Q514 494 512 487T510 478Q510 472 519 472H587Q595 472 595 463L567 364Q564 355 554 355H483Q470 355 467 344L454 302Q453 300 451 293T448 283Q448 276 456 276H526Q534 276 534 267L505 168Q502 159 492 159H421Q409 159 406 149L361 7Q359 0 352 0H250Q242 0 242 7Q242 9 243 15T247 25L286 148Q287 150 287 153Q287 159 279 159H222Q212 159 208 149L163 7Q161 0 154 0H52ZM314 276Q326 276 330 289L344 332Q345 334 346 339T348 347Q348 355 339 355H286Q272 355 269 343L256 300Q255 298 253 292T251 284Q251 276 261 276H314Z"  />
<glyph unicode="$" horiz-adv-x="546" d="M237 -53Q228 -53 228 -43V-23Q228 -13 217 -12Q136 -5 83 42Q56 64 36 99Q33 104 32 109T38 120L142 189Q147 193 153 193T162 186Q182 147 215 137Q228 133 228 147V238Q228 251 218 252Q182 259 147 272T85 307T40 364T22 446Q22 534 73 584T217 643Q228 645 228 653V673Q228 683 237 683H310Q318 683 318 673V654Q318 644 329 643Q410 636 464 588Q492 563 510 532Q513 527 514 522T508 511L404 442Q399 438 393 438T384 445Q362 486 330 494Q318 497 318 485V395Q318 384 328 383Q362 376 397 363T459 326T504 268T522 184Q522 96 473 45T329 -12Q318 -13 318 -23V-43Q318 -53 310 -53H237ZM228 483Q228 497 217 494Q185 483 185 446Q185 423 217 409Q228 404 228 416V483ZM318 146Q318 134 329 138Q343 143 351 155T359 184Q359 209 329 223Q318 228 318 216V146Z"  />
<glyph unicode="%" horiz-adv-x="649" d="M380 191Q380 239 413 269T498 300Q554 300 587 272T620 196V104Q620 56 587 28T498 0Q444 0 412 28T380 104V191ZM133 0Q128 0 126 3T126 11L419 625Q422 631 429 631H516Q528 631 523 621L229 8Q225 0 215 0H133ZM29 522Q29 570 62 600T147 631Q203 631 236 603T269 527V435Q269 387 236 359T147 331Q93 331 61 359T29 435V522ZM526 196Q526 205 519 211T500 217Q489 217 482 211T474 196V104Q474 95 481 89T500 83Q511 83 518 89T526 104V196ZM175 527Q175 536 168 542T149 548Q138 548 131 542T123 527V435Q123 426 130 420T149 414Q160 414 167 420T175 435V527Z"  />
<glyph unicode="&amp;" horiz-adv-x="664" d="M650 -9Q650 -20 638 -20Q568 -20 523 -3T443 42Q432 51 424 43Q395 16 359 -2T271 -20Q160 -20 99 33T38 185Q38 224 49 253T79 305Q86 313 79 323Q60 346 49 376T38 448Q38 490 55 526T101 588T168 629T251 644Q354 644 409 591T465 448Q465 400 442 369T383 315Q373 308 382 302L401 287Q409 281 415 288Q431 309 449 328T491 362T543 386T608 395H638Q650 395 650 382V249Q650 236 639 236H608Q587 236 570 224T537 191Q530 183 539 177Q561 165 584 158T636 150Q650 150 650 134V-9ZM307 451Q307 470 294 483T259 496Q237 496 223 483T209 449Q209 433 215 420T237 392Q245 384 258 389Q284 400 295 414T307 451ZM311 158Q321 165 311 173Q294 187 276 199T237 221Q229 225 226 224T219 218Q209 203 209 187Q209 141 258 141Q288 141 311 158Z"  />
<glyph unicode="&apos;" horiz-adv-x="211" d="M64 400Q55 400 54 409L23 614Q23 626 33 626H179Q188 626 188 614L159 409Q157 400 148 400H64Z"  />
<glyph unicode="(" horiz-adv-x="397" d="M352 -145Q352 -159 335 -159Q273 -159 228 -143T154 -100T110 -37T96 40V520Q96 561 110 597T153 660T228 703T335 719Q352 719 352 705V581Q352 567 336 567Q299 567 280 550T261 504V56Q261 28 280 11T336 -7Q352 -7 352 -21V-145Z"  />
<glyph unicode=")" horiz-adv-x="397" d="M45 -21Q45 -7 61 -7Q98 -7 117 10T136 56V504Q136 532 117 549T61 567Q45 567 45 581V705Q45 719 62 719Q124 719 169 703T243 660T287 597T301 520V40Q301 -1 287 -37T244 -100T169 -143T62 -159Q45 -159 45 -145V-21Z"  />
<glyph unicode="*" horiz-adv-x="424" d="M148 309Q139 309 139 316Q139 317 139 317T140 319L158 394Q158 396 158 396T159 399Q159 407 152 407Q148 407 144 403L81 348Q78 345 74 345Q70 345 67 350L4 453Q2 457 2 459Q2 465 9 467L95 487Q103 489 103 495Q103 501 95 504L11 525Q4 526 4 533Q4 535 6 539L69 642Q72 646 76 646Q81 646 83 644L147 585Q150 581 155 581Q162 581 162 593L141 666Q141 667 141 667T140 669Q140 679 150 679H273Q279 679 280 676T282 667L262 592Q262 591 262 591T261 589Q261 581 269 581Q274 581 277 584L345 645Q347 647 350 647Q355 647 358 642L419 541Q421 537 421 535Q421 529 414 527L329 504Q322 503 322 495Q322 488 329 487L416 468Q423 466 423 460Q423 458 421 454L358 354Q353 348 350 348Q348 348 345 351L276 406Q271 409 269 409Q261 409 261 401Q261 398 262 397L282 319Q282 309 274 309H148Z"  />
<glyph unicode="+" horiz-adv-x="546" d="M217 14Q207 14 207 23V178Q207 183 204 186T195 189H41Q32 189 32 198V299Q32 309 41 309H195Q203 309 205 311T207 319V474Q207 484 217 484H326Q328 484 331 482T335 474V319Q335 309 348 309H504Q514 309 514 299V198Q514 189 504 189H348Q335 189 335 178V23Q335 14 326 14H217Z"  />
<glyph unicode="&#x2c;" horiz-adv-x="261" d="M27 -59Q25 -56 25 -51Q25 -44 31 -42Q55 -36 68 -24T82 3Q82 14 76 20T60 27H50Q40 27 40 37V159Q40 169 50 169H211Q222 169 222 159V64Q222 23 214 -7T189 -62T147 -104T86 -138Q80 -140 78 -140Q70 -140 67 -133L27 -59Z"  />
<glyph unicode="-" horiz-adv-x="315" d="M39 159Q30 159 30 168V304Q30 314 39 314H275Q285 314 285 304V168Q285 159 275 159H39Z"  />
<glyph unicode="." horiz-adv-x="261" d="M221 78Q221 61 214 46T193 20T164 1T131 -6Q113 -6 97 1T68 19T48 46T40 78Q40 113 67 137T131 161Q148 161 164 154T193 136T213 109T221 78Z"  />
<glyph unicode="/" horiz-adv-x="375" d="M-6 0Q-15 0 -15 9Q-15 12 -14 14L276 621Q281 631 292 631H381Q392 631 392 623Q392 621 390 617L100 10Q95 0 85 0H-6Z"  />
<glyph unicode="0" horiz-adv-x="546" d="M259 -13Q210 -13 170 0T102 38T58 98T42 175V456Q42 498 58 533T102 592T171 630T259 644H289Q337 644 376 631T444 593T488 534T504 456V175Q504 133 489 99T445 40T377 1T289 -13H259ZM289 134Q312 134 325 145T338 175V456Q338 474 325 486T289 498H259Q237 498 222 485T206 456V175Q206 159 221 147T259 134H289Z"  />
<glyph unicode="1" horiz-adv-x="546" d="M98 0Q89 0 89 10V138Q89 147 98 147H194Q206 147 206 158V356Q206 362 201 362Q198 362 196 361L175 349Q171 347 169 347Q164 347 161 350L68 433Q64 436 64 440Q64 443 68 447L264 625Q270 631 281 631H364Q373 631 373 621V158Q373 147 387 147H482Q491 147 491 138V10Q491 0 482 0H98Z"  />
<glyph unicode="2" horiz-adv-x="546" d="M66 0Q57 0 57 10V160Q57 216 77 253T129 317T195 359T262 390T313 419T334 454Q334 473 322 485T288 498H253Q230 498 213 484T181 442Q179 438 176 435T168 432Q166 432 163 433T158 436L38 491Q33 493 33 499Q33 505 36 510Q74 582 122 613T245 644H283Q385 644 441 597T498 469V424Q498 384 478 355T427 305T361 267T295 237T244 206T223 169V158Q223 153 225 150T236 147H482Q492 147 492 138V10Q492 0 482 0H66Z"  />
<glyph unicode="3" horiz-adv-x="546" d="M245 -13Q170 -13 122 18T36 121Q33 125 33 132Q33 137 38 140L160 196Q164 198 168 198Q176 198 181 189Q196 162 213 148T253 133H274Q300 133 313 146T326 178V211Q326 229 314 240T274 251H167Q157 251 157 260V389Q157 398 167 398H274Q300 398 313 409T326 438V456Q326 474 313 486T274 498H253Q230 498 213 484T181 442Q179 438 176 435T168 432Q166 432 164 433T160 435L38 491Q33 493 33 499Q33 505 36 510Q71 581 120 612T245 644H274Q323 644 363 630T432 591T476 528T492 446V429Q492 403 480 379T450 338Q445 334 445 330Q445 328 450 323Q469 307 480 280T492 214V186Q492 140 477 104T433 41T364 1T274 -13H245Z"  />
<glyph unicode="4" horiz-adv-x="546" d="M288 0Q279 0 279 10V116Q279 127 268 127H24Q15 127 15 136V246L295 624Q299 631 310 631H436Q438 631 442 629T446 621V284Q446 274 457 274H522Q532 274 532 264V136Q532 127 522 127H456Q446 127 446 116V10Q446 0 436 0H288ZM269 274Q279 274 279 282V380Q279 388 280 398T283 417Q285 428 287 439H284Q280 429 276 420Q273 412 269 404T262 390L199 284Q197 280 198 277T204 274H269Z"  />
<glyph unicode="5" horiz-adv-x="546" d="M252 -13Q203 -13 164 1T94 41Q87 47 79 56T62 76T49 95T43 110Q43 116 49 120L153 189Q157 192 163 192Q170 192 173 186Q201 134 250 134H281Q304 134 318 146T333 182V211Q333 228 320 239T284 251H86Q76 251 76 260V621Q76 631 86 631H480Q482 631 486 629T490 621V493Q490 484 480 484H256Q243 484 243 473V409Q243 398 256 398H300Q400 398 449 359T499 228V185Q499 92 445 40T285 -13H252Z"  />
<glyph unicode="6" horiz-adv-x="546" d="M262 -13Q213 -13 173 0T105 39T60 98T44 175V456Q44 498 58 532T101 592T169 630T262 644H299Q353 644 392 629T462 578Q486 553 508 510Q510 505 511 500T506 491L382 434Q376 431 371 434T363 442Q348 469 331 483T291 498H262Q240 498 226 486T211 456V395Q211 390 214 389T222 389Q245 402 272 402H316Q361 402 397 388T459 349T499 289T513 213V175Q513 133 497 98T453 39T384 1T295 -13H262ZM295 134Q318 134 332 146T347 175V213Q347 230 333 242T295 255H262Q240 255 226 243T211 213V175Q211 157 224 146T262 134H295Z"  />
<glyph unicode="7" horiz-adv-x="546" d="M95 0Q85 0 85 10V182Q85 219 103 248T149 301T209 343T269 379T315 414T334 452V473Q334 478 332 481T321 484H75Q65 484 65 493V621Q65 631 75 631H489Q498 631 498 621V414Q498 377 480 348T434 295T374 253T314 217T268 182T249 144V10Q249 0 240 0H95Z"  />
<glyph unicode="8" horiz-adv-x="546" d="M259 -13Q159 -13 101 41T42 192V209Q42 249 55 277T89 324Q97 330 89 335Q69 349 56 372T42 424V446Q42 492 57 529T101 591T170 630T259 644H289Q337 644 377 630T445 591T488 528T504 446V424Q504 393 490 371T456 335Q453 333 453 330T456 325Q478 306 491 276T504 209V183Q504 138 489 102T445 40T378 1T289 -13H259ZM289 383Q311 383 324 394T338 423V456Q338 474 325 486T289 498H259Q237 498 222 485T206 456V423Q206 408 221 396T259 383H289ZM289 134Q312 134 325 145T338 175V216Q338 233 325 244T289 256H259Q236 256 221 244T206 216V175Q206 159 221 147T259 134H289Z"  />
<glyph unicode="9" horiz-adv-x="546" d="M247 -13Q197 -13 159 -2T85 36Q62 54 42 74Q38 78 36 83T38 93L132 186Q137 191 142 191T152 185Q175 160 200 147T255 133H284Q306 133 320 145T335 175V216Q335 221 332 222T324 222Q301 209 274 209H230Q185 209 149 223T87 262T47 322T33 398V456Q33 498 49 533T93 592T162 630T251 644H284Q333 644 373 631T441 592T486 533T502 456V175Q502 133 488 99T445 39T377 1T284 -13H247ZM284 356Q306 356 320 368T335 398V456Q335 474 322 485T284 497H251Q228 497 214 485T199 456V398Q199 381 213 369T251 356H284Z"  />
<glyph unicode=":" horiz-adv-x="261" d="M221 315Q221 298 214 283T194 257T165 240T131 233Q94 233 67 257T40 315Q40 349 67 373T131 398Q148 398 164 391T193 373T213 347T221 315ZM221 77Q221 61 214 46T193 20T164 1T131 -6Q113 -6 97 1T68 19T48 45T40 77Q40 95 47 110T67 136T96 153T131 160Q148 160 164 153T193 135T213 109T221 77Z"  />
<glyph unicode=";" horiz-adv-x="261" d="M221 315Q221 298 214 283T194 257T165 240T132 233Q114 233 97 239T68 257T48 283T40 315Q40 332 47 347T67 373T97 391T132 398Q148 398 164 391T193 373T213 347T221 315ZM27 -59Q25 -56 25 -51Q25 -44 31 -42Q55 -36 68 -24T82 3Q82 14 76 20T60 27H50Q40 27 40 37V159Q40 169 50 169H211Q222 169 222 159V64Q222 -16 189 -61T86 -138Q80 -140 78 -140Q70 -140 67 -133L27 -59Z"  />
<glyph unicode="&lt;" horiz-adv-x="546" d="M58 198Q52 201 52 208V292Q52 298 58 301L411 488Q415 490 417 490Q420 490 423 485L480 397Q482 393 482 391Q482 386 476 383L233 259Q226 255 226 249Q226 243 233 240L474 120Q480 117 480 112Q480 110 478 106T474 99L426 14Q423 8 418 8Q416 8 412 10L58 198Z"  />
<glyph unicode="=" horiz-adv-x="546" d="M41 288Q32 288 32 297V400Q32 409 41 409H504Q514 409 514 400V297Q514 288 504 288H41ZM41 100Q32 100 32 110V210Q32 220 41 220H504Q514 220 514 210V110Q514 100 504 100H41Z"  />
<glyph unicode="&gt;" horiz-adv-x="546" d="M69 104Q66 107 66 112Q66 117 72 120L313 240Q320 243 320 249Q320 254 313 259L70 383Q64 386 64 391Q64 395 66 397L123 485Q126 490 129 490Q131 490 135 488L488 301Q494 298 494 292V208Q494 201 488 198L134 10Q130 8 128 8Q123 8 120 14L69 104Z"  />
<glyph unicode="?" horiz-adv-x="514" d="M153 189Q148 189 143 192T137 205V259Q137 297 150 320T184 359T227 384T270 402T303 422T317 452Q317 469 303 481T268 494H231Q212 494 193 482T165 447Q162 440 159 435T149 430Q144 430 140 433L31 485Q20 490 20 500Q20 506 24 513Q53 574 104 607T231 640H268Q316 640 356 626T424 588T468 529T484 452Q484 404 470 375T434 329T387 302T341 284T305 266T290 237V200Q290 189 278 189H153ZM304 78Q304 61 297 46T276 20T247 1T214 -6Q196 -6 180 1T151 19T131 46T123 78Q123 113 150 137T214 161Q231 161 247 154T276 136T296 109T304 78Z"  />
<glyph unicode="@" horiz-adv-x="776" d="M280 -13Q232 -13 193 0T125 38T82 96T66 172V459Q66 501 81 535T125 593T192 630T280 644H509Q556 644 595 631T663 593T706 535T722 459V252Q722 229 713 210T687 176T648 154T600 146H561Q539 146 519 149T481 161Q471 165 464 160Q433 137 387 137Q314 137 273 174T231 281V354Q231 414 264 451T371 489Q388 489 403 485T432 470Q435 468 438 468T441 473V481Q441 489 449 489H531Q544 489 544 476V257Q544 251 546 249T557 246H598Q612 246 612 257V459Q612 495 585 517T509 540H280Q231 540 203 518T175 459V172Q175 136 202 114T280 91H567Q572 91 577 87T582 77V2Q582 -5 577 -9T567 -13H280ZM436 344Q436 361 424 374T391 387Q370 387 357 375T343 344V278Q343 261 356 249T390 236Q410 236 423 248T436 278V344Z"  />
<glyph unicode="A" horiz-adv-x="524" d="M-1 0Q-12 0 -12 8Q-12 11 -11 13L198 624Q201 631 208 631H317Q324 631 326 624L535 13Q536 10 536 6Q536 0 526 0H369Q364 0 363 1T360 7L334 82Q331 89 321 89H201Q195 89 193 88T189 82L162 7Q159 0 153 0H-1ZM291 207Q300 207 300 216L284 294Q279 316 276 338T270 378Q267 398 265 417H262Q260 398 257 378Q254 361 250 339T241 294L223 216Q223 212 224 210T233 207H291Z"  />
<glyph unicode="B" horiz-adv-x="579" d="M58 0Q49 0 49 10V621Q49 631 58 631H337Q440 631 496 587T552 453V424Q552 392 537 365T493 324Q480 317 493 311Q521 297 536 270T552 211V183Q552 143 538 110T497 52T429 14T337 0H58ZM337 383Q363 383 375 394T387 423V442Q387 460 375 472T337 484H228Q216 484 216 473V394Q216 383 228 383H337ZM337 147Q358 147 372 159T387 188V216Q387 233 374 244T337 256H228Q216 256 216 245V158Q216 147 228 147H337Z"  />
<glyph unicode="C" horiz-adv-x="537" d="M251 -13Q200 -13 160 0T92 38T49 98T34 175V456Q34 498 49 533T92 592T160 630T251 644H320Q358 644 388 637T444 613T489 571T529 510Q530 508 531 505T532 499Q532 493 527 491L403 434Q399 432 397 432Q393 432 390 435T384 442Q369 469 352 483T311 498H251Q225 498 212 487T198 456V175Q198 156 211 145T251 133H311Q334 133 351 147T384 189Q389 198 397 198Q401 198 403 197L527 140Q532 137 532 132Q532 129 531 126T529 121Q510 85 489 60T443 18T388 -5T320 -13H251Z"  />
<glyph unicode="D" horiz-adv-x="586" d="M58 0Q49 0 49 10V621Q49 631 58 631H337Q436 631 494 579T552 433V196Q552 151 537 115T494 53T426 14T337 0H58ZM337 147Q358 147 372 159T387 188V442Q387 457 372 470T337 484H228Q216 484 216 473V158Q216 147 228 147H337Z"  />
<glyph unicode="E" horiz-adv-x="503" d="M58 0Q49 0 49 10V621Q49 631 58 631H474Q477 631 480 629T484 621V493Q484 484 474 484H228Q216 484 216 473V404Q216 393 228 393H430Q440 393 440 384V255Q440 246 430 246H228Q216 246 216 235V158Q216 147 228 147H474Q484 147 484 138V10Q484 0 474 0H58Z"  />
<glyph unicode="F" horiz-adv-x="483" d="M58 0Q49 0 49 10V621Q49 631 58 631H474Q477 631 480 629T484 621V493Q484 484 474 484H228Q216 484 216 473V404Q216 393 228 393H430Q440 393 440 384V255Q440 246 430 246H228Q216 246 216 235V10Q216 0 206 0H58Z"  />
<glyph unicode="G" horiz-adv-x="566" d="M251 -13Q146 -13 90 37T34 175V456Q34 498 49 533T92 592T160 630T251 644H330Q406 644 454 612T539 510Q540 508 541 505T542 499Q542 493 537 491L413 434Q409 432 407 432Q403 432 400 435T394 442Q379 469 362 483T322 498H251Q225 498 212 487T198 456V175Q198 156 213 145T251 134H321Q370 134 370 175V216Q370 226 358 226H283Q274 226 274 236V343Q274 353 283 353H527Q536 353 536 343V175Q536 86 480 37T321 -13H251Z"  />
<glyph unicode="H" horiz-adv-x="615" d="M58 0Q49 0 49 10V621Q49 631 58 631H206Q208 631 212 629T216 621V404Q216 393 228 393H389Q402 393 402 404V621Q402 631 411 631H556Q566 631 566 621V10Q566 0 556 0H411Q402 0 402 10V235Q402 246 389 246H228Q216 246 216 235V10Q216 0 206 0H58Z"  />
<glyph unicode="I" horiz-adv-x="265" d="M58 0Q49 0 49 10V621Q49 631 58 631H205Q208 631 212 629T216 621V10Q216 0 205 0H58Z"  />
<glyph unicode="J" horiz-adv-x="444" d="M115 203Q121 205 122 205Q129 205 132 197Q142 169 157 153T199 137Q222 137 233 148T244 178V621Q244 631 254 631H401Q404 631 407 629T410 621V192Q410 95 354 43T191 -10Q71 -10 10 73Q6 78 0 86T-11 103T-20 121T-24 137Q-24 143 -18 145L115 203Z"  />
<glyph unicode="K" horiz-adv-x="589" d="M58 0Q49 0 49 10V621Q49 631 58 631H206Q208 631 212 629T216 621V482Q216 465 214 446T207 414L382 624Q387 631 396 631H575Q586 631 586 624Q586 619 582 615L361 368Q359 366 359 362Q359 359 361 357L597 15Q599 12 599 8Q599 0 589 0H396Q385 0 380 8L246 217Q243 222 239 222Q233 222 230 217L216 202V10Q216 0 206 0H58Z"  />
<glyph unicode="L" horiz-adv-x="496" d="M58 0Q49 0 49 10V621Q49 631 58 631H206Q209 631 212 629T216 621V158Q216 147 228 147H474Q484 147 484 138V10Q484 0 474 0H58Z"  />
<glyph unicode="M" horiz-adv-x="693" d="M58 0Q49 0 49 10V621Q49 631 58 631H207Q214 631 217 625L336 318Q339 310 341 303T345 290Q347 284 347 278H351Q352 284 354 290Q356 295 358 302T364 318L479 625Q482 631 489 631H634Q644 631 644 621V10Q644 0 634 0H496Q487 0 487 10V139Q487 174 487 207T490 266Q492 296 494 323H491Q488 310 484 295Q481 282 477 266T466 233L413 85Q411 79 406 77T396 75H299Q294 75 289 77T281 85L228 236Q215 271 209 296Q205 310 203 323H200Q202 298 204 268Q206 242 207 209T209 141V10Q209 0 199 0H58Z"  />
<glyph unicode="N" horiz-adv-x="575" d="M58 0Q49 0 49 10V621Q49 631 58 631H185Q193 631 198 622L346 340Q351 330 355 322T362 306Q366 298 368 292H371Q369 315 368 342Q367 365 367 395T366 459V621Q366 631 375 631H516Q519 631 522 629T526 621V10Q526 0 516 0H391Q385 0 380 9L231 285Q226 293 223 301T216 316Q212 323 210 330H206Q207 306 209 280Q210 257 211 229T212 169V10Q212 0 202 0H58Z"  />
<glyph unicode="O" horiz-adv-x="570" d="M251 -13Q202 -13 162 0T94 38T50 98T34 175V456Q34 498 50 533T94 592T163 630T251 644H321Q369 644 408 631T476 593T520 534T536 456V175Q536 133 521 98T477 39T409 1T321 -13H251ZM321 134Q344 134 357 145T370 175V456Q370 474 357 486T321 498H251Q229 498 214 485T198 456V175Q198 156 211 145T251 134H321Z"  />
<glyph unicode="P" horiz-adv-x="516" d="M58 0Q49 0 49 10V621Q49 631 58 631H297Q395 631 453 585T512 449V409Q512 371 497 341T453 290T385 258T297 246H228Q216 246 216 235V10Q216 0 206 0H58ZM297 393Q320 393 333 402T347 428V448Q347 463 334 473T297 484H228Q216 484 216 473V404Q216 393 228 393H297Z"  />
<glyph unicode="Q" horiz-adv-x="570" d="M214 -80Q204 -80 204 -70V-25Q204 -22 203 -20T195 -15Q120 -1 77 47T34 168V456Q34 498 50 533T94 592T163 630T251 644H321Q369 644 408 631T476 593T520 534T536 456V168Q536 95 492 47T373 -15Q364 -16 364 -25V-70Q364 -80 353 -80H214ZM242 181Q248 191 257 191H310Q320 191 326 181L352 137Q354 133 358 133T365 137Q370 144 370 158V456Q370 474 357 486T321 498H251Q229 498 214 485T198 456V158Q198 145 205 137Q210 130 216 137L242 181Z"  />
<glyph unicode="R" horiz-adv-x="579" d="M58 0Q49 0 49 10V621Q49 631 58 631H337Q436 631 494 579T552 433V424Q552 377 532 342T479 286Q472 280 472 274Q472 272 474 264L572 13Q573 11 573 7Q573 0 563 0H407Q401 0 398 7L306 239Q303 246 297 246H228Q216 246 216 235V10Q216 0 206 0H58ZM337 383Q360 383 373 393T387 423V442Q387 484 337 484H228Q216 484 216 473V394Q216 383 228 383H337Z"  />
<glyph unicode="S" horiz-adv-x="489" d="M223 -13Q171 -13 130 3T58 48Q52 54 45 62T30 79T19 96T14 110Q14 116 20 120L124 189Q128 192 134 192Q141 192 144 186Q172 134 221 134H252Q275 134 289 146T303 180Q303 197 294 207T270 225T233 239T186 254Q146 268 115 284T63 322T30 374T19 446Q19 540 77 592T239 644H254Q303 644 342 631T411 591Q418 585 427 576T444 557T457 538T463 521Q463 515 457 511L353 442Q347 438 343 438Q336 438 333 445Q305 497 256 497H239Q216 497 203 486T189 451Q189 436 199 426T226 408T261 394T300 382Q344 368 376 351T430 311T462 257T473 184Q473 91 417 39T254 -13H223Z"  />
<glyph unicode="T" horiz-adv-x="441" d="M147 0Q138 0 138 10V473Q138 478 136 481T125 484H14Q4 484 4 493V621Q4 631 14 631H428Q430 631 433 629T437 621V493Q437 484 428 484H316Q308 484 306 481T304 473V10Q304 0 294 0H147Z"  />
<glyph unicode="U" horiz-adv-x="589" d="M260 -13Q211 -13 172 0T104 38T60 98T44 175V621Q44 631 53 631H198Q201 631 204 629T207 621V175Q207 156 219 145T260 134H330Q356 134 368 145T380 175V621Q380 631 389 631H536Q545 631 545 621V175Q545 133 530 98T486 39T418 1T330 -13H260Z"  />
<glyph unicode="V" horiz-adv-x="524" d="M208 0Q206 0 203 1T198 7L-11 618Q-12 620 -12 623Q-12 631 -1 631H156Q165 631 166 624L243 357Q251 330 255 311T262 271H265Q267 290 271 310T283 357L357 624Q358 631 366 631H526Q533 631 534 626T535 618L326 7Q323 0 317 0H208Z"  />
<glyph unicode="W" horiz-adv-x="718" d="M150 0Q143 0 141 8L-6 619Q-6 620 -6 620T-7 622Q-7 631 3 631H157Q164 631 166 623L218 320Q220 311 220 301T222 282Q223 271 223 261H226Q227 271 228 282Q229 291 230 301T233 320L299 621Q301 631 310 631H416Q425 631 427 622L485 321Q487 311 487 301T489 282Q490 271 490 261H493V264Q492 270 494 287T499 321L552 623Q554 631 561 631H715Q721 631 722 628T724 619L578 8Q576 0 569 0H451Q443 0 442 7L367 311Q363 328 361 347Q360 357 360 366H357Q356 366 356 361T355 347T353 330T350 311L277 7Q276 0 267 0H150Z"  />
<glyph unicode="X" horiz-adv-x="538" d="M7 0Q-4 0 -4 8Q-4 12 1 20L167 304Q170 310 170 314Q170 320 168 323L-3 613Q-5 615 -6 618T-8 623Q-8 631 1 631H168Q180 631 185 622L262 470Q265 464 269 464Q273 464 276 470L353 622Q357 631 370 631H537Q546 631 546 623Q546 621 544 617L370 323Q367 318 367 314Q367 308 371 303L540 15Q542 9 542 8Q542 0 532 0H371Q362 0 358 3T350 13L275 160Q272 165 269 165Q265 165 263 160L188 13Q185 7 181 4T167 0H7Z"  />
<glyph unicode="Y" horiz-adv-x="490" d="M172 0Q163 0 163 10V283L-36 616Q-38 618 -38 622Q-38 631 -28 631H139Q149 631 155 621L235 475Q238 468 244 468Q250 468 254 475L337 621Q343 631 353 631H518Q528 631 528 623Q528 620 526 616L328 283V10Q328 0 318 0H172Z"  />
<glyph unicode="Z" horiz-adv-x="485" d="M8 0Q-2 0 -2 8Q-2 10 0 14L232 469Q234 473 234 475Q234 484 221 484H46Q36 484 36 493V621Q36 631 46 631H475Q486 631 486 622Q486 619 485 617L253 162Q251 158 251 156Q251 147 264 147H458Q468 147 468 138V10Q468 0 458 0H8Z"  />
<glyph unicode="[" horiz-adv-x="405" d="M105 -159Q96 -159 96 -149V708Q96 718 105 718H341Q352 718 352 708V580Q352 570 341 570H273Q261 570 261 560V-1Q261 -11 273 -11H341Q352 -11 352 -21V-149Q352 -159 341 -159H105Z"  />
<glyph unicode="\" horiz-adv-x="375" d="M288 0Q281 0 278 6L-14 617Q-15 619 -15 622Q-15 631 -6 631H90Q95 631 98 625L389 16Q391 12 391 9Q391 0 381 0H288Z"  />
<glyph unicode="]" horiz-adv-x="405" d="M62 -159Q53 -159 53 -149V-21Q53 -11 62 -11H127Q141 -11 141 -1V560Q141 570 127 570H62Q53 570 53 580V708Q53 718 62 718H298Q309 718 309 708V-149Q309 -159 298 -159H62Z"  />
<glyph unicode="^" horiz-adv-x="546" d="M206 644H332L549 232H390L271 502H267L155 232H-4L206 644Z"  />
<glyph unicode="_" horiz-adv-x="269" d="M-1 -206Q-10 -206 -10 -196V-119Q-10 -110 -1 -110H270Q280 -110 280 -119V-196Q280 -206 270 -206H-1Z"  />
<glyph unicode="`" horiz-adv-x="500" d="M211 547Q199 547 189 556L27 707Q24 710 24 714Q24 723 34 723H198Q211 723 217 714L334 561Q336 559 336 554Q336 547 328 547H211Z"  />
<glyph unicode="a" horiz-adv-x="487" d="M177 0Q106 0 62 33T17 134V149Q17 181 31 204T69 243T126 265T196 273H274Q285 273 285 285V303Q285 322 270 333T229 345Q201 345 181 331T147 291Q144 285 138 285T127 288L22 357Q17 361 18 367T22 378Q44 418 82 444Q141 485 229 485Q334 485 392 438T450 298V10Q450 0 441 0H327Q323 0 320 2T316 8V32Q316 37 313 38T306 36Q290 19 264 10T208 0H177ZM239 111Q256 111 270 125T285 174Q285 186 269 186H208Q167 186 167 149Q167 111 206 111H239Z"  />
<glyph unicode="b" horiz-adv-x="502" d="M52 0Q42 0 42 10V621Q42 631 52 631H197Q199 631 203 629T207 621V506Q207 489 205 472T200 445Q233 472 274 472Q319 472 356 459T420 422T460 363T475 285V188Q475 90 427 45T279 0Q250 0 226 9T186 36Q182 40 179 39T175 32V8Q175 0 165 0H52ZM308 305Q308 323 295 334T258 345Q233 345 220 334T207 305V168Q207 149 221 138T258 127Q282 127 295 138T308 168V305Z"  />
<glyph unicode="c" horiz-adv-x="458" d="M27 296Q27 338 41 373T84 433T152 471T242 485Q325 485 372 450T446 346Q448 338 448 337Q448 329 441 326L331 279Q327 277 325 277Q317 277 313 287Q301 314 286 331T243 348Q218 348 206 337T194 306V166Q194 147 206 136T243 124Q270 124 285 141T313 185Q317 194 325 194Q329 194 331 193L441 146Q448 142 448 135Q448 132 446 126Q421 57 372 22T242 -13Q192 -13 152 0T84 39T42 99T27 176V296Z"  />
<glyph unicode="d" horiz-adv-x="502" d="M337 0Q327 0 327 8V32Q327 37 324 38T316 36Q300 19 276 10T223 0Q124 0 76 45T27 188V285Q27 328 41 362T82 421T145 459T228 472Q269 472 302 445Q299 454 297 471T295 506V621Q295 627 299 629T305 631H451Q460 631 460 621V10Q460 0 451 0H337ZM295 305Q295 323 282 334T244 345Q220 345 207 334T194 305V168Q194 149 207 138T244 127Q267 127 281 138T295 168V305Z"  />
<glyph unicode="e" horiz-adv-x="490" d="M27 296Q27 339 44 373T91 433T161 471T247 485Q292 485 331 471T400 432T446 372T463 296V216Q463 206 454 206H208Q194 206 194 194V175Q194 154 208 142T249 129Q298 129 326 181Q329 187 335 187T346 184L450 115Q458 110 456 105T450 94Q430 59 400 35Q341 -13 247 -13Q198 -13 158 0T88 39T43 99T27 176V296ZM303 287Q311 287 314 290T317 299V313Q317 333 302 347T256 361Q227 361 211 348T194 311V297Q194 287 206 287H303Z"  />
<glyph unicode="f" horiz-adv-x="317" d="M71 0Q62 0 62 10V276Q62 286 48 286H21Q12 286 12 296V413Q12 423 21 423H49Q62 423 62 433Q65 478 81 516T125 581T193 624T282 640Q305 640 327 638T363 632Q373 629 373 623Q373 618 371 611T367 598L341 502Q339 496 331 496Q323 496 310 498T278 500Q253 500 240 487T227 452V433Q227 423 239 423H304Q314 423 314 413V296Q314 286 304 286H239Q227 286 227 276V10Q227 0 217 0H71Z"  />
<glyph unicode="g" horiz-adv-x="484" d="M199 -225Q160 -225 128 -215T72 -184T36 -137T23 -74V-54Q23 -24 37 -1T74 35Q80 38 80 42T77 49Q66 58 59 71T52 102Q52 120 59 134T79 156Q89 162 78 170Q53 188 38 217T23 283V301Q23 339 36 370T73 424T130 459T203 472Q245 472 274 464T323 438Q326 436 329 437T332 442V463Q332 472 341 472H449Q452 472 455 470T458 463V280Q458 208 415 167T296 126H224Q211 126 205 118T198 96Q198 84 204 76T224 67H340Q424 67 463 38T503 -51V-74Q503 -145 456 -185T330 -225H199ZM310 300Q310 322 294 336T249 350Q220 350 202 336T184 300V282Q184 260 200 246T249 232Q277 232 293 245T310 282V300ZM323 -114Q337 -114 346 -104T355 -77Q355 -60 346 -51T323 -41H206Q192 -41 183 -51T173 -78Q173 -95 182 -104T206 -114H323Z"  />
<glyph unicode="h" horiz-adv-x="510" d="M52 0Q42 0 42 10V621Q42 631 52 631H197Q199 631 203 629T207 621V506Q207 489 205 472T200 445Q233 472 274 472Q319 472 356 459T419 422T459 363T473 285V10Q473 0 463 0H317Q308 0 308 10V295Q308 313 295 324T258 335Q233 335 220 324T207 295V10Q207 0 197 0H52Z"  />
<glyph unicode="i" horiz-adv-x="251" d="M209 585Q209 569 203 555T185 531T158 514T125 508Q90 508 66 529T42 585Q42 619 67 641T125 664Q160 664 184 642T209 585ZM53 0Q43 0 43 10V463Q43 472 53 472H199Q201 472 204 470T208 463V10Q208 0 199 0H53Z"  />
<glyph unicode="j" horiz-adv-x="249" d="M208 585Q208 569 202 555T184 531T157 514T124 508Q89 508 65 529T41 585Q41 619 66 641T124 664Q159 664 183 642T208 585ZM-48 -96Q-48 -83 -35 -83Q42 -83 42 -37V463Q42 472 52 472H198Q200 472 203 470T207 463V-39Q207 -80 195 -116T155 -178T80 -220T-37 -235Q-48 -235 -48 -225V-96Z"  />
<glyph unicode="k" horiz-adv-x="502" d="M52 0Q42 0 42 10V621Q42 631 52 631H197Q207 631 207 621V381Q207 364 205 347T200 320L317 465Q323 472 335 472H487Q497 472 497 463Q497 459 494 456L350 302Q346 298 346 293Q346 288 349 284L513 15Q515 11 515 8Q515 0 504 0H343Q332 0 327 8L230 177Q227 181 225 181Q221 181 218 178L213 174Q207 169 207 159V10Q207 0 199 0H52Z"  />
<glyph unicode="l" horiz-adv-x="249" d="M53 0Q42 0 42 10V621Q42 631 53 631H198Q201 631 204 629T207 621V10Q207 0 198 0H53Z"  />
<glyph unicode="m" horiz-adv-x="737" d="M52 0Q42 0 42 10V463Q42 472 52 472H158Q163 472 166 469T169 463V439Q169 434 173 434T179 436Q199 455 225 463T283 472Q315 472 337 464T377 441Q386 433 395 441Q432 472 506 472Q595 472 647 426T700 295V10Q700 0 692 0H544Q535 0 535 10V295Q535 335 496 335Q476 335 465 325T454 295V10Q454 0 444 0H298Q289 0 289 10V295Q289 335 249 335Q230 335 219 325T207 295V10Q207 0 197 0H52Z"  />
<glyph unicode="n" horiz-adv-x="510" d="M52 0Q42 0 42 10V463Q42 472 52 472H158Q163 472 166 469T169 463V439Q169 434 173 434Q175 434 179 436Q221 472 288 472Q377 472 425 427T473 295V10Q473 0 463 0H317Q308 0 308 10V295Q308 313 295 324T258 335Q233 335 220 324T207 295V10Q207 0 197 0H52Z"  />
<glyph unicode="o" horiz-adv-x="490" d="M27 296Q27 338 43 373T88 433T157 471T247 485Q295 485 334 472T402 434T447 374T463 296V176Q463 133 447 98T403 39T335 1T247 -13Q198 -13 158 0T88 39T43 99T27 176V296ZM296 311Q296 329 283 341T247 353Q222 353 208 341T194 311V161Q194 143 208 131T247 119Q269 119 282 131T296 161V311Z"  />
<glyph unicode="p" horiz-adv-x="502" d="M52 -159Q42 -159 42 -149V462Q42 472 52 472H165Q175 472 175 464V440Q175 435 178 434T186 436Q202 453 226 462T279 472Q378 472 426 427T475 284V187Q475 144 461 110T420 51T357 13T274 0Q240 0 217 14Q207 21 207 8V-149Q207 -155 203 -157T197 -159H52ZM308 304Q308 323 295 334T258 345Q235 345 221 334T207 304V167Q207 149 220 138T258 127Q282 127 295 138T308 167V304Z"  />
<glyph unicode="q" horiz-adv-x="502" d="M305 -159Q303 -159 299 -157T295 -149V8Q295 21 285 14Q262 0 228 0Q183 0 146 13T82 50T42 109T27 187V284Q27 382 75 427T223 472Q252 472 276 463T316 436Q320 432 323 433T327 440V464Q327 472 337 472H450Q460 472 460 462V-149Q460 -159 450 -159H305ZM295 304Q295 323 281 334T244 345Q220 345 207 334T194 304V167Q194 149 207 138T244 127Q269 127 282 138T295 167V304Z"  />
<glyph unicode="r" horiz-adv-x="322" d="M52 0Q42 0 42 10V463Q42 472 52 472H159Q169 472 169 462V429Q169 424 174 424Q178 424 179 426Q196 449 224 460T286 472H308Q318 472 318 461V326Q318 314 308 314Q295 314 282 317T254 321Q234 321 221 308T207 272V10Q207 0 197 0H52Z"  />
<glyph unicode="s" horiz-adv-x="449" d="M215 -13Q119 -13 58 37Q52 42 44 49T29 65T17 81T12 96Q12 101 17 105L106 168Q110 171 116 171Q123 171 126 165Q140 139 163 126T213 113H242Q274 113 274 140Q274 152 267 158T249 167T228 171T209 174Q174 180 141 187T81 210T38 252T21 323Q21 401 72 443T208 485H229Q324 485 385 436Q391 431 399 424T414 408T427 391T432 376Q432 371 427 367L338 304Q332 300 328 300Q321 300 318 307Q304 333 281 346T231 359H208Q192 359 184 352T176 332Q176 322 182 316T198 307T218 301T237 298Q271 292 305 285T367 263T412 222T430 152Q430 73 380 30T238 -13H215Z"  />
<glyph unicode="t" horiz-adv-x="332" d="M253 -10Q159 -10 110 40T61 180V324Q61 335 47 335H-3Q-12 335 -12 344V418L120 544Q127 551 138 551H215Q225 551 225 542V483Q225 472 239 472H306Q315 472 315 463V344Q315 335 306 335H239Q225 335 225 324V200Q225 137 286 137H303Q315 137 315 126V2Q315 -10 299 -10H253Z"  />
<glyph unicode="u" horiz-adv-x="510" d="M352 0Q347 0 344 3T340 9V33Q340 38 336 38Q335 38 331 36Q289 0 222 0Q133 0 85 45T37 177V462Q37 472 46 472H192Q202 472 202 462V177Q202 159 214 148T251 137Q276 137 289 148T303 177V462Q303 472 312 472H459Q468 472 468 462V9Q468 0 459 0H352Z"  />
<glyph unicode="v" horiz-adv-x="463" d="M171 0Q168 0 165 2T159 8L-20 459Q-21 461 -21 465Q-21 472 -12 472H145Q153 472 156 464L219 259Q224 244 228 228T234 197Q236 211 240 227T249 259L305 463Q307 468 311 470T319 472H474Q484 472 484 464Q484 462 482 457T479 450L301 8Q298 0 289 0H171Z"  />
<glyph unicode="w" horiz-adv-x="631" d="M138 0Q131 0 128 7L-15 460Q-16 461 -16 464Q-16 472 -6 472H136Q144 472 146 463L189 274Q191 263 193 252T197 232Q199 221 200 211Q201 221 202 232Q203 241 204 252T208 274L248 464Q250 472 257 472H374Q379 472 381 469T385 463L427 272Q429 261 430 251T434 231Q435 220 436 211V212Q435 217 438 235T445 272L485 463Q487 472 497 472H637Q647 472 647 464Q647 463 647 462T646 460L501 7Q498 0 490 0H384Q376 0 374 9L327 211Q325 221 324 231T320 251Q318 262 317 271Q317 262 315 251Q312 232 307 211L256 8Q254 0 246 0H138Z"  />
<glyph unicode="x" horiz-adv-x="477" d="M-16 0Q-26 0 -26 7Q-26 11 -23 14L133 222Q140 231 140 236Q140 240 133 251L-22 458Q-25 461 -25 464Q-25 472 -15 472H150Q163 472 168 463L229 372Q233 365 238 365Q244 365 248 372L309 463Q314 472 327 472H492Q501 472 501 464Q501 461 499 458L343 250Q338 244 338 237Q338 230 343 224L500 14Q502 12 502 7Q502 0 493 0H328Q315 0 310 9L247 103Q242 110 238 110Q235 110 230 103L167 9Q162 0 149 0H-16Z"  />
<glyph unicode="y" horiz-adv-x="510" d="M154 -34Q158 -31 164 -31Q171 -31 174 -37Q202 -89 251 -89Q303 -89 303 -44V8Q303 16 297 16Q296 16 292 14Q269 0 235 0Q144 0 91 50T37 187V462Q37 472 46 472H192Q202 472 202 462V177Q202 159 214 148T251 137Q276 137 289 148T303 177V462Q303 472 312 472H459Q468 472 468 462V-46Q468 -134 414 -184T251 -235Q200 -235 160 -220T90 -175Q84 -169 76 -161T62 -144T50 -126T45 -111Q45 -106 50 -103L154 -34Z"  />
<glyph unicode="z" horiz-adv-x="453" d="M11 0Q0 0 0 7Q0 10 3 15L183 322Q185 326 185 329Q185 335 176 335H21Q12 335 12 345V463Q12 472 21 472H428Q437 472 437 464Q437 460 436 458L255 150Q252 145 252 143Q252 137 262 137H435Q444 137 444 128V10Q444 0 435 0H11Z"  />
<glyph unicode="{" horiz-adv-x="438" d="M384 -145Q384 -159 367 -159Q318 -159 275 -147T200 -111T149 -49T130 40V166Q130 178 124 185T107 196T84 202T59 204Q40 204 40 217V343Q40 356 59 356Q71 356 84 357T107 363T123 375T130 394V520Q130 571 148 608T199 670T275 707T367 719Q384 719 384 705V591Q384 580 372 580Q334 580 314 564T294 520V385Q294 347 282 323T250 288Q235 280 250 272Q270 261 282 237T294 175V40Q294 13 314 -3T372 -20Q384 -20 384 -31V-145Z"  />
<glyph unicode="|" horiz-adv-x="260" d="M66 750H194V-250H66V750Z"  />
<glyph unicode="}" horiz-adv-x="438" d="M54 -31Q54 -20 66 -20Q104 -20 124 -4T144 40V175Q144 213 156 237T188 272Q203 280 188 288Q168 299 156 323T144 385V520Q144 547 124 563T66 580Q54 580 54 591V705Q54 719 71 719Q120 719 163 707T238 671T289 609T308 520V394Q308 382 314 375T331 364T354 358T379 356Q398 356 398 343V217Q398 204 379 204Q367 204 354 203T331 197T315 185T308 166V40Q308 -11 290 -48T239 -110T163 -147T71 -159Q54 -159 54 -145V-31Z"  />
<glyph unicode="~" horiz-adv-x="546" d="M9 247Q38 288 74 316T167 345Q199 345 226 337T280 315Q308 298 329 290T374 282Q390 282 402 289T424 306T441 328T455 350L538 252Q505 202 469 178T380 154Q354 154 325 160T266 184Q244 198 222 207T173 217Q157 217 144 210T122 192T105 169T93 149L9 247Z"  />
<glyph unicode="&#xA0;" horiz-adv-x="546" />
<glyph unicode="&#xA1;" horiz-adv-x="281" d="M231 401Q231 366 204 342T140 318Q123 318 107 325T78 343T58 370T50 401Q50 417 57 432T78 459T107 478T140 485Q158 485 174 478T203 460T223 433T231 401ZM67 -152Q64 -152 61 -150T58 -142V126L79 282Q81 290 88 290H193Q200 290 202 282L224 125V-142Q224 -152 214 -152H67Z"  />
<glyph unicode="&#xA2;" horiz-adv-x="546" d="M260 -40Q250 -40 250 -30V16Q250 25 241 25Q192 25 153 38T87 77T46 137T32 214V334Q32 376 46 411T87 471T152 509T239 523Q250 523 250 533V580Q250 590 260 590H332Q341 590 341 580V532Q341 523 351 523Q458 517 508 440Q512 434 517 425T526 407T534 389T538 375Q538 367 531 364L421 317Q417 315 415 315Q407 315 403 325Q394 345 381 364T348 384Q341 384 341 375V173Q341 164 348 164Q366 164 380 183T403 223Q407 232 415 232Q417 232 420 231T426 229L531 184Q538 180 538 173Q538 170 536 164Q511 98 468 64T351 25Q341 25 341 15V-30Q341 -40 332 -40H260ZM250 377Q250 386 242 386Q217 386 206 375T195 344V204Q195 185 205 174T241 162Q250 162 250 171V377Z"  />
<glyph unicode="&#xA3;" horiz-adv-x="546" d="M-3 0Q-13 0 -13 10V138Q-13 147 -3 147H77Q122 155 122 188V235Q122 246 108 246H86Q77 246 77 255V384Q77 393 86 393H108Q122 393 122 404V442Q122 487 135 524T175 587T243 629T341 644Q397 644 437 628T508 574Q512 568 520 558T535 536T547 515T553 499Q553 493 548 491L424 434Q420 432 418 432Q414 432 411 435T405 442Q390 469 374 483T334 498Q309 498 298 484T286 452V404Q286 393 298 393H365Q375 393 375 384V255Q375 246 365 246H298Q286 246 286 235V195Q286 178 278 165T258 143Q265 145 275 146T297 147H499Q508 147 508 138V10Q508 0 499 0H-3Z"  />
<glyph unicode="&#xA4;" horiz-adv-x="631" d="M554 176Q537 159 520 141T484 105L415 173Q388 156 359 149T300 141Q274 141 244 148T186 173L116 105Q99 122 82 140T46 176L116 242Q98 273 91 302T84 354Q84 377 90 406T116 466Q99 483 82 499T46 533Q64 550 81 568T116 604L186 536Q215 553 244 560T300 568Q328 568 358 561T414 536L484 604Q502 587 519 569T554 533Q537 516 520 500T484 466Q504 434 510 405T517 354Q517 331 510 303T484 242L554 176ZM417 355Q417 380 407 401T381 437T344 460T301 469Q276 469 255 460T218 436T193 400T184 355Q184 331 193 310T218 274T255 249T300 239Q324 239 345 248T383 273T408 310T417 355Z"  />
<glyph unicode="&#xA5;" horiz-adv-x="546" d="M199 0Q189 0 189 10V68Q189 75 186 77T177 79H31Q22 79 22 88V191Q22 200 31 200H177Q189 200 189 211V237Q189 242 186 245T177 248H31Q22 248 22 257V358Q22 368 31 368H126Q136 368 136 376Q136 377 134 383L-8 616Q-10 620 -10 622Q-10 631 0 631H163Q175 631 181 621L260 479Q264 470 271 470Q278 470 283 479L363 620Q368 631 383 631H545Q556 631 556 622Q556 620 554 616L413 383Q410 378 410 376Q410 368 421 368H515Q523 368 523 358V257Q523 248 515 248H368Q355 248 355 237V211Q355 200 368 200H515Q523 200 523 191V88Q523 79 515 79H368Q355 79 355 68V10Q355 0 346 0H199Z"  />
<glyph unicode="&#xA6;" horiz-adv-x="260" d="M66 718H194V368H66V718ZM66 191H194V-159H66V191Z"  />
<glyph unicode="&#xA7;" horiz-adv-x="546" d="M242 -236Q184 -236 142 -219T67 -159Q63 -154 57 -145T44 -125T33 -107T28 -94Q28 -88 34 -85L152 -32Q154 -31 157 -30T163 -28Q168 -28 172 -35Q186 -64 203 -76T244 -89H283Q306 -89 319 -77T333 -44Q333 -20 312 -7T260 19T191 44T123 79T70 135T49 225Q49 257 57 283T79 326Q83 330 83 335Q83 339 80 342Q66 362 58 387T49 444Q49 490 64 526T108 588T177 626T266 640H283Q343 640 384 622T455 569Q459 563 466 553T480 531T491 510T496 495Q496 488 488 485L370 431Q368 430 364 428T356 425Q347 425 345 434Q335 463 320 478T283 494H266Q243 494 230 482T216 452Q216 431 237 416T289 386T358 354T426 311T479 248T500 158Q500 131 494 107T477 63Q473 58 473 52Q473 48 476 44Q498 6 498 -44Q498 -87 483 -122T439 -183T371 -222T283 -236H242ZM341 165Q341 180 331 191T303 211T263 230T216 250Q210 252 208 252Q203 252 201 245T198 227Q198 213 208 204T236 186T276 169T324 151Q326 150 328 149T332 148Q337 148 339 153T341 165Z"  />
<glyph unicode="&#xA8;" horiz-adv-x="500" d="M436 629Q436 595 412 574T353 552Q318 552 294 573T269 629Q269 663 294 685T353 708Q387 708 411 686T436 629ZM230 629Q230 613 224 599T206 575T179 558T146 552Q111 552 87 573T63 629Q63 663 88 685T146 708Q181 708 205 686T230 629Z"  />
<glyph unicode="&#xA9;" horiz-adv-x="742" d="M279 -40Q231 -40 193 -27T126 9T83 67T68 143V407Q68 448 83 482T126 540T192 577T279 590H463Q510 590 549 577T615 540T658 483T674 407V143Q674 101 659 68T616 10T549 -27T463 -40H279ZM463 55Q516 55 544 80T573 143V407Q573 445 544 470T463 495H279Q225 495 196 470T167 407V143Q167 105 196 80T279 55H463ZM225 321Q225 381 267 417T377 454Q415 454 442 444T488 413Q509 392 521 363Q525 354 517 351L446 319Q438 316 435 323Q426 345 411 356T378 367Q358 367 343 355T327 325V229Q327 211 342 199T378 187Q395 187 410 198T435 232Q438 239 446 236L517 203Q524 200 521 192Q507 157 482 135Q463 118 438 109T377 100Q309 100 267 136T225 232V321Z"  />
<glyph unicode="&#xAA;" horiz-adv-x="366" d="M142 289Q91 289 59 314T27 389V400Q27 423 37 440T64 470T105 488T156 494H213Q221 494 221 502V508Q221 520 213 527T187 535Q136 535 93 516Q84 511 79 519L39 591Q36 596 38 600T44 606Q55 612 67 617T93 627Q133 640 188 640Q263 640 301 607T340 505V296Q340 289 334 289H251Q243 289 243 295V312Q243 315 241 316T236 315Q225 303 206 296T165 289H142ZM187 369Q199 369 210 381T221 418Q221 426 209 426H165Q135 426 135 397Q135 369 163 369H187Z"  />
<glyph unicode="&#xAB;" horiz-adv-x="625" d="M48 231Q39 236 39 248V320Q39 332 48 337L310 505Q314 507 316 507Q324 507 324 497V381Q324 373 330 373Q332 373 335 375T340 378L537 505Q541 507 543 507Q551 507 551 497V361Q551 349 542 345L437 292Q431 289 431 284Q431 279 437 276L542 223Q551 218 551 207V71Q551 61 543 61Q539 61 537 63L338 190Q336 191 334 192T330 194Q324 194 324 187V71Q324 61 316 61Q312 61 310 63L48 231ZM282 310Q282 323 274 323Q271 323 269 322L210 292Q204 289 204 284Q204 279 210 276L268 247Q272 245 274 245Q282 245 282 258V310Z"  />
<glyph unicode="&#xAC;" horiz-adv-x="546" d="M394 100Q384 100 384 109V278V279Q384 288 374 288H41Q32 288 32 297V400Q32 409 41 409H504Q514 409 514 400V399V109Q514 100 504 100H394Z"  />
<glyph unicode="&#xAD;" horiz-adv-x="315" d="M39 159Q30 159 30 168V304Q30 314 39 314H275Q285 314 285 304V168Q285 159 275 159H39Z"  />
<glyph unicode="&#xAE;" horiz-adv-x="475" d="M235 270Q190 270 154 282T91 316T50 370T36 440V460Q36 499 50 530T90 583T153 618T235 630H239Q284 630 321 618T384 584T424 530T439 460V440Q439 401 425 370T384 317T321 282T239 270H235ZM239 299Q317 299 363 338T409 440V460Q409 523 363 562T239 601H235Q157 601 112 562T66 460V440Q66 377 111 338T235 299H239ZM179 360Q170 360 170 370V538Q170 548 179 548H250Q282 548 300 531T318 485V481Q318 464 308 452T287 434Q281 432 285 425L314 374Q318 368 316 364T305 360H287Q282 360 279 366L254 419Q251 425 244 425H214Q201 425 201 415V370Q201 360 192 360H179ZM250 453Q286 453 286 485V488Q286 502 277 511T250 521H214Q201 521 201 510V463Q201 458 203 456T214 453H250Z"  />
<glyph unicode="&#xAF;" horiz-adv-x="500" d="M108 554Q98 554 98 564V692Q98 702 108 702H393Q403 702 403 692V564Q403 554 393 554H108Z"  />
<glyph unicode="&#xB0;" horiz-adv-x="298" d="M29 535Q29 583 62 613T147 644Q203 644 236 616T269 540V448Q269 400 236 372T147 344Q93 344 61 372T29 448V535ZM175 540Q175 549 168 555T149 561Q138 561 131 555T123 540V448Q123 439 130 433T149 427Q160 427 167 433T175 448V540Z"  />
<glyph unicode="&#xB1;" horiz-adv-x="546" d="M217 190Q207 190 207 199V334Q207 339 204 342T195 345H41Q32 345 32 354V455Q32 465 41 465H195Q203 465 205 467T207 475V620Q207 630 217 630H326Q328 630 331 628T335 620V475Q335 465 348 465H504Q514 465 514 455V354Q514 345 504 345H348Q335 345 335 334V199Q335 190 326 190H217ZM41 0Q32 0 32 9V110Q32 120 41 120H504Q514 120 514 110V9Q514 0 504 0H41Z"  />
<glyph unicode="&#xB2;" horiz-adv-x="329" d="M32 360Q28 360 25 362T22 372V455Q22 485 34 506T64 542T104 566T146 584Q169 593 185 601T201 618Q201 626 195 631T176 636H153Q127 636 110 608Q107 600 97 600Q96 600 92 601T79 606T54 616T13 632Q3 634 3 641Q3 643 5 647Q16 662 25 674T42 694Q63 713 89 721T148 729H172Q241 729 278 702T316 626V606Q316 585 306 570T279 542T242 521T202 504Q176 494 157 485T138 465Q138 457 139 455T146 453H301Q312 453 312 442V372Q312 364 309 362T301 360H32Z"  />
<glyph unicode="&#xB3;" horiz-adv-x="329" d="M148 353Q114 353 90 364T45 394Q41 398 36 404T25 417T16 430T12 441Q12 450 24 455Q62 470 77 474T96 479Q104 479 107 471Q126 446 153 446H167Q196 446 196 465V483Q196 499 167 499H97Q87 499 87 510V582Q87 593 97 593H167Q196 593 196 609V619Q196 636 167 636H153Q139 636 127 631T105 614Q100 606 93 606Q90 606 76 612T20 642Q11 647 11 651Q11 655 20 668T37 689Q59 710 85 719T148 729H167Q232 729 272 698T312 613V604Q312 588 307 579T291 558Q284 551 284 549Q284 547 291 540Q302 529 307 517T312 485V469Q312 415 273 384T167 353H148Z"  />
<glyph unicode="&#xB4;" horiz-adv-x="500" d="M172 547Q163 547 163 554Q163 558 166 561L283 714Q289 723 302 723H466Q476 723 476 714Q476 710 473 707L311 556Q300 547 289 547H172Z"  />
<glyph unicode="&#xB5;" horiz-adv-x="502" d="M43 -160Q33 -160 33 -150V462Q33 472 42 472H188Q198 472 198 462V177Q198 159 210 148T247 137Q272 137 285 148T299 177V462Q299 472 308 472H455Q464 472 464 462V9Q464 0 455 0H348Q343 0 340 3T336 9V33Q336 38 333 38T327 36Q285 0 218 0Q198 0 198 -18V-150Q198 -160 189 -160H43Z"  />
<glyph unicode="&#xB6;" horiz-adv-x="708" d="M258 -225Q248 -225 248 -215V69Q248 79 236 79H220Q173 79 139 93T83 131T51 190T41 266V433Q41 479 56 515T100 577T169 617T258 631H643Q652 631 652 621V-215Q652 -225 643 -225H495Q485 -225 485 -215V473Q485 484 473 484H427Q414 484 414 473V-215Q414 -225 405 -225H258Z"  />
<glyph unicode="&#xB7;" horiz-adv-x="546" d="M364 249Q364 232 357 217T337 191T308 174T274 167Q256 167 239 173T210 190T190 216T182 249Q182 267 189 282T209 308T238 325T273 332Q290 332 306 325T335 307T356 281T364 249Z"  />
<glyph unicode="&#xB8;" horiz-adv-x="500" d="M141 -237Q131 -237 131 -227V-140Q131 -129 143 -129H208Q224 -129 224 -117Q224 -105 208 -105H154Q148 -105 146 -102T146 -93L197 14H338L321 -23Q317 -33 323 -35Q344 -45 356 -65T368 -110V-117Q368 -169 331 -203T228 -237H141Z"  />
<glyph unicode="&#xB9;" horiz-adv-x="329" d="M51 360Q46 360 44 362T41 372V442Q41 453 51 453H113Q117 453 117 454V557Q117 562 113 562Q111 562 105 557T95 552Q93 552 89 555T82 560L29 601Q25 604 25 610Q25 615 29 619L156 717Q163 722 169 722H223Q233 722 233 710V454Q233 453 238 453H299Q309 453 309 442V372Q309 364 307 362T299 360H51Z"  />
<glyph unicode="&#xBA;" horiz-adv-x="342" d="M14 502Q14 533 25 558T58 602T108 630T174 640Q208 640 236 630T285 602T317 558T329 502V421Q329 358 287 321T174 284Q100 284 57 321T14 421V502ZM203 502Q203 513 195 519T174 526Q159 526 151 519T142 502V421Q142 396 174 396Q187 396 195 403T203 421V502Z"  />
<glyph unicode="&#xBB;" horiz-adv-x="625" d="M74 207Q74 218 83 223L188 276Q194 280 194 284Q194 289 188 292L83 345Q74 349 74 361V497Q74 507 82 507Q84 507 88 505L286 377Q288 376 290 375T295 373Q301 373 301 381V497Q301 507 309 507Q311 507 315 505L577 337Q586 332 586 320V248Q586 236 577 231L315 63Q313 61 309 61Q301 61 301 71V187Q301 194 295 194Q293 194 291 193T286 190L88 63Q86 61 82 61Q74 61 74 71V207ZM415 276Q421 280 421 284Q421 289 415 292L356 322Q354 323 351 323Q343 323 343 310V258Q343 245 351 245Q353 245 357 247L415 276Z"  />
<glyph unicode="&#xBC;" horiz-adv-x="846" d="M51 251Q46 251 44 253T41 263V333Q41 344 51 344H113Q117 344 117 345V448Q117 453 113 453Q111 453 105 448T95 443Q93 443 89 446T82 451L29 492Q25 495 25 501Q25 506 29 510L156 608Q163 613 169 613H223Q233 613 233 601V345Q233 344 238 344H299Q309 344 309 333V263Q309 255 307 253T299 251H51ZM697 0Q692 0 690 2T687 12V63Q687 70 680 70H521Q511 70 511 81V145L693 356V355Q699 362 706 362H788Q790 362 794 360T798 350V165Q798 159 805 159H843Q854 159 854 147V81Q854 70 843 70H804Q798 70 798 63V12Q798 4 795 2T788 0H697ZM682 159Q687 159 687 164V211Q687 218 688 228T691 241H687Q685 235 682 228T675 216L638 168Q634 163 634 161Q634 159 637 159H682ZM248 0Q239 0 239 9Q239 12 240 14L530 621Q535 631 546 631H625Q636 631 636 623Q636 621 634 617L344 10Q339 0 329 0H248Z"  />
<glyph unicode="&#xBD;" horiz-adv-x="846" d="M51 251Q46 251 44 253T41 263V333Q41 344 51 344H113Q117 344 117 345V448Q117 453 113 453Q111 453 105 448T95 443Q93 443 89 446T82 451L29 492Q25 495 25 501Q25 506 29 510L156 608Q163 613 169 613H223Q233 613 233 601V345Q233 344 238 344H299Q309 344 309 333V263Q309 255 307 253T299 251H51ZM549 0Q545 0 542 2T539 12V95Q539 125 551 146T581 182T621 206T663 224Q686 233 702 241T718 258Q718 266 712 271T693 276H670Q644 276 627 248Q624 240 614 240Q613 240 609 241T596 246T571 256T530 272Q520 274 520 281Q520 283 522 287Q533 302 542 314T559 334Q580 353 606 361T665 369H689Q758 369 795 342T833 266V246Q833 225 823 210T796 182T759 161T719 144Q693 134 674 125T655 105Q655 97 656 95T663 93H818Q829 93 829 82V12Q829 4 826 2T818 0H549ZM238 0Q229 0 229 9Q229 12 230 14L520 621Q525 631 536 631H615Q626 631 626 623Q626 621 624 617L334 10Q329 0 319 0H238Z"  />
<glyph unicode="&#xBE;" horiz-adv-x="846" d="M148 244Q114 244 90 255T45 285Q41 289 36 295T25 308T16 321T12 332Q12 341 24 346Q62 361 77 365T96 370Q104 370 107 362Q126 337 153 337H167Q196 337 196 356V374Q196 390 167 390H97Q87 390 87 401V473Q87 484 97 484H167Q196 484 196 500V510Q196 527 167 527H153Q139 527 127 522T105 505Q100 497 93 497Q90 497 76 503T20 533Q11 538 11 542Q11 546 20 559T37 580Q59 601 85 610T148 620H167Q232 620 272 589T312 504V495Q312 479 307 470T291 449Q284 442 284 440Q284 438 291 431Q302 420 307 408T312 376V360Q312 306 273 275T167 244H148ZM697 0Q692 0 690 2T687 12V63Q687 70 680 70H521Q511 70 511 81V145L693 356V355Q699 362 706 362H788Q790 362 794 360T798 350V165Q798 159 805 159H843Q854 159 854 147V81Q854 70 843 70H804Q798 70 798 63V12Q798 4 795 2T788 0H697ZM682 159Q687 159 687 164V211Q687 218 688 228T691 241H687Q685 235 682 228T675 216L638 168Q634 163 634 161Q634 159 637 159H682ZM242 -1Q233 -1 233 8Q233 11 234 13L524 620Q529 630 540 630H619Q630 630 630 622Q630 620 628 616L338 9Q333 -1 323 -1H242Z"  />
<glyph unicode="&#xBF;" horiz-adv-x="514" d="M389 401Q389 366 362 342T298 318Q281 318 265 325T236 343T216 370T208 401Q208 417 215 432T236 459T265 478T298 485Q316 485 332 478T361 460T381 433T389 401ZM244 -161Q196 -161 156 -147T88 -109T44 -50T28 27Q28 75 42 104T78 150T125 177T171 194T207 212T222 242V279Q222 290 234 290H359Q364 290 369 287T375 274V220Q375 182 362 159T328 120T285 95T242 77T209 57T195 27Q195 10 209 -2T244 -15H281Q300 -15 319 -3T347 32Q350 39 353 43T363 48Q368 48 374 45L481 -6Q491 -11 491 -21Q491 -27 488 -34Q459 -95 408 -128T281 -161H244Z"  />
<glyph unicode="&#xC0;" horiz-adv-x="524" d="M-1 0Q-12 0 -12 8Q-12 11 -11 13L198 624Q201 631 208 631H317Q324 631 326 624L535 13Q536 10 536 6Q536 0 526 0H369Q364 0 363 1T360 7L334 82Q331 89 321 89H201Q195 89 193 88T189 82L162 7Q159 0 153 0H-1ZM291 207Q300 207 300 216L284 294Q279 316 276 338T270 378Q267 398 265 417H262Q260 398 257 378Q254 361 250 339T241 294L223 216Q223 212 224 210T233 207H291ZM228 704Q216 704 206 713L44 864Q41 867 41 871Q41 880 51 880H215Q228 880 234 871L351 718Q353 716 353 711Q353 704 345 704H228Z"  />
<glyph unicode="&#xC1;" horiz-adv-x="524" d="M-1 0Q-12 0 -12 8Q-12 11 -11 13L198 624Q201 631 208 631H317Q324 631 326 624L535 13Q536 10 536 6Q536 0 526 0H369Q364 0 363 1T360 7L334 82Q331 89 321 89H201Q195 89 193 88T189 82L162 7Q159 0 153 0H-1ZM291 207Q300 207 300 216L284 294Q279 316 276 338T270 378Q267 398 265 417H262Q260 398 257 378Q254 361 250 339T241 294L223 216Q223 212 224 210T233 207H291ZM189 704Q180 704 180 711Q180 715 183 718L300 871Q306 880 319 880H483Q493 880 493 871Q493 867 490 864L328 713Q317 704 306 704H189Z"  />
<glyph unicode="&#xC2;" horiz-adv-x="524" d="M-1 0Q-12 0 -12 8Q-12 11 -11 13L198 624Q201 631 208 631H317Q324 631 326 624L535 13Q536 10 536 6Q536 0 526 0H369Q364 0 363 1T360 7L334 82Q331 89 321 89H201Q195 89 193 88T189 82L162 7Q159 0 153 0H-1ZM291 207Q300 207 300 216L284 294Q279 316 276 338T270 378Q267 398 265 417H262Q260 398 257 378Q254 361 250 339T241 294L223 216Q223 212 224 210T233 207H291ZM106 699Q96 699 96 707Q96 710 99 715L223 888Q228 896 239 896H298Q309 896 314 888L438 715Q440 712 440 707Q440 699 431 699H320Q309 699 305 708L278 755Q273 762 268 762Q262 762 259 755L232 708Q227 699 217 699H106Z"  />
<glyph unicode="&#xC3;" horiz-adv-x="524" d="M-1 0Q-12 0 -12 8Q-12 11 -11 13L198 624Q201 631 208 631H317Q324 631 326 624L535 13Q536 10 536 6Q536 0 526 0H369Q364 0 363 1T360 7L334 82Q331 89 321 89H201Q195 89 193 88T189 82L162 7Q159 0 153 0H-1ZM291 207Q300 207 300 216L284 294Q279 316 276 338T270 378Q267 398 265 417H262Q260 398 257 378Q254 361 250 339T241 294L223 216Q223 212 224 210T233 207H291ZM90 764Q83 769 83 773Q83 774 85 780Q105 824 136 851T212 878Q230 878 247 871T280 856T309 840T332 833Q343 833 350 840T363 857T372 873T382 881Q384 881 388 879L459 824Q463 821 463 816Q463 813 461 809Q429 750 396 728T332 705Q316 705 301 712T270 728T242 744T216 752Q207 752 200 746T187 732T177 718T168 711Q164 711 160 714L90 764Z"  />
<glyph unicode="&#xC4;" horiz-adv-x="524" d="M-1 0Q-12 0 -12 8Q-12 11 -11 13L198 624Q201 631 208 631H317Q324 631 326 624L535 13Q536 10 536 6Q536 0 526 0H369Q364 0 363 1T360 7L334 82Q331 89 321 89H201Q195 89 193 88T189 82L162 7Q159 0 153 0H-1ZM291 207Q300 207 300 216L284 294Q279 316 276 338T270 378Q267 398 265 417H262Q260 398 257 378Q254 361 250 339T241 294L223 216Q223 212 224 210T233 207H291ZM466 784Q466 750 442 729T383 707Q348 707 324 728T299 784Q299 818 324 840T383 863Q417 863 441 841T466 784ZM260 784Q260 768 254 754T236 730T209 713T176 707Q141 707 117 728T93 784Q93 818 118 840T176 863Q211 863 235 841T260 784Z"  />
<glyph unicode="&#xC5;" horiz-adv-x="524" d="M-1 0Q-12 0 -12 8Q-12 11 -11 13L198 624Q201 631 208 631H317Q324 631 326 624L535 13Q536 10 536 6Q536 0 526 0H369Q364 0 363 1T360 7L334 82Q331 89 321 89H201Q195 89 193 88T189 82L162 7Q159 0 153 0H-1ZM291 207Q300 207 300 216L284 294Q279 316 276 338T270 378Q267 398 265 417H262Q260 398 257 378Q254 361 250 339T241 294L223 216Q223 212 224 210T233 207H291ZM134 697Q134 748 169 778T262 809Q321 809 355 779T390 697V668Q390 616 356 586T262 556Q204 556 169 586T134 668V697ZM284 697Q284 706 278 712T262 718Q251 718 245 712T239 697V668Q239 649 262 649Q284 649 284 668V697Z"  />
<glyph unicode="&#xC6;" horiz-adv-x="722" d="M-95 0Q-106 0 -106 8Q-106 13 -104 15L294 623Q299 631 312 631H693Q703 631 703 621V493Q703 484 693 484H450Q437 484 437 473V404Q437 399 439 396T450 393H649Q659 393 659 384V255Q659 246 649 246H450Q437 246 437 235V158Q437 153 439 150T450 147H693Q703 147 703 138V10Q703 0 693 0H281Q271 0 271 10V116Q271 127 258 127H164Q153 127 147 117L78 8Q73 0 60 0H-95ZM262 254Q271 254 271 264V326Q271 335 271 346T273 369Q274 381 276 393H273Q269 381 265 370Q262 360 258 349T251 330L223 265Q222 263 222 260Q222 254 230 254H262Z"  />
<glyph unicode="&#xC7;" horiz-adv-x="537" d="M155 -237Q145 -237 145 -227V-140Q145 -129 157 -129H222Q238 -129 238 -117Q238 -105 222 -105H168Q159 -105 159 -98Q159 -95 160 -93L194 -21Q196 -15 196 -14Q196 -8 189 -7Q115 8 75 55T34 175V456Q34 498 49 533T92 592T160 630T251 644H320Q395 644 443 613T529 510Q530 508 531 505T532 499Q532 493 527 491L403 434Q399 432 397 432Q393 432 390 435T384 442Q369 469 352 483T311 498H251Q225 498 212 487T198 456V175Q198 156 211 145T251 133H311Q334 133 351 147T384 189Q389 198 397 198Q400 198 403 197T408 195L527 140Q532 137 532 132Q532 129 531 126T529 121Q497 58 455 26T352 -12Q342 -13 338 -18T333 -30Q333 -34 337 -35Q358 -45 370 -65T382 -110V-117Q382 -169 345 -203T242 -237H155Z"  />
<glyph unicode="&#xC8;" horiz-adv-x="503" d="M58 0Q49 0 49 10V621Q49 631 58 631H474Q477 631 480 629T484 621V493Q484 484 474 484H228Q216 484 216 473V404Q216 393 228 393H430Q440 393 440 384V255Q440 246 430 246H228Q216 246 216 235V158Q216 147 228 147H474Q484 147 484 138V10Q484 0 474 0H58ZM251 704Q239 704 229 713L67 864Q64 867 64 871Q64 880 74 880H238Q251 880 257 871L374 718Q376 716 376 711Q376 704 368 704H251Z"  />
<glyph unicode="&#xC9;" horiz-adv-x="503" d="M58 0Q49 0 49 10V621Q49 631 58 631H474Q477 631 480 629T484 621V493Q484 484 474 484H228Q216 484 216 473V404Q216 393 228 393H430Q440 393 440 384V255Q440 246 430 246H228Q216 246 216 235V158Q216 147 228 147H474Q484 147 484 138V10Q484 0 474 0H58ZM172 704Q163 704 163 711Q163 715 166 718L283 871Q289 880 302 880H466Q476 880 476 871Q476 867 473 864L311 713Q300 704 289 704H172Z"  />
<glyph unicode="&#xCA;" horiz-adv-x="503" d="M58 0Q49 0 49 10V621Q49 631 58 631H474Q477 631 480 629T484 621V493Q484 484 474 484H228Q216 484 216 473V404Q216 393 228 393H430Q440 393 440 384V255Q440 246 430 246H228Q216 246 216 235V158Q216 147 228 147H474Q484 147 484 138V10Q484 0 474 0H58ZM109 699Q99 699 99 707Q99 710 102 715L226 888Q231 896 242 896H301Q312 896 317 888L441 715Q443 712 443 707Q443 699 434 699H323Q312 699 308 708L281 755Q276 762 271 762Q265 762 262 755L235 708Q230 699 220 699H109Z"  />
<glyph unicode="&#xCB;" horiz-adv-x="503" d="M58 0Q49 0 49 10V621Q49 631 58 631H474Q477 631 480 629T484 621V493Q484 484 474 484H228Q216 484 216 473V404Q216 393 228 393H430Q440 393 440 384V255Q440 246 430 246H228Q216 246 216 235V158Q216 147 228 147H474Q484 147 484 138V10Q484 0 474 0H58ZM469 784Q469 750 445 729T386 707Q351 707 327 728T302 784Q302 818 327 840T386 863Q420 863 444 841T469 784ZM263 784Q263 768 257 754T239 730T212 713T179 707Q144 707 120 728T96 784Q96 818 121 840T179 863Q214 863 238 841T263 784Z"  />
<glyph unicode="&#xCC;" horiz-adv-x="265" d="M58 0Q49 0 49 10V621Q49 631 58 631H205Q208 631 212 629T216 621V10Q216 0 205 0H58ZM99 704Q87 704 77 713L-85 864Q-88 867 -88 871Q-88 880 -78 880H86Q99 880 105 871L222 718Q224 716 224 711Q224 704 216 704H99Z"  />
<glyph unicode="&#xCD;" horiz-adv-x="265" d="M58 0Q49 0 49 10V621Q49 631 58 631H205Q208 631 212 629T216 621V10Q216 0 205 0H58ZM60 704Q51 704 51 711Q51 715 54 718L171 871Q177 880 190 880H354Q364 880 364 871Q364 867 361 864L199 713Q188 704 177 704H60Z"  />
<glyph unicode="&#xCE;" horiz-adv-x="265" d="M58 0Q49 0 49 10V621Q49 631 58 631H205Q208 631 212 629T216 621V10Q216 0 205 0H58ZM-23 699Q-33 699 -33 707Q-33 710 -30 715L94 888Q99 896 110 896H169Q180 896 185 888L309 715Q311 712 311 707Q311 699 302 699H191Q180 699 176 708L149 755Q144 762 139 762Q133 762 130 755L103 708Q98 699 88 699H-23Z"  />
<glyph unicode="&#xCF;" horiz-adv-x="265" d="M58 0Q49 0 49 10V621Q49 631 58 631H205Q208 631 212 629T216 621V10Q216 0 205 0H58ZM337 784Q337 750 313 729T254 707Q219 707 195 728T170 784Q170 818 195 840T254 863Q288 863 312 841T337 784ZM131 784Q131 768 125 754T107 730T80 713T47 707Q12 707 -12 728T-36 784Q-36 818 -11 840T47 863Q82 863 106 841T131 784Z"  />
<glyph unicode="&#xD0;" horiz-adv-x="586" d="M58 0Q49 0 49 10V227Q49 238 36 238H-5Q-14 238 -14 247V384Q-14 393 -5 393H36Q49 393 49 405V621Q49 631 58 631H337Q436 631 494 579T552 433V196Q552 151 537 115T494 53T426 14T337 0H58ZM337 147Q358 147 372 159T387 188V442Q387 457 372 470T337 484H228Q216 484 216 473V407Q216 393 229 393H296Q306 393 306 384V247Q306 238 296 238H229Q216 238 216 226V158Q216 147 228 147H337Z"  />
<glyph unicode="&#xD1;" horiz-adv-x="575" d="M58 0Q49 0 49 10V621Q49 631 58 631H185Q193 631 198 622L346 340Q351 330 355 322T362 306Q366 298 368 292H371Q369 315 368 342Q367 365 367 395T366 459V621Q366 631 375 631H516Q519 631 522 629T526 621V10Q526 0 516 0H391Q385 0 380 9L231 285Q226 293 223 301T216 316Q212 323 210 330H206Q207 306 209 280Q210 257 211 229T212 169V10Q212 0 202 0H58ZM115 764Q108 769 108 773Q108 774 110 780Q130 824 161 851T237 878Q255 878 272 871T305 856T334 840T357 833Q368 833 375 840T388 857T397 873T407 881Q409 881 413 879L484 824Q488 821 488 816Q488 813 486 809Q454 750 421 728T357 705Q341 705 326 712T295 728T267 744T241 752Q232 752 225 746T212 732T202 718T193 711Q189 711 185 714L115 764Z"  />
<glyph unicode="&#xD2;" horiz-adv-x="570" d="M251 -13Q202 -13 162 0T94 38T50 98T34 175V456Q34 498 50 533T94 592T163 630T251 644H321Q369 644 408 631T476 593T520 534T536 456V175Q536 133 521 98T477 39T409 1T321 -13H251ZM321 134Q344 134 357 145T370 175V456Q370 474 357 486T321 498H251Q229 498 214 485T198 456V175Q198 156 211 145T251 134H321ZM271 704Q259 704 249 713L87 864Q84 867 84 871Q84 880 94 880H258Q271 880 277 871L394 718Q396 716 396 711Q396 704 388 704H271Z"  />
<glyph unicode="&#xD3;" horiz-adv-x="570" d="M251 -13Q202 -13 162 0T94 38T50 98T34 175V456Q34 498 50 533T94 592T163 630T251 644H321Q369 644 408 631T476 593T520 534T536 456V175Q536 133 521 98T477 39T409 1T321 -13H251ZM321 134Q344 134 357 145T370 175V456Q370 474 357 486T321 498H251Q229 498 214 485T198 456V175Q198 156 211 145T251 134H321ZM182 704Q173 704 173 711Q173 715 176 718L293 871Q299 880 312 880H476Q486 880 486 871Q486 867 483 864L321 713Q310 704 299 704H182Z"  />
<glyph unicode="&#xD4;" horiz-adv-x="570" d="M251 -13Q202 -13 162 0T94 38T50 98T34 175V456Q34 498 50 533T94 592T163 630T251 644H321Q369 644 408 631T476 593T520 534T536 456V175Q536 133 521 98T477 39T409 1T321 -13H251ZM321 134Q344 134 357 145T370 175V456Q370 474 357 486T321 498H251Q229 498 214 485T198 456V175Q198 156 211 145T251 134H321ZM129 699Q119 699 119 707Q119 710 122 715L246 888Q251 896 262 896H321Q332 896 337 888L461 715Q463 712 463 707Q463 699 454 699H343Q332 699 328 708L301 755Q296 762 291 762Q285 762 282 755L255 708Q250 699 240 699H129Z"  />
<glyph unicode="&#xD5;" horiz-adv-x="570" d="M251 -13Q202 -13 162 0T94 38T50 98T34 175V456Q34 498 50 533T94 592T163 630T251 644H321Q369 644 408 631T476 593T520 534T536 456V175Q536 133 521 98T477 39T409 1T321 -13H251ZM321 134Q344 134 357 145T370 175V456Q370 474 357 486T321 498H251Q229 498 214 485T198 456V175Q198 156 211 145T251 134H321ZM113 764Q106 769 106 773Q106 774 108 780Q128 824 159 851T235 878Q253 878 270 871T303 856T332 840T355 833Q366 833 373 840T386 857T395 873T405 881Q407 881 411 879L482 824Q486 821 486 816Q486 813 484 809Q452 750 419 728T355 705Q339 705 324 712T293 728T265 744T239 752Q230 752 223 746T210 732T200 718T191 711Q187 711 183 714L113 764Z"  />
<glyph unicode="&#xD6;" horiz-adv-x="570" d="M251 -13Q202 -13 162 0T94 38T50 98T34 175V456Q34 498 50 533T94 592T163 630T251 644H321Q369 644 408 631T476 593T520 534T536 456V175Q536 133 521 98T477 39T409 1T321 -13H251ZM321 134Q344 134 357 145T370 175V456Q370 474 357 486T321 498H251Q229 498 214 485T198 456V175Q198 156 211 145T251 134H321ZM489 784Q489 750 465 729T406 707Q371 707 347 728T322 784Q322 818 347 840T406 863Q440 863 464 841T489 784ZM283 784Q283 768 277 754T259 730T232 713T199 707Q164 707 140 728T116 784Q116 818 141 840T199 863Q234 863 258 841T283 784Z"  />
<glyph unicode="&#xD7;" horiz-adv-x="546" d="M53 100Q49 103 49 107Q49 110 52 113L175 236Q180 241 180 245Q180 249 177 252L53 376Q49 379 49 382Q49 386 53 390L130 467Q132 469 136 469Q141 469 144 466L267 342Q270 339 275 339Q280 339 284 344L408 469Q412 473 415 473Q419 473 422 469L494 397Q497 394 497 392Q497 388 493 384L368 260Q363 256 363 251Q363 246 367 243L491 119Q494 116 494 113Q494 109 491 106L414 29Q408 25 406 25Q403 25 400 28L277 152Q274 155 269 155Q264 155 260 151L137 28Q134 25 130 25Q128 25 125 28L53 100Z"  />
<glyph unicode="&#xD8;" horiz-adv-x="570" d="M251 -13Q202 -13 162 0T94 38T50 98T34 175V456Q34 498 50 533T94 592T163 630T251 644H321Q369 644 408 631T476 593T520 534T536 456V175Q536 133 521 98T477 39T409 1T321 -13H251ZM308 487Q313 498 302 498H251Q229 498 214 485T198 456V259Q198 254 201 253T207 257L308 487ZM321 134Q344 134 357 145T370 175V369Q370 374 367 375T361 371L262 146Q257 134 270 134H321Z"  />
<glyph unicode="&#xD9;" horiz-adv-x="589" d="M260 -13Q211 -13 172 0T104 38T60 98T44 175V621Q44 631 53 631H198Q201 631 204 629T207 621V175Q207 156 219 145T260 134H330Q356 134 368 145T380 175V621Q380 631 389 631H536Q545 631 545 621V175Q545 133 530 98T486 39T418 1T330 -13H260ZM280 704Q268 704 258 713L96 864Q93 867 93 871Q93 880 103 880H267Q280 880 286 871L403 718Q405 716 405 711Q405 704 397 704H280Z"  />
<glyph unicode="&#xDA;" horiz-adv-x="589" d="M260 -13Q211 -13 172 0T104 38T60 98T44 175V621Q44 631 53 631H198Q201 631 204 629T207 621V175Q207 156 219 145T260 134H330Q356 134 368 145T380 175V621Q380 631 389 631H536Q545 631 545 621V175Q545 133 530 98T486 39T418 1T330 -13H260ZM201 704Q192 704 192 711Q192 715 195 718L312 871Q318 880 331 880H495Q505 880 505 871Q505 867 502 864L340 713Q329 704 318 704H201Z"  />
<glyph unicode="&#xDB;" horiz-adv-x="589" d="M260 -13Q211 -13 172 0T104 38T60 98T44 175V621Q44 631 53 631H198Q201 631 204 629T207 621V175Q207 156 219 145T260 134H330Q356 134 368 145T380 175V621Q380 631 389 631H536Q545 631 545 621V175Q545 133 530 98T486 39T418 1T330 -13H260ZM138 699Q128 699 128 707Q128 710 131 715L255 888Q260 896 271 896H330Q341 896 346 888L470 715Q472 712 472 707Q472 699 463 699H352Q341 699 337 708L310 755Q305 762 300 762Q294 762 291 755L264 708Q259 699 249 699H138Z"  />
<glyph unicode="&#xDC;" horiz-adv-x="589" d="M260 -13Q211 -13 172 0T104 38T60 98T44 175V621Q44 631 53 631H198Q201 631 204 629T207 621V175Q207 156 219 145T260 134H330Q356 134 368 145T380 175V621Q380 631 389 631H536Q545 631 545 621V175Q545 133 530 98T486 39T418 1T330 -13H260ZM498 784Q498 750 474 729T415 707Q380 707 356 728T331 784Q331 818 356 840T415 863Q449 863 473 841T498 784ZM292 784Q292 768 286 754T268 730T241 713T208 707Q173 707 149 728T125 784Q125 818 150 840T208 863Q243 863 267 841T292 784Z"  />
<glyph unicode="&#xDD;" horiz-adv-x="490" d="M172 0Q163 0 163 10V283L-36 616Q-38 618 -38 622Q-38 631 -28 631H139Q149 631 155 621L235 475Q238 468 244 468Q250 468 254 475L337 621Q343 631 353 631H518Q528 631 528 623Q528 620 526 616L328 283V10Q328 0 318 0H172ZM153 704Q144 704 144 711Q144 715 147 718L264 871Q270 880 283 880H447Q457 880 457 871Q457 867 454 864L292 713Q281 704 270 704H153Z"  />
<glyph unicode="&#xDE;" horiz-adv-x="516" d="M58 0Q49 0 49 10V621Q49 631 58 631H205Q208 631 212 629T216 621V524Q216 511 229 511H297Q395 511 453 465T512 329V289Q512 251 497 221T453 170T385 138T297 126H228Q216 126 216 115V10Q216 0 206 0H58ZM297 273Q320 273 333 282T347 308V328Q347 343 334 353T297 364H228Q216 364 216 353V284Q216 273 228 273H297Z"  />
<glyph unicode="&#xDF;" horiz-adv-x="522" d="M251 127Q251 139 261 139Q299 139 313 150T328 188V216Q328 244 314 256T262 268Q249 268 249 279V378Q249 391 261 391Q293 391 310 400T328 433V452Q328 471 315 482T279 494Q253 494 240 483T226 452V10Q226 0 217 0H72Q62 0 62 10V276Q62 286 48 286H21Q12 286 12 296V413Q12 423 21 423H49Q62 423 62 433V446Q62 485 75 520T117 582T187 624T285 640Q386 640 440 587T494 442V424Q494 392 483 366T454 324Q444 314 454 306Q470 292 482 267T494 209V186Q494 144 483 108T446 46T375 4T263 -11Q251 -11 251 -1V127Z"  />
<glyph unicode="&#xE0;" horiz-adv-x="487" d="M177 0Q106 0 62 33T17 134V149Q17 181 31 204T69 243T126 265T196 273H274Q285 273 285 285V303Q285 322 270 333T229 345Q201 345 181 331T147 291Q144 285 138 285T127 288L22 357Q17 361 18 367T22 378Q44 418 82 444Q141 485 229 485Q334 485 392 438T450 298V10Q450 0 441 0H327Q323 0 320 2T316 8V32Q316 37 313 38T306 36Q290 19 264 10T208 0H177ZM239 111Q256 111 270 125T285 174Q285 186 269 186H208Q167 186 167 149Q167 111 206 111H239ZM224 547Q212 547 202 556L40 707Q37 710 37 714Q37 723 47 723H211Q224 723 230 714L347 561Q349 559 349 554Q349 547 341 547H224Z"  />
<glyph unicode="&#xE1;" horiz-adv-x="487" d="M177 0Q106 0 62 33T17 134V149Q17 181 31 204T69 243T126 265T196 273H274Q285 273 285 285V303Q285 322 270 333T229 345Q201 345 181 331T147 291Q144 285 138 285T127 288L22 357Q17 361 18 367T22 378Q44 418 82 444Q141 485 229 485Q334 485 392 438T450 298V10Q450 0 441 0H327Q323 0 320 2T316 8V32Q316 37 313 38T306 36Q290 19 264 10T208 0H177ZM239 111Q256 111 270 125T285 174Q285 186 269 186H208Q167 186 167 149Q167 111 206 111H239ZM146 547Q137 547 137 554Q137 558 140 561L257 714Q263 723 276 723H440Q450 723 450 714Q450 710 447 707L285 556Q274 547 263 547H146Z"  />
<glyph unicode="&#xE2;" horiz-adv-x="487" d="M177 0Q106 0 62 33T17 134V149Q17 181 31 204T69 243T126 265T196 273H274Q285 273 285 285V303Q285 322 270 333T229 345Q201 345 181 331T147 291Q144 285 138 285T127 288L22 357Q17 361 18 367T22 378Q44 418 82 444Q141 485 229 485Q334 485 392 438T450 298V10Q450 0 441 0H327Q323 0 320 2T316 8V32Q316 37 313 38T306 36Q290 19 264 10T208 0H177ZM239 111Q256 111 270 125T285 174Q285 186 269 186H208Q167 186 167 149Q167 111 206 111H239ZM81 542Q71 542 71 550Q71 553 74 558L198 731Q203 739 214 739H273Q284 739 289 731L413 558Q415 555 415 550Q415 542 406 542H295Q284 542 280 551L253 598Q248 605 243 605Q237 605 234 598L207 551Q202 542 192 542H81Z"  />
<glyph unicode="&#xE3;" horiz-adv-x="487" d="M177 0Q106 0 62 33T17 134V149Q17 181 31 204T69 243T126 265T196 273H274Q285 273 285 285V303Q285 322 270 333T229 345Q201 345 181 331T147 291Q144 285 138 285T127 288L22 357Q17 361 18 367T22 378Q44 418 82 444Q141 485 229 485Q334 485 392 438T450 298V10Q450 0 441 0H327Q323 0 320 2T316 8V32Q316 37 313 38T306 36Q290 19 264 10T208 0H177ZM239 111Q256 111 270 125T285 174Q285 186 269 186H208Q167 186 167 149Q167 111 206 111H239ZM60 606Q53 611 53 615Q53 616 55 622Q75 666 106 693T182 720Q200 720 217 713T250 698T279 682T302 675Q313 675 320 682T333 699T342 715T352 723Q354 723 358 721L429 666Q433 663 433 658Q433 655 431 651Q399 592 366 570T302 547Q286 547 271 554T240 570T212 586T186 594Q177 594 170 588T157 574T147 560T138 553Q134 553 130 556L60 606Z"  />
<glyph unicode="&#xE4;" horiz-adv-x="487" d="M177 0Q106 0 62 33T17 134V149Q17 181 31 204T69 243T126 265T196 273H274Q285 273 285 285V303Q285 322 270 333T229 345Q201 345 181 331T147 291Q144 285 138 285T127 288L22 357Q17 361 18 367T22 378Q44 418 82 444Q141 485 229 485Q334 485 392 438T450 298V10Q450 0 441 0H327Q323 0 320 2T316 8V32Q316 37 313 38T306 36Q290 19 264 10T208 0H177ZM239 111Q256 111 270 125T285 174Q285 186 269 186H208Q167 186 167 149Q167 111 206 111H239ZM430 629Q430 595 406 574T347 552Q312 552 288 573T263 629Q263 663 288 685T347 708Q381 708 405 686T430 629ZM224 629Q224 613 218 599T200 575T173 558T140 552Q105 552 81 573T57 629Q57 663 82 685T140 708Q175 708 199 686T224 629Z"  />
<glyph unicode="&#xE5;" horiz-adv-x="487" d="M177 0Q106 0 62 33T17 134V149Q17 181 31 204T69 243T126 265T196 273H274Q285 273 285 285V303Q285 322 270 333T229 345Q201 345 181 331T147 291Q144 285 138 285T127 288L22 357Q17 361 18 367T22 378Q44 418 82 444Q141 485 229 485Q334 485 392 438T450 298V10Q450 0 441 0H327Q323 0 320 2T316 8V32Q316 37 313 38T306 36Q290 19 264 10T208 0H177ZM239 111Q256 111 270 125T285 174Q285 186 269 186H208Q167 186 167 149Q167 111 206 111H239ZM116 669Q116 720 151 750T244 781Q303 781 337 751T372 669V640Q372 588 338 558T244 528Q186 528 151 558T116 640V669ZM266 669Q266 678 260 684T244 690Q233 690 227 684T221 669V640Q221 621 244 621Q266 621 266 640V669Z"  />
<glyph unicode="&#xE6;" horiz-adv-x="748" d="M177 -13Q106 -13 62 20T17 121V149Q17 181 31 204T69 243T126 265T196 273H274Q285 273 285 285V303Q285 322 270 333T229 345Q201 345 181 331T147 291Q144 285 138 285T127 288L22 357Q17 361 18 367T22 378Q45 417 81 443Q110 463 147 474T229 485Q274 485 305 478T361 460Q367 457 373 456T389 459Q438 485 505 485Q550 485 589 471T658 432T704 372T721 296V216Q721 206 712 206H466Q452 206 452 194V175Q452 154 466 142T507 129Q556 129 584 181Q587 187 593 187T604 184L708 115Q716 110 714 105T708 94Q686 54 649 28Q593 -13 505 -13Q396 -13 340 43Q326 57 315 43Q297 20 269 4T208 -13H177ZM561 287Q569 287 572 290T575 299V313Q575 333 560 347T514 361Q485 361 469 348T452 311V297Q452 287 464 287H561ZM234 98Q252 98 268 117T285 174Q285 186 269 186H208Q188 186 178 174T167 141Q167 121 176 110T206 98H234Z"  />
<glyph unicode="&#xE7;" horiz-adv-x="458" d="M112 -237Q102 -237 102 -227V-140Q102 -129 114 -129H179Q195 -129 195 -117Q195 -105 179 -105H125Q116 -105 116 -98Q116 -95 117 -93L154 -15Q155 -13 155 -9Q155 -1 145 3Q88 24 58 69T27 176V296Q27 338 41 373T84 433T152 471T242 485Q302 485 342 467T411 412Q415 406 421 397T434 378T444 357T448 337Q448 329 441 326L331 279Q327 277 325 277Q317 277 313 287Q301 314 286 331T243 348Q218 348 206 337T194 306V166Q194 147 206 136T243 124Q270 124 285 141T313 185Q317 194 325 194Q327 194 330 193T336 191L441 146Q448 142 448 135Q448 132 446 126Q426 73 395 40T314 -5Q307 -7 299 -13T290 -30Q290 -34 294 -35Q315 -45 327 -65T339 -110V-117Q339 -169 302 -203T199 -237H112Z"  />
<glyph unicode="&#xE8;" horiz-adv-x="490" d="M27 296Q27 339 44 373T91 433T161 471T247 485Q292 485 331 471T400 432T446 372T463 296V216Q463 206 454 206H208Q194 206 194 194V175Q194 154 208 142T249 129Q298 129 326 181Q329 187 335 187T346 184L450 115Q458 110 456 105T450 94Q430 59 400 35Q341 -13 247 -13Q198 -13 158 0T88 39T43 99T27 176V296ZM303 287Q311 287 314 290T317 299V313Q317 333 302 347T256 361Q227 361 211 348T194 311V297Q194 287 206 287H303ZM226 547Q214 547 204 556L42 707Q39 710 39 714Q39 723 49 723H213Q226 723 232 714L349 561Q351 559 351 554Q351 547 343 547H226Z"  />
<glyph unicode="&#xE9;" horiz-adv-x="490" d="M27 296Q27 339 44 373T91 433T161 471T247 485Q292 485 331 471T400 432T446 372T463 296V216Q463 206 454 206H208Q194 206 194 194V175Q194 154 208 142T249 129Q298 129 326 181Q329 187 335 187T346 184L450 115Q458 110 456 105T450 94Q430 59 400 35Q341 -13 247 -13Q198 -13 158 0T88 39T43 99T27 176V296ZM303 287Q311 287 314 290T317 299V313Q317 333 302 347T256 361Q227 361 211 348T194 311V297Q194 287 206 287H303ZM148 547Q139 547 139 554Q139 558 142 561L259 714Q265 723 278 723H442Q452 723 452 714Q452 710 449 707L287 556Q276 547 265 547H148Z"  />
<glyph unicode="&#xEA;" horiz-adv-x="490" d="M27 296Q27 339 44 373T91 433T161 471T247 485Q292 485 331 471T400 432T446 372T463 296V216Q463 206 454 206H208Q194 206 194 194V175Q194 154 208 142T249 129Q298 129 326 181Q329 187 335 187T346 184L450 115Q458 110 456 105T450 94Q430 59 400 35Q341 -13 247 -13Q198 -13 158 0T88 39T43 99T27 176V296ZM303 287Q311 287 314 290T317 299V313Q317 333 302 347T256 361Q227 361 211 348T194 311V297Q194 287 206 287H303ZM83 542Q73 542 73 550Q73 553 76 558L200 731Q205 739 216 739H275Q286 739 291 731L415 558Q417 555 417 550Q417 542 408 542H297Q286 542 282 551L255 598Q250 605 245 605Q239 605 236 598L209 551Q204 542 194 542H83Z"  />
<glyph unicode="&#xEB;" horiz-adv-x="490" d="M27 296Q27 339 44 373T91 433T161 471T247 485Q292 485 331 471T400 432T446 372T463 296V216Q463 206 454 206H208Q194 206 194 194V175Q194 154 208 142T249 129Q298 129 326 181Q329 187 335 187T346 184L450 115Q458 110 456 105T450 94Q430 59 400 35Q341 -13 247 -13Q198 -13 158 0T88 39T43 99T27 176V296ZM303 287Q311 287 314 290T317 299V313Q317 333 302 347T256 361Q227 361 211 348T194 311V297Q194 287 206 287H303ZM432 629Q432 595 408 574T349 552Q314 552 290 573T265 629Q265 663 290 685T349 708Q383 708 407 686T432 629ZM226 629Q226 613 220 599T202 575T175 558T142 552Q107 552 83 573T59 629Q59 663 84 685T142 708Q177 708 201 686T226 629Z"  />
<glyph unicode="&#xEC;" horiz-adv-x="251" d="M53 0Q43 0 43 10V463Q43 472 53 472H199Q201 472 204 470T208 463V10Q208 0 199 0H53ZM87 547Q75 547 65 556L-97 707Q-100 710 -100 714Q-100 723 -90 723H74Q87 723 93 714L210 561Q212 559 212 554Q212 547 204 547H87Z"  />
<glyph unicode="&#xED;" horiz-adv-x="251" d="M53 0Q43 0 43 10V463Q43 472 53 472H199Q201 472 204 470T208 463V10Q208 0 199 0H53ZM48 547Q39 547 39 554Q39 558 42 561L159 714Q165 723 178 723H342Q352 723 352 714Q352 710 349 707L187 556Q176 547 165 547H48Z"  />
<glyph unicode="&#xEE;" horiz-adv-x="251" d="M53 0Q43 0 43 10V463Q43 472 53 472H199Q201 472 204 470T208 463V10Q208 0 199 0H53ZM-37 542Q-47 542 -47 550Q-47 553 -44 558L80 731Q85 739 96 739H155Q166 739 171 731L295 558Q297 555 297 550Q297 542 288 542H177Q166 542 162 551L135 598Q130 605 125 605Q119 605 116 598L89 551Q84 542 74 542H-37Z"  />
<glyph unicode="&#xEF;" horiz-adv-x="251" d="M53 0Q43 0 43 10V463Q43 472 53 472H199Q201 472 204 470T208 463V10Q208 0 199 0H53ZM312 629Q312 595 288 574T229 552Q194 552 170 573T145 629Q145 663 170 685T229 708Q263 708 287 686T312 629ZM106 629Q106 613 100 599T82 575T55 558T22 552Q-13 552 -37 573T-61 629Q-61 663 -36 685T22 708Q57 708 81 686T106 629Z"  />
<glyph unicode="&#xF0;" horiz-adv-x="490" d="M27 296Q27 364 66 411T172 476L150 497L69 467Q65 465 60 464T53 462Q43 462 43 469V510Q43 515 44 519T49 526L101 545L27 616Q24 619 24 622Q24 631 35 631H220Q225 631 228 629T236 621L253 602L319 626Q322 628 328 630T336 632Q346 632 346 625V580Q346 570 338 567L298 552L429 407Q443 392 453 360T463 296V176Q463 133 447 98T403 39T335 1T247 -13Q198 -13 158 0T88 39T43 99T27 176V296ZM296 311Q296 329 283 341T247 353Q222 353 208 341T194 311V161Q194 143 208 131T247 119Q269 119 282 131T296 161V311Z"  />
<glyph unicode="&#xF1;" horiz-adv-x="510" d="M52 0Q42 0 42 10V463Q42 472 52 472H158Q163 472 166 469T169 463V439Q169 434 173 434Q175 434 179 436Q221 472 288 472Q377 472 425 427T473 295V10Q473 0 463 0H317Q308 0 308 10V295Q308 313 295 324T258 335Q233 335 220 324T207 295V10Q207 0 197 0H52ZM71 606Q64 611 64 615Q64 616 66 622Q86 666 117 693T193 720Q211 720 228 713T261 698T290 682T313 675Q324 675 331 682T344 699T353 715T363 723Q365 723 369 721L440 666Q444 663 444 658Q444 655 442 651Q410 592 377 570T313 547Q297 547 282 554T251 570T223 586T197 594Q188 594 181 588T168 574T158 560T149 553Q145 553 141 556L71 606Z"  />
<glyph unicode="&#xF2;" horiz-adv-x="490" d="M27 296Q27 338 43 373T88 433T157 471T247 485Q295 485 334 472T402 434T447 374T463 296V176Q463 133 447 98T403 39T335 1T247 -13Q198 -13 158 0T88 39T43 99T27 176V296ZM296 311Q296 329 283 341T247 353Q222 353 208 341T194 311V161Q194 143 208 131T247 119Q269 119 282 131T296 161V311ZM226 547Q214 547 204 556L42 707Q39 710 39 714Q39 723 49 723H213Q226 723 232 714L349 561Q351 559 351 554Q351 547 343 547H226Z"  />
<glyph unicode="&#xF3;" horiz-adv-x="490" d="M27 296Q27 338 43 373T88 433T157 471T247 485Q295 485 334 472T402 434T447 374T463 296V176Q463 133 447 98T403 39T335 1T247 -13Q198 -13 158 0T88 39T43 99T27 176V296ZM296 311Q296 329 283 341T247 353Q222 353 208 341T194 311V161Q194 143 208 131T247 119Q269 119 282 131T296 161V311ZM148 547Q139 547 139 554Q139 558 142 561L259 714Q265 723 278 723H442Q452 723 452 714Q452 710 449 707L287 556Q276 547 265 547H148Z"  />
<glyph unicode="&#xF4;" horiz-adv-x="490" d="M27 296Q27 338 43 373T88 433T157 471T247 485Q295 485 334 472T402 434T447 374T463 296V176Q463 133 447 98T403 39T335 1T247 -13Q198 -13 158 0T88 39T43 99T27 176V296ZM296 311Q296 329 283 341T247 353Q222 353 208 341T194 311V161Q194 143 208 131T247 119Q269 119 282 131T296 161V311ZM83 542Q73 542 73 550Q73 553 76 558L200 731Q205 739 216 739H275Q286 739 291 731L415 558Q417 555 417 550Q417 542 408 542H297Q286 542 282 551L255 598Q250 605 245 605Q239 605 236 598L209 551Q204 542 194 542H83Z"  />
<glyph unicode="&#xF5;" horiz-adv-x="490" d="M27 296Q27 338 43 373T88 433T157 471T247 485Q295 485 334 472T402 434T447 374T463 296V176Q463 133 447 98T403 39T335 1T247 -13Q198 -13 158 0T88 39T43 99T27 176V296ZM296 311Q296 329 283 341T247 353Q222 353 208 341T194 311V161Q194 143 208 131T247 119Q269 119 282 131T296 161V311ZM62 606Q55 611 55 615Q55 616 57 622Q77 666 108 693T184 720Q202 720 219 713T252 698T281 682T304 675Q315 675 322 682T335 699T344 715T354 723Q356 723 360 721L431 666Q435 663 435 658Q435 655 433 651Q401 592 368 570T304 547Q288 547 273 554T242 570T214 586T188 594Q179 594 172 588T159 574T149 560T140 553Q136 553 132 556L62 606Z"  />
<glyph unicode="&#xF6;" horiz-adv-x="490" d="M27 296Q27 338 43 373T88 433T157 471T247 485Q295 485 334 472T402 434T447 374T463 296V176Q463 133 447 98T403 39T335 1T247 -13Q198 -13 158 0T88 39T43 99T27 176V296ZM296 311Q296 329 283 341T247 353Q222 353 208 341T194 311V161Q194 143 208 131T247 119Q269 119 282 131T296 161V311ZM432 629Q432 595 408 574T349 552Q314 552 290 573T265 629Q265 663 290 685T349 708Q383 708 407 686T432 629ZM226 629Q226 613 220 599T202 575T175 558T142 552Q107 552 83 573T59 629Q59 663 84 685T142 708Q177 708 201 686T226 629Z"  />
<glyph unicode="&#xF7;" horiz-adv-x="546" d="M364 462Q364 445 357 430T337 404T308 387T274 380Q256 380 239 386T210 403T190 429T182 462Q182 480 189 495T209 521T238 538T273 545Q290 545 306 538T335 520T356 494T364 462ZM41 212Q32 212 32 221V322Q32 332 41 332H504Q514 332 514 322V221Q514 212 504 212H41ZM364 82Q364 65 357 50T337 24T308 7T274 0Q256 0 239 6T210 23T190 49T182 82Q182 100 189 115T209 141T238 158T273 165Q290 165 306 158T335 140T355 114T363 82H364Z"  />
<glyph unicode="&#xF8;" horiz-adv-x="490" d="M27 296Q27 338 43 373T88 433T157 471T247 485Q295 485 334 472T402 434T447 374T463 296V176Q463 133 447 98T403 39T335 1T247 -13Q198 -13 158 0T88 39T43 99T27 176V296ZM267 337Q270 341 270 344Q270 349 263 351T247 353Q222 353 208 341T194 311V235Q194 227 198 227Q199 227 203 231L267 337ZM296 241Q296 249 291 249Q288 249 285 244L222 139Q218 131 218 129Q218 123 228 121T247 119Q269 119 282 131T296 161V241Z"  />
<glyph unicode="&#xF9;" horiz-adv-x="510" d="M352 0Q347 0 344 3T340 9V33Q340 38 336 38Q335 38 331 36Q289 0 222 0Q133 0 85 45T37 177V462Q37 472 46 472H192Q202 472 202 462V177Q202 159 214 148T251 137Q276 137 289 148T303 177V462Q303 472 312 472H459Q468 472 468 462V9Q468 0 459 0H352ZM236 547Q224 547 214 556L52 707Q49 710 49 714Q49 723 59 723H223Q236 723 242 714L359 561Q361 559 361 554Q361 547 353 547H236Z"  />
<glyph unicode="&#xFA;" horiz-adv-x="510" d="M352 0Q347 0 344 3T340 9V33Q340 38 336 38Q335 38 331 36Q289 0 222 0Q133 0 85 45T37 177V462Q37 472 46 472H192Q202 472 202 462V177Q202 159 214 148T251 137Q276 137 289 148T303 177V462Q303 472 312 472H459Q468 472 468 462V9Q468 0 459 0H352ZM158 547Q149 547 149 554Q149 558 152 561L269 714Q275 723 288 723H452Q462 723 462 714Q462 710 459 707L297 556Q286 547 275 547H158Z"  />
<glyph unicode="&#xFB;" horiz-adv-x="510" d="M352 0Q347 0 344 3T340 9V33Q340 38 336 38Q335 38 331 36Q289 0 222 0Q133 0 85 45T37 177V462Q37 472 46 472H192Q202 472 202 462V177Q202 159 214 148T251 137Q276 137 289 148T303 177V462Q303 472 312 472H459Q468 472 468 462V9Q468 0 459 0H352ZM92 542Q82 542 82 550Q82 553 85 558L209 731Q214 739 225 739H284Q295 739 300 731L424 558Q426 555 426 550Q426 542 417 542H306Q295 542 291 551L264 598Q259 605 254 605Q248 605 245 598L218 551Q213 542 203 542H92Z"  />
<glyph unicode="&#xFC;" horiz-adv-x="510" d="M352 0Q347 0 344 3T340 9V33Q340 38 336 38Q335 38 331 36Q289 0 222 0Q133 0 85 45T37 177V462Q37 472 46 472H192Q202 472 202 462V177Q202 159 214 148T251 137Q276 137 289 148T303 177V462Q303 472 312 472H459Q468 472 468 462V9Q468 0 459 0H352ZM441 629Q441 595 417 574T358 552Q323 552 299 573T274 629Q274 663 299 685T358 708Q392 708 416 686T441 629ZM235 629Q235 613 229 599T211 575T184 558T151 552Q116 552 92 573T68 629Q68 663 93 685T151 708Q186 708 210 686T235 629Z"  />
<glyph unicode="&#xFD;" horiz-adv-x="510" d="M154 -34Q158 -31 164 -31Q171 -31 174 -37Q202 -89 251 -89Q303 -89 303 -44V8Q303 16 297 16Q296 16 292 14Q269 0 235 0Q144 0 91 50T37 187V462Q37 472 46 472H192Q202 472 202 462V177Q202 159 214 148T251 137Q276 137 289 148T303 177V462Q303 472 312 472H459Q468 472 468 462V-46Q468 -134 414 -184T251 -235Q200 -235 160 -220T90 -175Q84 -169 76 -161T62 -144T50 -126T45 -111Q45 -106 50 -103L154 -34ZM158 547Q149 547 149 554Q149 558 152 561L269 714Q275 723 288 723H452Q462 723 462 714Q462 710 459 707L297 556Q286 547 275 547H158Z"  />
<glyph unicode="&#xFE;" horiz-adv-x="502" d="M52 -159Q42 -159 42 -149V621Q42 631 52 631H174Q184 631 184 623V448Q184 443 187 442T195 444Q211 457 232 464T279 472Q378 472 426 427T475 284V187Q475 144 461 110T420 51T357 13T274 0Q240 0 217 14Q207 21 207 8V-149Q207 -155 203 -157T197 -159H52ZM308 304Q308 323 295 334T258 345Q235 345 221 334T207 304V167Q207 149 220 138T258 127Q282 127 295 138T308 167V304Z"  />
<glyph unicode="&#xFF;" horiz-adv-x="510" d="M154 -34Q158 -31 164 -31Q171 -31 174 -37Q202 -89 251 -89Q303 -89 303 -44V8Q303 16 297 16Q296 16 292 14Q269 0 235 0Q144 0 91 50T37 187V462Q37 472 46 472H192Q202 472 202 462V177Q202 159 214 148T251 137Q276 137 289 148T303 177V462Q303 472 312 472H459Q468 472 468 462V-46Q468 -134 414 -184T251 -235Q200 -235 160 -220T90 -175Q84 -169 76 -161T62 -144T50 -126T45 -111Q45 -106 50 -103L154 -34ZM441 629Q441 595 417 574T358 552Q323 552 299 573T274 629Q274 663 299 685T358 708Q392 708 416 686T441 629ZM235 629Q235 613 229 599T211 575T184 558T151 552Q116 552 92 573T68 629Q68 663 93 685T151 708Q186 708 210 686T235 629Z"  />
<glyph unicode="&#x131;" horiz-adv-x="251" d="M53 0Q43 0 43 10V463Q43 472 53 472H199Q201 472 204 470T208 463V10Q208 0 199 0H53Z"  />
<glyph unicode="&#x152;" horiz-adv-x="824" d="M251 -13Q202 -13 162 0T94 38T50 98T34 175V456Q34 498 50 533T94 592T163 630T251 644H321Q345 644 366 641T408 631H795Q798 631 801 629T805 621V493Q805 484 795 484H549Q537 484 537 473V404Q537 393 549 393H751Q761 393 761 384V255Q761 246 751 246H549Q537 246 537 235V158Q537 147 549 147H795Q805 147 805 138V10Q805 0 795 0H407Q387 -6 366 -9T321 -13H251ZM321 134Q344 134 357 145T370 175V456Q370 474 357 486T321 498H251Q229 498 214 485T198 456V175Q198 156 211 145T251 134H321Z"  />
<glyph unicode="&#x153;" horiz-adv-x="759" d="M27 296Q27 338 43 373T88 433T157 471T247 485Q317 485 368 458Q375 454 380 454T393 458Q445 485 516 485Q561 485 600 471T669 432T715 372T732 296V216Q732 206 723 206H477Q463 206 463 194V175Q463 154 477 142T518 129Q567 129 595 181Q598 187 604 187T615 184L719 115Q727 110 725 105T719 94Q698 56 665 32Q606 -13 516 -13Q445 -13 393 13Q384 18 378 18T364 13Q314 -13 247 -13Q198 -13 158 0T88 39T43 99T27 176V296ZM572 287Q580 287 583 290T586 299V313Q586 333 571 347T525 361Q496 361 480 348T463 311V297Q463 287 475 287H572ZM296 311Q296 329 283 341T247 353Q222 353 208 341T194 311V161Q194 143 208 131T247 119Q269 119 282 131T296 161V311Z"  />
<glyph unicode="&#x160;" horiz-adv-x="489" d="M223 -13Q171 -13 130 3T58 48Q52 54 45 62T30 79T19 96T14 110Q14 116 20 120L124 189Q128 192 134 192Q141 192 144 186Q172 134 221 134H252Q275 134 289 146T303 180Q303 197 294 207T270 225T233 239T186 254Q146 268 115 284T63 322T30 374T19 446Q19 540 77 592T239 644H254Q303 644 342 631T411 591Q418 585 427 576T444 557T457 538T463 521Q463 515 457 511L353 442Q347 438 343 438Q336 438 333 445Q305 497 256 497H239Q216 497 203 486T189 451Q189 436 199 426T226 408T261 394T300 382Q344 368 376 351T430 311T462 257T473 184Q473 91 417 39T254 -13H223ZM221 699Q210 699 205 707L81 880Q78 883 78 887Q78 896 88 896H199Q209 896 214 887L241 840Q244 833 250 833Q256 833 260 840L287 887Q291 896 302 896H413Q422 896 422 887Q422 882 420 880L296 707Q291 699 280 699H221Z"  />
<glyph unicode="&#x161;" horiz-adv-x="449" d="M215 -13Q119 -13 58 37Q52 42 44 49T29 65T17 81T12 96Q12 101 17 105L106 168Q110 171 116 171Q123 171 126 165Q140 139 163 126T213 113H242Q274 113 274 140Q274 152 267 158T249 167T228 171T209 174Q174 180 141 187T81 210T38 252T21 323Q21 401 72 443T208 485H229Q324 485 385 436Q391 431 399 424T414 408T427 391T432 376Q432 371 427 367L338 304Q332 300 328 300Q321 300 318 307Q304 333 281 346T231 359H208Q192 359 184 352T176 332Q176 322 182 316T198 307T218 301T237 298Q271 292 305 285T367 263T412 222T430 152Q430 73 380 30T238 -13H215ZM195 542Q184 542 179 550L55 723Q52 726 52 730Q52 739 62 739H173Q183 739 188 730L215 683Q218 676 224 676Q230 676 234 683L261 730Q265 739 276 739H387Q396 739 396 730Q396 725 394 723L270 550Q265 542 254 542H195Z"  />
<glyph unicode="&#x178;" horiz-adv-x="490" d="M172 0Q163 0 163 10V283L-36 616Q-38 618 -38 622Q-38 631 -28 631H139Q149 631 155 621L235 475Q238 468 244 468Q250 468 254 475L337 621Q343 631 353 631H518Q528 631 528 623Q528 620 526 616L328 283V10Q328 0 318 0H172ZM449 784Q449 750 425 729T366 707Q331 707 307 728T282 784Q282 818 307 840T366 863Q400 863 424 841T449 784ZM243 784Q243 768 237 754T219 730T192 713T159 707Q124 707 100 728T76 784Q76 818 101 840T159 863Q194 863 218 841T243 784Z"  />
<glyph unicode="&#x17D;" horiz-adv-x="485" d="M8 0Q-2 0 -2 8Q-2 10 0 14L232 469Q234 473 234 475Q234 484 221 484H46Q36 484 36 493V621Q36 631 46 631H475Q486 631 486 622Q486 619 485 617L253 162Q251 158 251 156Q251 147 264 147H458Q468 147 468 138V10Q468 0 458 0H8ZM220 699Q209 699 204 707L80 880Q77 883 77 887Q77 896 87 896H198Q208 896 213 887L240 840Q243 833 249 833Q255 833 259 840L286 887Q290 896 301 896H412Q421 896 421 887Q421 882 419 880L295 707Q290 699 279 699H220Z"  />
<glyph unicode="&#x17E;" horiz-adv-x="453" d="M11 0Q0 0 0 7Q0 10 3 15L183 322Q185 326 185 329Q185 335 176 335H21Q12 335 12 345V463Q12 472 21 472H428Q437 472 437 464Q437 460 436 458L255 150Q252 145 252 143Q252 137 262 137H435Q444 137 444 128V10Q444 0 435 0H11ZM197 542Q186 542 181 550L57 723Q54 726 54 730Q54 739 64 739H175Q185 739 190 730L217 683Q220 676 226 676Q232 676 236 683L263 730Q267 739 278 739H389Q398 739 398 730Q398 725 396 723L272 550Q267 542 256 542H197Z"  />
<glyph unicode="&#x192;" horiz-adv-x="546" d="M63 -89Q64 -83 73 -83Q82 -83 96 -85T126 -87Q151 -87 163 -76T175 -47V235Q175 245 161 245H139Q130 245 130 255V383Q130 393 139 393H162Q175 393 175 403V443Q175 540 232 590T395 640Q410 640 426 639T455 636T477 631T486 624Q486 622 484 614T480 600L452 494Q450 488 442 488Q433 488 419 490T389 492Q364 492 352 481T340 452V403Q340 393 352 393H417Q427 393 427 383V255Q427 245 417 245H352Q340 245 340 235V-38Q340 -135 283 -185T120 -235Q105 -235 89 -234T60 -231T38 -226T29 -218Q29 -216 31 -209T34 -197L63 -89Z"  />
<glyph unicode="&#x2C6;" horiz-adv-x="500" d="M87 542Q77 542 77 550Q77 553 80 558L204 731Q209 739 220 739H279Q290 739 295 731L419 558Q421 555 421 550Q421 542 412 542H301Q290 542 286 551L259 598Q254 605 249 605Q243 605 240 598L213 551Q208 542 198 542H87Z"  />
<glyph unicode="&#x2DC;" horiz-adv-x="500" d="M66 606Q59 611 59 615Q59 616 61 622Q81 666 112 693T188 720Q206 720 223 713T256 698T285 682T308 675Q319 675 326 682T339 699T348 715T358 723Q360 723 364 721L435 666Q439 663 439 658Q439 655 437 651Q405 592 372 570T308 547Q292 547 277 554T246 570T218 586T192 594Q183 594 176 588T163 574T153 560T144 553Q140 553 136 556L66 606Z"  />
<glyph unicode="&#x2013;" horiz-adv-x="592" d="M39 188Q30 188 30 198V300Q30 309 39 309H553Q562 309 562 300V198Q562 188 553 188H39Z"  />
<glyph unicode="&#x2014;" horiz-adv-x="857" d="M39 188Q30 188 30 198V300Q30 309 39 309H817Q827 309 827 300V198Q827 188 817 188H39Z"  />
<glyph unicode="&#x2018;" horiz-adv-x="219" d="M37 396Q27 396 27 405V490Q27 527 34 554T57 603T95 641T149 671Q155 673 157 673Q163 673 166 667L202 600Q204 594 204 593Q204 586 198 585Q179 580 171 571T162 550Q162 541 172 541H181Q190 541 190 532V405Q190 396 181 396H37Z"  />
<glyph unicode="&#x2019;" horiz-adv-x="219" d="M17 422Q15 425 15 429Q15 435 21 437Q40 442 48 451T57 472Q57 481 47 481H38Q29 481 29 490V617Q29 626 38 626H182Q192 626 192 617V532Q192 496 185 469T162 420T124 382T70 351Q67 349 62 349Q56 349 53 355L17 422Z"  />
<glyph unicode="&#x201A;" horiz-adv-x="219" d="M17 -33Q15 -30 15 -26Q15 -20 21 -18Q40 -13 48 -4T57 17Q57 26 47 26H38Q29 26 29 35V162Q29 171 38 171H182Q192 171 192 162V77Q192 5 163 -35T70 -104Q67 -106 62 -106Q56 -106 53 -100L17 -33Z"  />
<glyph unicode="&#x201C;" horiz-adv-x="418" d="M237 396Q227 396 227 405V490Q227 527 233 554T255 602T293 639T349 671Q355 673 357 673Q363 673 366 667L402 600Q404 594 404 593Q404 586 398 585Q379 580 371 571T362 550Q362 541 372 541H381Q390 541 390 532V405Q390 396 381 396H237ZM37 396Q27 396 27 405V490Q27 563 57 603T149 671Q155 673 157 673Q163 673 166 667L202 600Q204 594 204 593Q204 586 198 585Q179 580 171 571T162 550Q162 541 172 541H181Q190 541 190 532V405Q190 396 181 396H37Z"  />
<glyph unicode="&#x201D;" horiz-adv-x="418" d="M216 422Q214 425 214 429Q214 435 220 437Q239 442 247 451T256 472Q256 481 246 481H237Q228 481 228 490V617Q228 626 237 626H381Q391 626 391 617V532Q391 495 384 468T361 419T323 382T269 351Q266 349 261 349Q255 349 252 355L216 422ZM17 422Q15 425 15 429Q15 435 21 437Q40 442 48 451T57 472Q57 481 47 481H38Q29 481 29 490V617Q29 626 38 626H182Q192 626 192 617V532Q192 496 185 469T163 420T125 383T70 351Q67 349 62 349Q56 349 53 355L17 422Z"  />
<glyph unicode="&#x201E;" horiz-adv-x="418" d="M216 -33Q214 -30 214 -26Q214 -20 220 -18Q239 -13 247 -4T256 17Q256 26 246 26H237Q228 26 228 35V162Q228 171 237 171H381Q391 171 391 162V77Q391 41 384 14T361 -35T323 -73T269 -104Q266 -106 261 -106Q255 -106 252 -100L216 -33ZM17 -33Q15 -30 15 -26Q15 -20 21 -18Q40 -13 48 -4T57 17Q57 26 47 26H38Q29 26 29 35V162Q29 171 38 171H182Q192 171 192 162V77Q192 5 163 -35T70 -104Q67 -106 62 -106Q56 -106 53 -100L17 -33Z"  />
<glyph unicode="&#x2020;" horiz-adv-x="444" d="M187 -225Q177 -225 177 -215L157 313L162 344Q163 349 160 352T151 354L8 341Q0 340 0 350V469Q0 479 8 479L155 468Q160 467 164 469T167 477L154 621Q153 626 156 628T164 631H281Q284 631 287 629T290 622L278 477Q278 466 290 468L435 479Q444 479 444 469V350Q444 340 436 341L294 354Q289 355 285 352T282 343L287 313L267 -215Q267 -225 257 -225H187Z"  />
<glyph unicode="&#x2021;" horiz-adv-x="444" d="M187 -225Q177 -225 177 -215L164 149Q164 160 152 158L8 147Q0 147 0 157V276Q0 286 8 285L151 272Q156 271 159 274T162 282L157 313L162 344Q163 349 160 352T151 354L8 341Q0 340 0 350V469Q0 479 8 479L155 468Q160 467 164 469T167 477L154 621Q153 626 156 628T164 631H281Q284 631 287 629T290 622L278 477Q278 466 290 468L435 479Q444 479 444 469V350Q444 340 436 341L294 354Q289 355 285 352T282 343L287 313L282 283Q281 277 285 274T294 272L436 285Q444 286 444 276V157Q444 147 435 147L293 158Q281 160 281 149L267 -215Q267 -225 257 -225H187Z"  />
<glyph unicode="&#x2022;" horiz-adv-x="500" d="M249 143Q207 143 173 155T114 188T75 239T61 305V324Q61 360 74 389T113 440T172 473T248 485H252Q294 485 328 473T387 440T425 390T439 324V305Q439 269 426 239T388 188T329 155T253 143H249Z"  />
<glyph unicode="&#x2026;" horiz-adv-x="1000" d="M886 78Q886 61 879 46T858 20T829 1T796 -6Q778 -6 762 1T733 19T713 46T705 78Q705 113 732 137T796 161Q813 161 829 154T858 136T878 109T886 78ZM591 78Q591 61 584 46T563 20T534 1T501 -6Q483 -6 467 1T438 19T418 46T410 78Q410 113 437 137T501 161Q518 161 534 154T563 136T583 109T591 78ZM296 78Q296 61 289 46T268 20T239 1T206 -6Q188 -6 172 1T143 19T123 46T115 78Q115 113 142 137T206 161Q223 161 239 154T268 136T288 109T296 78Z"  />
<glyph unicode="&#x2030;" horiz-adv-x="936" d="M667 191Q667 239 700 269T785 300Q841 300 874 272T907 196V104Q907 56 874 28T785 0Q731 0 699 28T667 104V191ZM380 191Q380 239 413 269T498 300Q554 300 587 272T620 196V104Q620 56 587 28T498 0Q444 0 412 28T380 104V191ZM133 0Q128 0 126 3T126 11L419 625Q422 631 429 631H516Q528 631 523 621L229 8Q225 0 215 0H133ZM29 522Q29 570 62 600T147 631Q203 631 236 603T269 527V435Q269 387 236 359T147 331Q93 331 61 359T29 435V522ZM813 196Q813 205 806 211T787 217Q776 217 769 211T761 196V104Q761 95 768 89T787 83Q798 83 805 89T813 104V196ZM526 196Q526 205 519 211T500 217Q489 217 482 211T474 196V104Q474 95 481 89T500 83Q511 83 518 89T526 104V196ZM175 527Q175 536 168 542T149 548Q138 548 131 542T123 527V435Q123 426 130 420T149 414Q160 414 167 420T175 435V527Z"  />
<glyph unicode="&#x2039;" horiz-adv-x="383" d="M48 231Q39 236 39 248V320Q39 332 48 337L310 505Q314 507 316 507Q324 507 324 497V371Q324 361 315 355L210 292Q204 287 204 284Q204 279 210 276L315 213Q324 207 324 197V71Q324 61 316 61Q314 61 311 62T305 66L48 231Z"  />
<glyph unicode="&#x203A;" horiz-adv-x="383" d="M59 197Q59 207 68 213L173 276Q179 280 179 284Q179 287 173 292L68 355Q59 361 59 371V497Q59 507 67 507Q69 507 73 505L335 337Q344 332 344 320V248Q344 236 335 231L73 63Q71 61 67 61Q59 61 59 71V197Z"  />
<glyph unicode="&#x20AC;" horiz-adv-x="546" d="M283 -13Q232 -13 192 0T124 38T81 98T66 175Q66 186 55 186H8Q-1 186 -1 195V288Q-1 297 8 297H55Q66 297 66 307V325Q66 335 55 335H8Q-1 335 -1 344V435Q-1 445 8 445H56Q66 445 66 456Q66 498 81 533T124 592T192 630T283 644H312Q367 644 406 628T477 576Q482 570 490 560T505 538T518 516T524 499Q524 493 519 491L401 437Q399 436 395 434T389 432Q385 432 382 435T376 442Q361 469 344 483T303 498H283Q257 498 244 487T230 456Q230 445 242 445H340Q348 445 348 435V344Q348 335 340 335H242Q230 335 230 326V307Q230 297 242 297H340Q348 297 348 288V195Q348 186 340 186H240Q230 186 230 175Q230 156 243 145T283 133H303Q326 133 343 147T376 189Q381 198 389 198Q394 198 398 196L519 140Q524 137 524 132Q524 129 523 126T521 121Q483 49 435 18T312 -13H283Z"  />
<glyph unicode="&#x2122;" horiz-adv-x="449" d="M221 360Q212 360 212 370V538Q212 548 221 548H233Q239 548 242 543L295 462Q300 454 307 454T319 462L371 543Q373 548 381 548H392Q402 548 402 538V370Q402 360 392 360H380Q370 360 370 370V442Q370 453 361 454T345 447L318 406Q308 391 297 406L267 447Q260 457 252 455T243 442V370Q243 360 234 360H221ZM90 360Q80 360 80 370V507Q80 518 68 518H37Q28 518 28 527V538Q28 548 37 548H156Q166 548 166 538V527Q166 518 156 518H126Q113 518 113 507V370Q113 360 104 360H90Z"  />

</font>
</defs>
</svg>
