<?xml  version="1.0" encoding="UTF-8"?>
<!DOCTYPE svg PUBLIC "-//W3C//DTD SVG 1.0//EN" "http://www.w3.org/TR/2001/REC-SVG-20010904/DTD/svg10.dtd" >
<svg xmlns="http://www.w3.org/2000/svg" >
<metadata>
<version>1.0</version>
<id><![CDATA[Conduit ITC W01 Italic]]></id>
<vendor>Monotype Imaging Inc.</vendor>
<credits>
<name>Fonts.com WebFonts</name>
<URL>http://webfonts.fonts.com</URL>
<role>Home of the Web fonts</role>
</credits>
<license>
<URL>http://webfonts.fonts.com/Legal</URL>
</license>
<copyright><![CDATA[Copyright 1997, 2007 International Typeface Corporation. All rights reserved.]]></copyright>
<trademark><![CDATA["ITC is a trademark of International Typeface Corporation Registered in the U.S. Patent and Trademark Office and may be registered in certain jurisdictions;Conduit is a trademark of International Typeface Corporation and may be registered in certain jurisdictions."]]></trademark>
<licensee>
<name></name>
</licensee>
</metadata>
<defs >
<font horiz-adv-x="445" id="a084d860-2279-4910-b924-82b72dcc36e0">
<font-face font-family="" panose-1="2 0 6 6 9 0 0 9 0 4" ascent="828" descent="-250" units-per-em="1000" alphabetic="0">
</font-face>
<missing-glyph horiz-adv-x="0" />

<glyph unicode="&#xA;" />
<glyph unicode="&#xD;" horiz-adv-x="0" />
<glyph unicode=" " horiz-adv-x="176" />
<glyph unicode="!" horiz-adv-x="275" d="M114 184Q106 184 106 193L114 364L159 620Q162 630 171 630H230Q238 630 238 620L193 364L142 193Q139 184 130 184H114ZM149 40Q145 18 127 3T87 -12Q67 -12 55 0T43 31Q43 43 48 54T62 73T82 87T105 92Q125 92 137 80T150 49Q150 47 150 45T149 40Z"  />
<glyph unicode="&quot;" horiz-adv-x="276" d="M227 457Q218 457 218 466L225 621Q225 632 236 632H297Q303 632 304 629T306 621L259 466Q256 457 248 457H227ZM94 457Q85 457 85 466L92 621Q92 632 103 632H165Q171 632 172 629T174 621L126 466Q123 457 115 457H94Z"  />
<glyph unicode="#" horiz-adv-x="557" d="M61 0Q50 0 50 9Q50 10 51 15T57 38T71 87T96 172Q96 177 95 180T86 184H29Q21 184 21 189Q21 191 24 203T35 242Q38 252 48 252H111Q119 252 121 260L151 366Q151 371 150 374T141 378H76Q68 378 68 383Q68 385 71 395T82 436Q85 446 95 446H167Q175 446 177 454L225 623Q226 630 235 630H268Q275 630 276 627T278 617L238 476Q234 463 234 460T233 455Q233 446 244 446H361Q369 446 371 454L420 623Q421 630 430 630H463Q470 630 471 627T473 617Q456 558 447 526T434 479T428 460T427 455Q427 446 438 446H495Q503 446 503 440Q503 438 500 428T489 388Q486 378 476 378H413Q404 378 403 372Q392 332 386 310T376 278T373 265T372 261Q372 252 383 252H449Q457 252 457 246Q457 245 457 243T455 236T450 220T443 194Q440 184 430 184H357Q348 184 347 178L299 7Q298 0 289 0H256Q245 0 245 9Q245 10 246 15T251 36T265 84T290 172Q290 177 289 180T280 184H163Q154 184 153 178L104 7Q103 0 94 0H61ZM306 252Q314 252 316 260L345 366Q345 371 344 374T335 378H218Q209 378 208 372Q193 315 185 290T177 261Q177 252 188 252H306Z"  />
<glyph unicode="$" horiz-adv-x="504" d="M169 -61Q163 -61 162 -59T161 -51Q165 -31 166 -25T167 -16Q167 -10 160 -10Q122 -10 96 -1T52 24Q41 34 29 51T16 83Q16 90 24 93L81 120Q83 121 85 121Q89 121 93 115Q104 87 125 73T171 59Q181 59 182 69L219 280Q219 286 215 289Q191 300 169 313T130 343T103 384T92 438Q92 477 105 511T143 572T200 616T274 639Q283 641 284 649L290 681Q291 691 302 691H328Q336 691 336 681Q334 670 333 660T331 647Q331 641 337 640Q382 635 409 618T450 575Q453 570 457 562T462 548Q462 542 454 538Q420 522 407 516T391 510Q387 510 385 515Q377 534 360 551T324 568Q321 568 318 566T314 558Q313 550 308 521T297 460T286 399T280 365Q280 358 285 356Q309 344 332 331T373 299T402 255T414 196Q414 155 400 120T361 57T300 13T222 -9Q214 -10 213 -19L207 -51Q206 -61 195 -61H169ZM268 555Q268 558 268 562T263 566Q258 566 256 565Q238 559 223 549T196 524T178 493T171 459Q171 437 185 421T223 388Q225 386 230 386Q237 386 240 397L268 555ZM331 157Q332 162 332 166T332 174Q332 201 317 220T276 256Q272 258 269 258Q262 258 260 247Q250 189 244 155T235 101T230 76T229 68Q229 61 234 61Q243 61 251 65T269 74Q293 88 310 111T331 157Z"  />
<glyph unicode="%" horiz-adv-x="484" d="M85 545Q92 583 120 606T190 630Q226 630 246 612T267 562Q267 557 267 554T265 545L247 445Q240 407 212 384T142 360Q106 360 86 378T65 428Q65 433 65 436T67 445L85 545ZM49 0Q40 0 40 7Q40 11 42 14L411 624Q415 630 421 630H445Q454 630 454 623Q454 619 452 616L83 6Q80 0 73 0H49ZM247 185Q254 223 282 246T352 270Q388 270 408 252T429 202Q429 197 429 194T427 185L409 85Q402 47 374 24T304 0Q268 0 248 18T227 68Q227 73 227 76T229 85L247 185ZM195 445Q202 480 205 500T211 531T213 545T214 551Q214 563 205 573T182 583Q166 583 154 572T138 545Q132 509 128 489T122 457T120 443T119 438Q119 425 128 417T151 408Q166 408 179 419T195 445ZM374 179Q375 185 375 187T376 191Q376 204 367 213T343 223Q328 223 316 212T300 185L282 85Q282 83 282 82T281 78Q281 65 289 57T312 48Q328 48 341 59T357 85L374 179Z"  />
<glyph unicode="&amp;" horiz-adv-x="619" d="M179 -10Q108 -10 69 25T29 124Q29 145 33 165L38 191Q41 206 49 223T70 256T97 287T130 310Q138 313 138 320Q138 324 135 327Q110 351 96 376T82 433Q82 479 99 517T145 582T212 625T294 640Q364 640 404 604T444 504Q444 482 440 463L436 443Q433 428 424 411T401 376T366 343T320 318Q310 314 310 307Q310 304 320 296T343 274Q352 264 360 253T377 231Q380 226 384 226Q389 226 394 235Q422 295 470 324T582 354H594Q603 354 603 344L592 286Q591 276 581 276H561Q540 276 523 268T491 246T465 215T444 178L436 161Q434 157 434 155Q434 151 437 148Q459 119 489 99T548 71Q553 70 553 61L542 1Q540 -9 531 -9Q485 -9 450 15T389 66Q386 69 382 69Q379 69 374 64Q347 32 308 11T210 -10H179ZM363 473Q364 478 364 488Q364 523 341 547T282 571Q259 571 238 562T201 538T174 501T164 457Q164 425 184 401T231 356Q233 354 235 353T241 351Q259 352 278 360T315 381T344 413T360 453L363 473ZM222 59Q248 59 277 75T328 120Q330 122 332 125T334 133Q334 136 331 140T325 149Q308 175 293 196T260 233Q248 244 235 252T206 272Q204 274 200 276T193 279Q190 279 188 278T181 274Q155 261 138 239T116 188L111 157Q110 152 110 149T109 140Q109 105 132 82T191 59H222Z"  />
<glyph unicode="&apos;" horiz-adv-x="151" d="M94 457Q85 457 85 466L92 621Q92 632 103 632H165Q175 632 175 624Q175 621 170 609L126 466Q123 457 115 457H94Z"  />
<glyph unicode="(" horiz-adv-x="350" d="M207 -172Q203 -182 194 -182Q128 -175 95 -139T62 -46Q62 -25 66 -6L165 555Q180 640 241 687Q262 704 293 717T357 731Q364 731 364 721L355 671Q353 662 346 661Q305 653 279 627T246 565L143 -16Q142 -21 142 -25T141 -33Q141 -62 158 -84T209 -113Q215 -114 215 -123L207 -172Z"  />
<glyph unicode=")" horiz-adv-x="350" d="M193 565Q194 569 194 573T194 581Q194 610 176 632T126 661Q119 662 119 671L128 721Q129 731 141 731Q204 723 238 689T273 594Q273 578 269 555L170 -6Q155 -93 90 -141Q69 -156 39 -169T-22 -182Q-29 -182 -29 -175Q-29 -172 -27 -156T-21 -123Q-19 -115 -11 -113Q29 -105 56 -78T90 -16L193 565Z"  />
<glyph unicode="*" horiz-adv-x="378" d="M174 352Q165 352 165 359Q165 360 166 363T170 377T179 405T194 455Q196 463 197 466T199 475Q199 482 192 482Q187 482 183 479L87 418Q82 415 79 415Q75 415 72 421Q63 442 60 452T56 464Q56 471 65 474L169 515Q178 518 178 525Q178 530 172 533L83 577Q77 580 77 584Q77 586 80 591L109 629Q113 635 118 635Q121 635 124 632L197 569Q200 566 204 566Q213 566 215 578L223 684Q225 695 235 695H280Q286 695 287 692T288 684Q277 646 271 625T261 592T257 577T256 573Q256 566 262 566Q266 566 271 569L370 632Q374 635 378 635Q382 635 385 629Q396 603 398 596T401 586Q401 580 393 577L285 533Q276 530 276 523Q276 518 282 515L374 473Q380 470 380 466Q380 462 377 459L348 421Q343 415 339 415Q336 415 333 418L254 479Q251 482 247 482Q239 482 237 470L231 363Q231 352 219 352H174Z"  />
<glyph unicode="+" horiz-adv-x="504" d="M185 28Q176 28 176 34Q176 35 177 40T181 62T190 112T206 202Q206 212 197 212H33Q27 212 26 214T25 222L31 255Q32 265 43 265H207Q217 265 218 275L247 439Q250 449 259 449H292Q300 449 300 439L271 275Q271 270 272 268T280 265H444Q452 265 452 255L446 222Q445 212 434 212H270Q260 212 259 202L230 38Q227 28 218 28H185Z"  />
<glyph unicode="&#x2c;" horiz-adv-x="203" d="M9 14Q3 14 2 16T1 24L13 90Q14 100 25 100H109Q117 100 117 90L106 31Q94 -32 67 -68T2 -125Q-1 -127 -5 -130T-14 -133Q-19 -133 -21 -126Q-26 -114 -28 -108T-30 -99Q-30 -94 -25 -91Q-6 -77 8 -57T31 4Q31 14 22 14H9Z"  />
<glyph unicode="-" horiz-adv-x="255" d="M31 184Q25 184 24 186T23 194L34 253Q35 263 45 263H196Q205 263 205 253L194 194Q193 184 182 184H31Z"  />
<glyph unicode="." horiz-adv-x="203" d="M108 40Q104 18 86 3T46 -12Q26 -12 15 0T3 30Q3 54 22 73T64 92Q84 92 96 80T109 49Q109 47 109 45T108 40Z"  />
<glyph unicode="/" horiz-adv-x="299" d="M-49 0Q-59 0 -59 6Q-59 9 -56 14L313 624Q317 630 323 630H357Q366 630 366 623Q366 619 364 616L-5 6Q-8 0 -15 0H-49Z"  />
<glyph unicode="0" horiz-adv-x="504" d="M179 -10Q107 -10 68 26T29 123Q29 139 32 157L87 473Q93 510 111 541T156 594T218 628T294 640H325Q397 640 436 604T475 507Q475 491 472 473L417 157Q411 120 393 89T348 36T286 2T210 -10H179ZM222 59Q242 59 261 66T296 87T323 119T338 157L393 473Q394 478 394 482T395 491Q395 526 372 548T313 571H282Q261 571 242 564T207 543T180 512T166 473L111 157Q110 152 110 149T109 140Q109 105 132 82T191 59H222Z"  />
<glyph unicode="1" horiz-adv-x="504" d="M57 0Q51 0 50 2T49 10L57 59Q60 69 69 69H172Q183 69 184 79L253 471Q253 482 247 482Q241 482 237 478L170 420Q166 416 162 416Q159 416 156 420L127 456Q125 460 125 462Q125 466 130 470L315 627Q318 630 322 630H349Q357 630 357 620L262 79Q262 74 263 72T270 69H373Q381 69 381 59L373 10Q372 0 361 0H57Z"  />
<glyph unicode="2" horiz-adv-x="504" d="M32 0Q26 0 25 2T24 10L42 112Q52 171 82 211T150 280T231 331T308 375T366 423T389 488Q389 523 366 547T308 571H269Q243 571 217 557T171 516Q166 510 162 510Q159 510 149 515T109 538Q104 541 104 544Q104 547 107 552Q131 587 173 613T281 640H320Q392 640 431 604T470 508Q470 491 467 473Q458 420 431 384T368 322T292 275T217 232T155 182T121 112L115 79Q115 74 116 72T123 69H378Q386 69 386 59L378 10Q377 0 366 0H32Z"  />
<glyph unicode="3" horiz-adv-x="504" d="M164 -10Q122 -10 95 1T50 30Q41 40 31 55T20 83Q20 90 28 93Q62 109 74 115T90 121Q94 121 97 115Q108 87 129 73T176 59H206Q226 59 245 67T281 88T308 119T323 157L329 193Q330 198 330 209Q330 243 307 267T247 291H172Q166 291 165 293T164 301L173 349Q174 359 184 359H259Q280 359 299 366T335 387T362 419T376 458L378 473Q378 477 378 480T379 487Q379 523 356 547T297 571H267Q241 571 215 558T168 516Q163 510 158 510Q156 510 154 511T146 515T132 523T106 538Q101 541 101 544Q101 547 104 552Q130 589 171 614T279 640H309Q379 640 419 604T460 504Q460 482 456 463L453 448Q449 428 439 410T415 376T385 348T353 330Q349 329 349 324Q349 322 352 320T357 316Q377 302 394 275T411 216Q411 211 411 206T409 196L403 165Q387 84 331 37T194 -10H164Z"  />
<glyph unicode="4" horiz-adv-x="504" d="M266 0Q260 0 259 2T258 10L280 138Q280 148 272 148H18Q12 148 11 150T10 158L21 222L359 626Q363 630 368 630H436Q444 630 444 620L375 227Q375 222 376 220T383 217H455Q464 217 464 207L455 158Q454 148 443 148H371Q362 148 359 138L337 10Q336 0 325 0H266ZM284 217Q295 217 296 227L343 492Q345 506 349 519T355 537L352 538Q350 535 343 523T326 498L106 233Q102 228 102 223Q102 217 111 217H284Z"  />
<glyph unicode="5" horiz-adv-x="504" d="M174 -10Q131 -10 104 1T60 30Q51 39 41 54T31 83Q31 90 38 93Q57 102 69 107T87 116T96 120T100 121Q105 121 108 115Q119 87 140 73T186 59H217Q237 59 256 67T292 88T319 119T333 157L339 193Q340 197 340 201T340 209Q340 244 317 267T258 291H101Q95 291 94 293T93 301L149 620Q152 630 161 630H475Q483 630 483 620L475 571Q472 561 463 561H228Q217 561 216 551L184 369Q184 364 185 362T192 359H270Q340 359 380 324T421 225Q421 216 420 206T417 185L413 165Q397 85 342 38T205 -10H174Z"  />
<glyph unicode="6" horiz-adv-x="504" d="M186 -10Q114 -10 76 26T37 123Q37 139 40 157L95 473Q101 510 119 541T164 594T225 628T301 640H331Q391 640 423 618T470 564Q472 558 474 554T476 548Q476 542 468 538L411 512Q407 510 405 510Q400 510 399 516Q389 543 369 557T319 571H289Q268 571 249 564T214 543T187 512T173 473L148 329Q148 318 155 318Q160 318 164 322Q188 345 213 355T263 365H293Q324 365 350 355T394 327T423 284T434 229Q434 214 431 198L424 157Q418 120 400 90T354 37T292 3T216 -10H186ZM228 59Q248 59 267 66T303 87T330 119T345 157L352 198Q353 202 353 206T353 214Q353 249 330 272T270 296H240Q220 296 201 289T166 268T139 236T125 198L118 157Q117 152 117 149T116 140Q116 105 139 82T198 59H228Z"  />
<glyph unicode="7" horiz-adv-x="504" d="M58 0Q52 0 51 2T50 10L76 157Q85 209 110 244T168 306T237 353T306 396T362 447T394 518L400 551Q400 561 392 561H137Q128 561 128 567Q128 569 130 581T137 620Q140 630 149 630H483Q491 630 491 620L473 518Q464 470 444 436T397 377T340 332T281 296Q233 267 198 235T155 157L129 10Q128 0 117 0H58Z"  />
<glyph unicode="8" horiz-adv-x="504" d="M179 -10Q108 -10 69 25T29 124Q29 145 33 165L38 191Q46 230 76 263T140 314Q144 315 144 320Q144 324 136 327Q116 340 98 365T80 424Q80 429 80 433T82 443L86 463Q94 503 112 535T157 591T218 627T294 640H325Q395 640 435 604T475 504Q475 482 471 463L467 443Q463 423 453 405T428 372T398 344T367 325Q363 323 363 319Q363 316 366 315Q376 309 386 299T405 275T419 245T425 211Q425 206 425 201T423 191L418 165Q402 84 347 37T210 -10H179ZM274 354Q295 354 314 361T349 382T376 414T390 453L393 473Q394 478 394 488Q394 524 372 547T313 571H282Q261 571 242 564T207 543T180 512T166 473L163 453Q162 448 162 445T162 437Q162 402 184 378T243 354H274ZM222 59Q242 59 261 66T297 87T324 119T338 157L343 188Q344 192 344 196T344 204Q344 239 321 262T262 286H231Q211 286 192 279T157 258T130 226T116 188L111 157Q110 152 110 149T109 140Q109 105 132 82T191 59H222Z"  />
<glyph unicode="9" horiz-adv-x="504" d="M162 -10Q124 -10 99 -1T56 22Q44 33 32 51T19 84Q19 90 26 93Q46 102 58 107T76 116T85 120T89 121Q93 121 96 115Q116 59 174 59H204Q224 59 243 67T279 88T306 119T321 157L340 267Q340 272 339 275T332 279Q328 279 323 274Q300 251 276 241T225 230H195Q132 230 94 267T55 365Q55 380 58 397L71 473Q77 510 95 540T140 593T201 627T277 640H307Q379 640 418 604T458 506Q458 489 455 473L400 157Q394 120 376 89T330 36T268 2T192 -10H162ZM247 298Q267 298 286 306T321 327T348 359T363 397L376 473Q377 477 377 481T377 489Q377 524 354 547T295 571H265Q245 571 226 564T190 543T163 511T149 473L136 397Q135 392 135 389T134 381Q134 346 157 322T217 298H247Z"  />
<glyph unicode=":" horiz-adv-x="203" d="M157 315Q153 293 135 278T94 263Q75 263 64 275T52 305Q52 329 70 348T113 367Q133 367 145 356T158 325Q158 318 157 315ZM108 40Q104 18 86 3T46 -12Q26 -12 15 0T3 30Q3 54 22 73T64 92Q84 92 96 80T109 49Q109 47 109 45T108 40Z"  />
<glyph unicode=";" horiz-adv-x="203" d="M157 315Q153 293 135 278T94 263Q75 263 64 275T52 305Q52 329 70 348T113 367Q133 367 145 356T158 325Q158 318 157 315ZM9 14Q3 14 2 16T1 24L13 90Q14 100 25 100H109Q117 100 117 90L106 31Q94 -32 67 -68T3 -125Q0 -127 -5 -130T-14 -133Q-19 -133 -21 -126Q-26 -112 -28 -107T-30 -99Q-30 -94 -25 -91Q-6 -77 8 -57T31 4Q31 14 22 14H9Z"  />
<glyph unicode="&lt;" horiz-adv-x="504" d="M49 204Q45 206 45 210Q45 213 48 229T55 267Q57 274 62 276L405 457Q409 459 411 459Q415 459 418 453Q431 424 431 421Q431 416 423 411L116 250Q108 246 108 240Q108 234 113 232L364 71Q368 68 368 64Q368 60 365 56L342 29Q337 23 333 23Q331 23 325 27T310 37L49 204Z"  />
<glyph unicode="=" horiz-adv-x="504" d="M50 304Q44 304 43 306T41 314L47 347Q48 357 59 357H460Q468 357 468 347L462 314Q461 304 451 304H50ZM17 120Q11 120 10 122T9 130L15 163Q16 173 27 173H428Q436 173 436 163L430 130Q429 120 418 120H17Z"  />
<glyph unicode="&gt;" horiz-adv-x="504" d="M362 232Q370 237 370 242Q370 247 365 250L115 411Q111 414 111 417Q111 420 114 425L136 453Q140 459 145 459Q147 459 151 457L429 276Q431 274 431 272T432 267L423 214Q421 207 416 205L80 28Q76 26 73 25T68 23Q64 23 61 29Q48 57 48 61Q48 66 56 71L362 232Z"  />
<glyph unicode="?" horiz-adv-x="496" d="M146 184Q138 184 138 190Q138 245 156 277T201 330T260 362T319 390T364 427T382 489Q382 524 359 547T301 571H262Q237 571 210 558T163 516Q158 510 153 510Q151 510 149 511T144 514L101 538Q96 541 96 544Q96 547 99 552Q124 588 165 614T274 640H313Q385 640 424 604T463 507Q463 491 460 473Q451 424 432 395T387 349T335 320T283 297T242 268T219 220Q219 218 219 212T217 200T213 189T204 184H146ZM217 40Q213 18 196 3T156 -12Q136 -12 124 0T112 31Q112 43 117 54T131 73T151 87T174 92Q194 92 206 81T218 50Q218 47 218 45T217 40Z"  />
<glyph unicode="@" horiz-adv-x="705" d="M212 0Q137 0 97 38T57 138Q57 156 60 174L110 457Q117 495 135 527T181 582T245 617T323 630H499Q573 630 614 593T655 492Q655 475 652 457L615 247Q608 207 579 182T504 157H491Q468 157 452 164T425 185Q421 189 417 189Q415 189 407 185Q390 172 367 165T327 157Q275 157 247 182T219 253Q219 258 219 264T221 277L235 358Q244 412 284 445T383 478Q397 478 412 474T438 461Q442 458 446 458Q450 458 452 463L453 470Q454 478 463 478H501Q510 478 510 468L471 252Q470 249 470 244Q470 231 479 223T502 215H514Q528 215 541 226T557 252L594 457Q595 463 595 468T596 480Q596 522 568 547T489 572H313Q256 572 217 540T168 457L118 174Q116 168 116 162T116 151Q116 109 143 84T222 59H483Q492 59 492 49L485 10Q484 0 473 0H212ZM432 350Q433 354 433 362Q433 386 416 402T373 419Q344 419 321 399T292 350L280 285Q279 280 279 272Q279 247 295 231T337 215Q366 215 390 235T420 285L432 350Z"  />
<glyph unicode="A" horiz-adv-x="441" d="M-44 0Q-54 0 -54 7Q-54 9 -52 13L242 623Q245 630 253 630H299Q307 630 308 623L385 13V11Q385 0 373 0H310Q302 0 301 7L287 142Q287 148 278 148H98Q89 148 87 142L25 7Q22 0 14 0H-44ZM264 217Q277 217 277 228V230L259 452Q257 468 257 483T257 509V524H254Q250 513 246 502Q242 492 238 479T227 452L128 230Q126 226 126 224Q126 217 135 217H264Z"  />
<glyph unicode="B" horiz-adv-x="513" d="M31 0Q25 0 24 2T23 10L130 620Q133 630 142 630H339Q409 630 449 594T489 494Q489 484 488 473T483 443Q480 428 472 412T451 379T425 350T395 328Q386 323 386 318Q386 314 391 311Q411 297 426 271T441 212Q441 207 440 200T436 176Q420 96 365 48T228 0H31ZM290 354Q311 354 330 361T365 382T392 414T407 453Q409 465 410 470T411 481Q411 515 387 538T327 561H208Q197 561 196 551L163 364Q163 359 164 357T171 354H290ZM240 69Q282 69 315 97T356 167Q360 187 361 194T362 205Q362 240 339 262T278 285H159Q150 285 147 275L113 79Q113 74 114 72T121 69H240Z"  />
<glyph unicode="C" horiz-adv-x="461" d="M181 -10Q109 -10 70 26T31 123Q31 139 34 157L89 473Q95 510 113 541T158 594T220 628T296 640H327Q360 640 384 633T424 614T451 586T470 552Q471 550 471 548Q471 542 463 538L405 512Q401 510 400 510Q395 510 394 516Q383 542 362 556T315 571H284Q242 571 209 543T168 473L113 157Q112 152 112 149T111 140Q111 105 134 82T193 59H224Q250 59 276 73T323 116Q328 121 332 121Q335 121 337 120L385 93Q390 90 390 87Q390 84 387 80Q374 62 358 46T320 17T272 -3T212 -10H181Z"  />
<glyph unicode="D" horiz-adv-x="523" d="M31 0Q25 0 24 2T23 10L130 620Q133 630 142 630H339Q410 630 449 593T488 492Q487 483 487 474T485 453L436 178Q429 137 411 104T365 48T303 13T228 0H31ZM240 69Q282 69 315 97T356 167L409 463Q410 468 410 479Q410 513 387 537T327 561H208Q197 561 196 551L113 79Q113 74 114 72T121 69H240Z"  />
<glyph unicode="E" horiz-adv-x="444" d="M172 -10Q101 -10 61 25T21 124Q21 145 25 165L31 196Q35 217 46 236T71 272T101 301T131 320Q135 324 135 326Q135 328 133 330Q110 341 92 368T73 430Q73 435 73 439T75 448L78 466Q85 506 103 538T148 593T211 628T287 640H317Q350 640 374 633T415 614T443 586T460 552Q460 550 460 550T461 548Q461 541 454 538L396 511Q394 510 391 510Q385 510 384 516Q373 544 352 557T305 571H275Q255 571 235 564T199 543T172 512T158 473L156 458Q155 454 155 451T155 444Q155 407 177 383T237 359H312Q321 359 321 351Q321 349 320 343T318 329T315 313T312 301Q311 291 300 291H225Q205 291 186 283T151 262T124 231T109 193L103 157Q102 153 102 149T102 141Q102 106 125 83T184 59H214Q240 59 266 73T313 115Q317 121 322 121Q325 121 327 120L374 93Q379 90 379 86Q379 84 377 80Q352 43 311 17T202 -10H172Z"  />
<glyph unicode="F" horiz-adv-x="433" d="M31 0Q25 0 24 2T23 10L130 620Q133 630 142 630H476Q484 630 484 620L476 571Q473 561 464 561H208Q197 561 196 551L163 364Q163 359 164 357T171 354H381Q390 354 390 344L381 295Q380 285 369 285H159Q150 285 147 275L101 10Q100 0 89 0H31Z"  />
<glyph unicode="G" horiz-adv-x="499" d="M181 -10Q109 -10 70 26T31 123Q31 139 34 157L89 473Q95 510 113 541T158 594T220 628T296 640H345Q378 640 402 633T443 613T471 585T488 552Q489 550 489 548Q489 542 481 538L423 512Q419 510 418 510Q413 510 412 516Q401 543 380 557T333 571H284Q263 571 244 564T209 543T182 512T168 473L113 157Q112 152 112 149T111 140Q111 105 134 82T193 59H224Q244 59 263 67T298 88T325 119T340 157L353 230Q353 240 344 240H242Q236 240 235 242T234 250L243 299Q244 309 254 309H435Q444 309 444 299L419 157Q413 120 395 90T350 37T288 3T212 -10H181Z"  />
<glyph unicode="H" horiz-adv-x="554" d="M31 0Q25 0 24 2T23 10L130 620Q133 630 142 630H200Q208 630 208 620L163 364Q163 359 164 357T171 354H394Q405 354 406 364L451 620Q454 630 463 630H522Q530 630 530 620L423 10Q422 0 411 0H352Q346 0 345 2T344 10L390 275Q390 285 382 285H159Q150 285 147 275L101 10Q100 0 89 0H31Z"  />
<glyph unicode="I" horiz-adv-x="232" d="M31 0Q23 0 23 7Q23 8 24 12T28 36T38 94T56 200T86 370T130 620Q133 630 142 630H200Q208 630 208 624Q208 623 207 618T203 592T193 533T174 425T144 256T101 10Q100 0 89 0H31Z"  />
<glyph unicode="J" horiz-adv-x="400" d="M24 120Q26 121 29 121Q33 121 35 116Q46 89 67 74T115 59Q135 59 154 66T189 87T216 119T231 157L312 620Q315 630 324 630H383Q391 630 391 624Q391 623 391 619T388 601T380 558T366 479T344 352T311 167Q304 128 286 96T240 40T177 3T103 -10Q27 -10 -14 37Q-22 45 -31 59T-41 85Q-41 90 -33 94L24 120Z"  />
<glyph unicode="K" horiz-adv-x="509" d="M31 0Q23 0 23 7Q23 8 23 12T27 34T37 90T55 195T85 366T130 620Q133 630 142 630H200Q209 630 209 624Q209 622 208 616T206 608Q189 511 180 458T166 378T160 345T159 335Q159 326 165 326Q170 326 176 332L451 626Q455 630 460 630H528Q538 630 538 623Q538 619 533 614L307 384Q301 378 301 370Q301 367 302 364T305 357L457 15Q457 13 457 13T458 10Q458 0 445 0H371Q365 0 363 5L236 295Q233 301 228 301Q225 301 222 298L136 209L101 10Q100 0 89 0H31Z"  />
<glyph unicode="L" horiz-adv-x="430" d="M31 0Q25 0 24 2T23 10L130 620Q133 630 142 630H200Q208 630 208 620L113 79Q113 74 114 72T121 69H377Q385 69 385 59L377 10Q376 0 365 0H31Z"  />
<glyph unicode="M" horiz-adv-x="646" d="M31 0Q25 0 24 2T23 10L130 620Q133 630 142 630H197Q203 630 205 624L297 255Q298 251 300 238T303 215H306Q308 222 315 234T327 255L549 624Q553 630 559 630H614Q622 630 622 620L515 10Q514 0 503 0H445Q439 0 438 2T437 10L473 216Q485 288 498 349T523 448L519 449Q514 438 504 417T482 379L306 98Q303 92 296 92H269Q262 92 261 98L186 379Q182 394 179 414T173 449L169 448Q167 408 159 349T137 216L101 10Q100 0 89 0H31Z"  />
<glyph unicode="N" horiz-adv-x="554" d="M31 0Q25 0 24 2T23 10L130 620Q133 630 142 630H197Q203 630 205 625L360 208Q362 201 365 188T370 165H373Q375 180 379 208T390 270T402 339T413 405L451 620Q454 630 463 630H522Q530 630 530 620L423 10Q422 0 411 0H355Q349 0 347 5L192 419Q188 428 186 441T181 466H178Q176 452 172 428T163 371T152 300T138 222L101 10Q100 0 89 0H31Z"  />
<glyph unicode="O" horiz-adv-x="509" d="M181 -10Q109 -10 70 26T31 123Q31 139 34 157L89 473Q95 510 113 541T158 594T220 628T296 640H327Q399 640 438 604T477 507Q477 491 474 473L419 157Q413 120 395 89T350 36T288 2T212 -10H181ZM224 59Q244 59 263 66T298 87T325 119T340 157L395 473Q396 478 396 482T397 491Q397 526 374 548T315 571H284Q242 571 209 543T168 473L113 157Q112 152 112 149T111 140Q111 105 134 82T193 59H224Z"  />
<glyph unicode="P" horiz-adv-x="468" d="M31 0Q25 0 24 2T23 10L130 620Q133 630 142 630H339Q410 630 449 593T488 492Q488 474 485 453Q479 417 461 387T416 334T354 298T278 285H159Q150 285 147 275L101 10Q100 0 89 0H31ZM290 354Q311 354 330 361T365 382T392 414T407 453Q409 465 410 470T411 481Q411 515 387 538T327 561H208Q197 561 196 551L163 364Q163 359 164 357T171 354H290Z"  />
<glyph unicode="Q" horiz-adv-x="509" d="M158 -92Q149 -92 149 -86Q149 -84 151 -69T161 -18Q161 -10 153 -8Q93 1 62 36T31 124Q31 139 34 157L89 473Q95 510 113 541T158 594T220 628T296 640H327Q399 640 438 604T477 507Q477 491 474 473L419 157Q408 91 360 47T240 -8Q231 -9 230 -18L219 -82Q216 -92 207 -92H158ZM185 119Q186 129 197 129H246Q254 129 254 119Q249 93 247 83T245 71Q245 65 252 65Q258 65 264 68Q296 81 315 104T340 157L395 473Q396 478 396 482T397 491Q397 526 374 548T315 571H284Q263 571 244 564T209 543T182 512T168 473L113 157Q112 152 112 148T111 140Q111 120 119 103T144 74Q148 71 154 68T166 64Q174 64 177 74L185 119Z"  />
<glyph unicode="R" horiz-adv-x="504" d="M31 0Q25 0 24 2T23 10L130 620Q133 630 142 630H339Q409 630 449 594T489 494Q489 472 485 453L483 443Q479 423 467 403T439 364T405 331T368 309Q362 305 362 298L410 13Q410 7 409 4T399 0H333Q327 0 325 7L279 279Q279 285 272 285H159Q150 285 147 275L101 10Q100 0 89 0H31ZM290 354Q311 354 330 361T365 382T392 414T407 453L409 463Q410 468 410 472T411 481Q411 515 387 538T327 561H208Q197 561 196 551L163 364Q163 359 164 357T171 354H290Z"  />
<glyph unicode="S" horiz-adv-x="458" d="M140 -10Q100 -10 74 0T30 26Q20 35 9 52T-3 83Q-3 90 4 93L61 120Q63 121 66 121Q71 121 74 115Q85 87 106 73T152 59H195Q218 59 239 68T277 93T304 129T314 174Q314 204 296 224T251 259T193 289T135 322T90 369T72 438Q72 480 88 517T132 581T199 624T282 640H298Q331 640 355 633T396 614T424 586T441 552Q442 550 442 548Q442 542 434 538L376 512Q372 510 371 510Q366 510 365 516Q354 543 333 557T286 571H270Q247 571 226 563T188 539T163 504T153 459Q153 432 171 414T215 382T273 353T331 318T376 268T394 196Q394 152 379 114T335 49T268 6T183 -10H140Z"  />
<glyph unicode="T" horiz-adv-x="369" d="M99 0Q91 0 91 7V10Q114 140 130 230T156 381T173 475T182 527T185 548T186 554Q186 561 178 561H60Q51 561 51 567Q51 569 52 571L60 620Q63 630 72 630H407Q415 630 415 624Q415 621 414 612T407 571Q404 561 395 561H277Q266 561 265 551L170 10Q169 0 158 0H99Z"  />
<glyph unicode="U" horiz-adv-x="529" d="M191 -10Q119 -10 80 26T41 123Q41 139 44 157L125 620Q128 630 137 630H196Q204 630 204 620L123 157Q122 152 122 149T121 140Q121 105 144 82T203 59H234Q254 59 273 66T308 87T335 119T350 157L431 620Q434 630 443 630H502Q510 630 510 620L429 157Q423 120 405 90T360 37T298 3T222 -10H191Z"  />
<glyph unicode="V" horiz-adv-x="441" d="M142 0Q134 0 133 7L55 617Q55 630 67 630H130Q138 630 139 623L185 180Q185 175 186 160T188 139H193Q195 145 201 159T210 179L410 623Q413 630 421 630H484Q494 630 494 623Q494 621 492 617L198 7Q195 0 187 0H142Z"  />
<glyph unicode="W" horiz-adv-x="667" d="M98 0Q91 0 89 8L65 618Q65 630 77 630H142Q151 630 151 622L157 214Q157 194 157 177T155 149H157Q164 171 183 213L368 625Q371 632 379 632H402Q411 632 411 625L453 220Q455 207 455 195T455 170V152H457Q462 171 468 190T479 221L624 622Q626 630 635 630H700Q709 630 709 623Q709 620 708 618L467 8Q464 0 456 0H411Q403 0 402 7L358 386Q357 395 357 404T356 422Q356 427 356 432T357 440H355Q353 432 347 417T333 386L154 7Q151 0 143 0H98Z"  />
<glyph unicode="X" horiz-adv-x="453" d="M-28 0Q-38 0 -38 6Q-38 11 -34 15L169 304Q175 313 175 318Q175 321 173 325L71 615Q70 617 70 620Q70 630 83 630H156Q162 630 164 624L234 397Q236 389 242 389Q247 389 252 397L397 624Q401 630 407 630H480Q489 630 489 623Q489 618 487 616L286 328Q280 320 280 312Q280 310 282 304L380 14Q380 12 380 12T381 9Q381 0 369 0H295Q288 0 287 6L222 234Q219 241 214 241Q208 241 204 234L55 6Q51 0 45 0H-28Z"  />
<glyph unicode="Y" horiz-adv-x="411" d="M120 0Q114 0 113 2T112 10L161 290L45 615Q44 617 44 620Q44 630 57 630H127Q133 630 135 624L209 384Q211 376 216 376Q221 376 227 384L385 624Q389 630 395 630H464Q474 630 474 623Q474 621 470 615L240 290L191 10Q190 0 179 0H120Z"  />
<glyph unicode="Z" horiz-adv-x="411" d="M-21 0Q-31 0 -31 7Q-31 9 -28 14L301 547Q304 551 304 554Q304 561 295 561H88Q79 561 79 567Q79 569 80 571L88 620Q91 630 100 630H422Q431 630 431 623Q431 618 429 616L98 83Q95 78 95 75Q95 69 104 69H335Q343 69 343 59L335 10Q334 0 323 0H-21Z"  />
<glyph unicode="[" horiz-adv-x="346" d="M37 -183Q31 -183 30 -181T28 -173L186 722Q189 732 198 732H348Q356 732 356 722L348 673Q345 663 336 663H265Q254 663 253 653L119 -105Q119 -110 120 -112T128 -115H199Q207 -115 207 -125L198 -173Q197 -183 187 -183H37Z"  />
<glyph unicode="\" horiz-adv-x="299" d="M212 0Q205 0 204 6Q167 155 141 258T98 430T71 536T57 592T51 615T50 620Q50 630 62 630H96Q102 630 104 624L257 14Q257 0 246 0H212Z"  />
<glyph unicode="]" horiz-adv-x="346" d="M-21 -183Q-27 -183 -28 -181T-30 -173L-21 -125Q-20 -115 -9 -115H63Q73 -115 74 -105L208 653Q208 663 200 663H128Q119 663 119 669Q119 671 121 685T128 722Q131 732 140 732H290Q298 732 298 722L140 -173Q139 -183 129 -183H-21Z"  />
<glyph unicode="^" horiz-adv-x="502" d="M233 640H266L454 306H390L251 567H248L110 306H47L233 640Z"  />
<glyph unicode="_" horiz-adv-x="194" d="M-99 -225Q-105 -225 -106 -223T-107 -215L-103 -190Q-100 -180 -91 -180H119Q127 -180 127 -190L123 -215Q122 -225 111 -225H-99Z"  />
<glyph unicode="`" horiz-adv-x="500" d="M278 509Q269 509 263 515L166 625Q163 628 163 632Q163 642 176 642H252Q259 642 263 634L316 524Q317 522 317 518Q317 509 305 509H278Z"  />
<glyph unicode="a" horiz-adv-x="471" d="M291 0Q285 0 284 2T283 10L288 38Q288 49 280 49Q275 49 271 45Q244 21 218 11T172 0Q100 0 61 37T21 134Q21 149 24 167L44 280Q50 317 68 347T113 400T175 434T251 446Q274 446 296 436T334 403Q336 398 342 398Q351 398 353 409L358 436Q359 446 370 446H418Q426 446 426 436L351 10Q350 0 339 0H291ZM320 280Q321 285 321 296Q321 330 298 354T239 378Q218 378 199 371T164 350T137 318T123 280L103 167Q102 163 102 159T102 151Q102 116 125 93T184 69Q204 69 223 77T259 98T286 129T300 167L320 280Z"  />
<glyph unicode="b" horiz-adv-x="472" d="M20 0Q14 0 13 2T12 10L119 620Q122 630 131 630H190Q198 630 198 620L161 411Q161 400 168 400Q173 400 177 404Q202 427 228 436T276 446Q339 446 378 409T417 311Q417 296 414 280L394 167Q388 130 370 100T325 47T263 13T187 0Q168 0 145 10T104 44Q100 48 96 48Q88 48 86 37L81 10Q80 0 69 0H20ZM335 280Q336 285 336 296Q336 330 313 354T254 378Q233 378 214 371T179 350T152 318T138 280L118 167Q117 163 117 159T117 151Q117 116 140 93T199 69Q219 69 238 77T274 98T301 129T315 167L335 280Z"  />
<glyph unicode="c" horiz-adv-x="418" d="M343 93Q348 90 348 87Q348 84 345 80Q332 62 316 46T278 17T230 -3T170 -10Q98 -10 59 27T20 125Q20 140 23 157L46 290Q52 326 69 356T114 408T176 443T252 456Q286 456 310 449T351 430T379 403T396 369Q396 364 395 361T389 355L331 328Q327 326 326 326Q321 326 320 332Q309 358 288 373T240 388Q193 388 163 360T125 290L102 157Q101 152 101 147T100 137Q100 104 120 82T182 59Q208 59 234 73T281 116Q286 121 290 121Q293 121 295 120L343 93Z"  />
<glyph unicode="d" horiz-adv-x="471" d="M291 0Q285 0 284 2T283 10L288 38Q288 49 280 49Q275 49 271 45Q244 21 218 11T172 0Q100 0 61 37T21 134Q21 149 24 167L44 280Q50 317 68 347T113 400T173 434T241 446Q264 446 286 436T324 403Q327 398 331 398Q340 398 342 410L379 620Q382 630 391 630H450Q458 630 458 620L351 10Q350 0 339 0H291ZM319 280Q320 284 320 288T320 296Q320 331 297 354T239 378Q218 378 199 371T164 350T137 318T123 280L103 167Q102 163 102 159T102 151Q102 116 125 93T184 69Q204 69 223 77T258 98T285 129T299 167L319 280Z"  />
<glyph unicode="e" horiz-adv-x="448" d="M343 93Q348 90 348 87Q348 84 345 80Q331 61 315 45T277 16T230 -3T170 -10Q98 -10 59 26T20 123Q20 139 23 157L46 290Q52 326 69 356T114 408T176 443T252 456Q323 456 363 419T403 322Q403 306 400 290L388 224Q387 214 377 214H122Q111 214 110 204L102 157Q101 152 101 149T100 140Q100 105 123 82T182 59Q208 59 234 73T281 116Q286 121 290 121Q293 121 295 120L343 93ZM308 273Q319 273 320 283L322 295Q323 299 323 303T323 311Q323 343 301 365T240 388Q193 388 163 360T125 290L123 279Q123 273 132 273H308Z"  />
<glyph unicode="f" horiz-adv-x="269" d="M-124 -235Q-136 -235 -149 -234T-162 -227Q-162 -225 -158 -215T-135 -172Q-131 -165 -124 -165Q-117 -166 -113 -166T-103 -166Q-83 -166 -64 -159T-29 -138T-3 -107T12 -68L81 322Q81 332 73 332H47Q41 332 40 334T38 342L47 390Q48 400 59 400H85Q95 400 96 410L106 463Q113 500 132 532T178 588T240 626T313 640Q318 640 325 640T340 639T353 637T359 632Q359 631 357 625L333 577Q329 570 322 570Q315 571 311 571T301 571Q259 571 226 543T185 473L174 410Q174 405 175 403T183 400H255Q263 400 263 390L254 342Q253 332 243 332H171Q160 332 159 322L92 -58Q85 -95 66 -127T18 -184T-44 -221T-115 -235H-124Z"  />
<glyph unicode="g" horiz-adv-x="471" d="M51 -106Q53 -105 56 -105Q61 -105 64 -110Q75 -137 96 -151T143 -166Q163 -166 182 -159T217 -138T244 -107T259 -68L278 37Q278 48 271 48Q266 48 262 44Q236 20 209 10T162 0Q99 0 60 37T21 135Q21 150 24 167L44 280Q50 317 68 347T113 400T175 434T251 446Q274 446 296 436T334 403Q336 398 342 398Q351 398 353 409L358 436Q359 446 370 446H418Q426 446 426 436L339 -57Q332 -95 315 -127T272 -184T211 -221T131 -235Q83 -235 54 -221T8 -185Q2 -177 -6 -164T-14 -142Q-14 -135 -6 -132L51 -106ZM320 280Q321 285 321 296Q321 330 298 354T239 378Q218 378 199 371T164 350T137 318T123 280L103 167Q102 163 102 159T102 151Q102 116 125 93T184 69Q204 69 223 77T259 98T286 129T300 167L320 280Z"  />
<glyph unicode="h" horiz-adv-x="482" d="M20 0Q14 0 13 2T12 10L119 620Q122 630 131 630H190Q198 630 198 620L161 411Q161 400 168 400Q173 400 177 404Q202 427 228 436T276 446Q307 446 333 437T377 409T406 367T417 312Q417 296 414 280L367 10Q366 0 355 0H296Q290 0 289 2T288 10L335 280Q336 284 336 288T336 296Q336 331 313 354T254 378Q234 378 215 371T179 350T152 318T138 280L91 10Q90 0 79 0H20Z"  />
<glyph unicode="i" horiz-adv-x="211" d="M203 591Q199 571 182 556T144 541Q125 541 114 552T103 581Q103 604 121 622T162 640Q181 640 192 629T204 600Q204 598 204 596T203 591ZM20 0Q14 0 13 2T12 10L87 436Q88 446 99 446H158Q166 446 166 436L91 10Q90 0 79 0H20Z"  />
<glyph unicode="j" horiz-adv-x="211" d="M203 591Q199 571 182 556T144 541Q125 541 114 552T103 581Q103 604 121 622T162 640Q181 640 192 629T204 600Q204 598 204 596T203 591ZM-112 -176Q-110 -168 -102 -166Q-62 -158 -35 -131T-2 -69L87 436Q88 446 99 446H158Q166 446 166 436L79 -59Q73 -93 56 -123T14 -176T-43 -214T-111 -235Q-119 -235 -120 -233T-121 -225L-112 -176Z"  />
<glyph unicode="k" horiz-adv-x="434" d="M20 0Q14 0 13 2T12 10L119 620Q122 630 131 630H190Q198 630 198 620L140 292Q140 281 147 281Q152 281 156 285L328 443Q331 446 336 446H406Q416 446 416 439Q416 433 410 429L261 302Q256 297 256 293Q256 291 257 290L379 15Q380 13 380 10Q380 0 367 0H293Q287 0 285 5L191 222Q188 228 184 228Q179 228 175 224L120 177L91 10Q90 0 79 0H20Z"  />
<glyph unicode="l" horiz-adv-x="211" d="M20 0Q14 0 13 2T12 10L119 620Q122 630 131 630H190Q198 630 198 620L91 10Q90 0 79 0H20Z"  />
<glyph unicode="m" horiz-adv-x="716" d="M20 0Q14 0 13 2T12 10L87 436Q88 446 99 446H148Q156 446 156 436L151 410Q151 398 157 398Q162 398 166 402Q191 425 217 435T266 446Q293 446 321 434T366 394Q369 389 373 389Q377 389 382 394Q411 421 444 433T511 446Q574 446 612 410T651 313Q651 296 648 280L601 10Q600 0 589 0H530Q524 0 523 2T522 10L569 280Q570 285 570 289T570 297Q570 332 549 355T499 378Q484 378 467 371T435 350T408 319T393 280L346 10Q345 0 334 0H275Q269 0 268 2T267 10L314 280Q315 285 315 289T315 297Q315 332 294 355T244 378Q229 378 212 371T179 350T153 319T138 280L91 10Q90 0 79 0H20Z"  />
<glyph unicode="n" horiz-adv-x="482" d="M20 0Q14 0 13 2T12 10L87 436Q88 446 99 446H148Q156 446 156 436L151 410Q151 405 152 402T158 398Q162 398 167 403Q192 427 217 436T266 446Q338 446 377 410T417 313Q417 296 414 280L367 10Q366 0 355 0H296Q290 0 289 2T288 10L335 280Q336 284 336 288T336 296Q336 331 313 354T254 378Q234 378 215 371T179 350T152 318T138 280L91 10Q90 0 79 0H20Z"  />
<glyph unicode="o" horiz-adv-x="456" d="M46 290Q52 326 69 356T114 408T176 443T252 456Q323 456 363 419T403 321Q403 305 400 290L377 156Q371 120 353 90T308 38T246 3T170 -10Q99 -10 60 27T20 125Q20 139 23 156L46 290ZM322 295Q323 299 323 303T323 311Q323 343 301 365T240 388Q193 388 163 360T125 290L101 151Q100 146 100 143T99 134Q99 102 121 80T182 58Q229 58 260 86T298 156L322 295Z"  />
<glyph unicode="p" horiz-adv-x="472" d="M-20 -225Q-26 -225 -27 -223T-28 -215L87 436Q88 446 99 446H148Q156 446 156 436L151 410Q151 405 152 402T158 398Q162 398 167 403Q191 427 217 436T266 446Q338 446 377 410T417 313Q417 296 414 280L394 167Q388 130 370 100T325 47T265 13T197 0Q178 0 155 10T114 44Q111 48 106 48Q97 48 95 36L51 -215Q50 -225 39 -225H-20ZM335 280Q336 285 336 296Q336 330 313 354T254 378Q233 378 214 371T179 350T152 318T138 280L118 167Q117 163 117 159T117 151Q117 116 140 93T199 69Q219 69 238 77T274 98T301 129T315 167L335 280Z"  />
<glyph unicode="q" horiz-adv-x="471" d="M240 -225Q234 -225 233 -223T232 -215L277 37Q277 48 270 48Q265 48 261 44Q235 20 208 10T162 0Q99 0 60 37T21 135Q21 150 24 167L44 280Q50 317 68 347T113 400T175 434T251 446Q274 446 296 436T334 403Q336 398 342 398Q351 398 353 409L358 436Q359 446 370 446H418Q426 446 426 436L311 -215Q310 -225 299 -225H240ZM319 280Q320 284 320 288T320 296Q320 331 297 354T239 378Q218 378 199 371T164 350T137 318T123 280L103 167Q102 163 102 159T102 151Q102 116 125 93T184 69Q204 69 223 77T258 98T285 129T299 167L319 280Z"  />
<glyph unicode="r" horiz-adv-x="267" d="M20 0Q14 0 13 2T12 10L87 436Q88 446 99 446H148Q156 446 156 436L149 395Q149 390 150 387T155 383Q159 383 164 388Q189 416 216 431T266 446H288Q295 446 295 435L284 372Q281 362 274 362Q270 362 264 364T252 366Q210 366 178 340T137 270L91 10Q90 0 79 0H20Z"  />
<glyph unicode="s" horiz-adv-x="433" d="M144 -10Q105 -10 80 -1T37 24Q26 34 14 51T2 82Q2 88 10 91L62 115Q64 116 68 116Q73 116 75 111Q84 86 106 71T156 55H186Q230 55 256 78T283 133Q283 153 265 163T221 180T163 193T105 210T60 242T42 297Q42 337 57 366T99 416T158 446T226 456H256Q290 456 314 449T355 429T382 402T398 370Q398 365 397 362T391 356L339 332Q335 330 334 330Q329 330 326 336Q315 361 295 376T245 391H215Q167 391 145 370T122 319Q122 298 140 287T185 268T243 255T301 238T346 208T364 156Q364 123 351 93T312 40T252 4T174 -10H144Z"  />
<glyph unicode="t" horiz-adv-x="267" d="M192 1Q191 -9 179 -9Q114 -2 81 33T47 123Q47 139 50 157L87 368Q87 378 79 378H23Q17 378 16 380T14 388L19 415L154 535Q157 538 162 538H186Q194 538 194 528L181 456Q181 451 182 449T190 446H261Q269 446 269 436L260 388Q259 378 249 378H178Q167 378 166 368L129 157Q128 152 128 148T127 140Q127 111 144 90T195 61Q201 60 201 51L192 1Z"  />
<glyph unicode="u" horiz-adv-x="481" d="M301 0Q295 0 294 2T293 10L298 38Q298 43 297 46T290 50Q286 50 281 45Q257 21 231 11T182 0Q110 0 71 37T31 134Q31 149 34 167L82 436Q83 446 94 446H153Q161 446 161 436L113 167Q112 162 112 158T111 150Q111 115 135 92T194 69Q236 69 269 97T310 167L358 436Q359 446 370 446H428Q436 446 436 436L361 10Q360 0 349 0H301Z"  />
<glyph unicode="v" horiz-adv-x="423" d="M132 0Q125 0 124 6L26 432Q26 433 26 433T25 436Q25 446 38 446H100Q106 446 108 440L170 154Q171 149 172 136T174 115H178Q180 122 187 136T196 154L359 440Q362 446 369 446H431Q440 446 440 440Q440 436 437 432L190 6Q187 0 180 0H132Z"  />
<glyph unicode="w" horiz-adv-x="599" d="M95 0Q87 0 86 7L31 433Q31 446 44 446H108Q116 446 116 439L137 170Q138 159 138 150T138 121H141Q142 123 146 136T161 170L286 439Q290 446 298 446H351Q359 446 359 439L389 179Q390 171 390 162T391 145L390 124H393Q395 129 400 144T414 180L526 439Q530 446 538 446H601Q610 446 610 440Q610 437 608 433L403 7Q400 0 392 0H347Q339 0 338 7L306 289Q305 297 305 305T304 320L305 339H302Q300 335 296 322T282 289L151 7Q148 0 140 0H95Z"  />
<glyph unicode="x" horiz-adv-x="404" d="M-32 0Q-41 0 -41 6Q-41 11 -37 15L132 219Q134 225 134 231L37 431Q35 435 35 436Q35 446 48 446H116Q120 446 123 441L190 288Q191 283 197 283Q202 283 206 288L329 441Q332 446 338 446H402Q411 446 411 440Q411 435 407 431L240 230Q237 227 237 223Q237 221 238 220L335 15Q336 13 336 9Q336 0 324 0H255Q249 0 247 5L180 158Q177 164 172 164Q167 164 163 158L42 5Q37 0 32 0H-32Z"  />
<glyph unicode="y" horiz-adv-x="481" d="M61 -106Q63 -105 66 -105Q71 -105 74 -110Q85 -137 106 -151T153 -166Q173 -166 192 -159T227 -138T254 -107T269 -68L287 33Q287 38 286 41T279 45Q275 45 270 40Q250 20 228 10T182 0Q110 0 71 37T31 134Q31 149 34 167L82 436Q83 446 94 446H153Q161 446 161 436L113 167Q112 162 112 158T111 150Q111 115 135 92T194 69Q217 69 237 78T272 101T297 132T310 167L358 436Q359 446 370 446H428Q436 446 436 436L349 -57Q342 -95 325 -127T282 -184T221 -221T141 -235Q99 -235 71 -224T26 -194Q18 -185 7 -169T-4 -142Q-4 -135 4 -132L61 -106Z"  />
<glyph unicode="z" horiz-adv-x="408" d="M-21 0Q-31 0 -31 6Q-31 11 -27 15L242 362Q245 366 245 370Q245 377 235 377H49Q43 377 42 379T41 387L50 435Q51 445 61 445H378Q388 445 388 438Q388 434 385 430L115 84Q111 80 111 75Q111 69 121 69H328Q336 69 336 59L328 10Q327 0 316 0H-21Z"  />
<glyph unicode="{" horiz-adv-x="391" d="M248 -172Q244 -182 235 -182Q168 -175 136 -137T103 -39Q103 -22 107 -6L133 142Q134 147 134 150T134 159Q134 188 117 209T66 238Q61 239 61 242T60 248L69 301Q71 309 79 311Q119 319 146 345T180 407L206 555Q221 642 286 690Q307 705 336 718T398 731Q405 731 405 721L396 671Q394 662 387 661Q346 653 320 627T287 565L257 397Q250 362 225 331T168 282Q166 281 163 280T160 275Q160 270 167 267Q188 254 201 228T215 170Q215 164 215 158T213 145L184 -16Q183 -21 183 -25T182 -33Q182 -62 199 -84T250 -113Q256 -114 256 -123L248 -172Z"  />
<glyph unicode="|" horiz-adv-x="235" d="M92 750H145V-250H92V750Z"  />
<glyph unicode="}" horiz-adv-x="391" d="M119 145Q122 160 131 178T153 214T181 247T214 270Q217 271 217 276Q217 278 211 282Q188 297 175 325T162 381Q162 392 163 397L193 565Q194 569 194 573T194 581Q194 610 176 632T126 661Q119 662 119 671L128 721Q130 731 139 731Q171 731 196 720T238 689T264 645T273 592Q273 574 270 555L244 407Q243 402 243 398T242 390Q242 361 259 340T310 311Q316 310 316 301L307 248Q305 240 297 238Q257 230 230 204T197 142L171 -6Q165 -42 147 -74T104 -130T46 -168T-22 -182Q-30 -182 -30 -176Q-30 -174 -28 -162T-21 -123Q-19 -115 -11 -113Q29 -105 56 -78T90 -16L119 145Z"  />
<glyph unicode="~" horiz-adv-x="502" d="M32 219Q51 250 78 273T147 296Q173 296 196 288T242 265Q263 251 282 243T322 234Q344 234 365 250T403 296L437 259Q417 227 390 205T324 182Q297 182 273 190T227 213Q208 225 188 234T147 243Q124 243 103 227T66 182L32 219Z"  />
<glyph unicode="&#xA0;" horiz-adv-x="504" />
<glyph unicode="&#xA1;" horiz-adv-x="275" d="M203 407Q199 385 182 370T142 355Q122 355 110 366T98 397Q98 421 116 440T160 459Q179 459 191 447T204 416Q204 414 204 412T203 407ZM17 -183Q11 -183 10 -181T8 -173L54 86L105 254Q108 263 116 263H132Q141 263 141 254L133 86L87 -173Q86 -183 76 -183H17Z"  />
<glyph unicode="&#xA2;" horiz-adv-x="504" d="M176 -70Q170 -70 169 -68T167 -60L178 2Q178 9 177 11T169 15Q112 24 83 59T53 146Q53 162 56 179L79 312Q90 375 135 419T250 475Q261 476 264 488L275 550Q276 560 287 560H312Q320 560 320 550L309 487Q309 482 310 480T318 476Q344 472 362 464T395 443Q405 434 417 418T429 387Q429 380 421 377Q389 360 376 354T359 348Q354 348 351 358T337 379Q329 389 318 396T300 404Q295 404 293 396L240 95Q240 86 243 86Q250 86 259 91T279 103T298 120T314 138Q319 143 323 143Q326 143 335 138T376 115Q381 112 381 109Q381 106 378 102Q355 69 321 45T234 14Q225 13 224 3L212 -60Q211 -70 201 -70H176ZM248 396Q248 402 246 403T238 405Q206 395 185 370T158 312L135 179Q134 174 134 169T133 159Q133 136 142 119T170 91Q173 89 178 87T186 85Q193 85 195 94L248 396Z"  />
<glyph unicode="&#xA3;" horiz-adv-x="504" d="M-47 0Q-53 0 -54 2T-55 10L-47 59Q-44 69 -35 69H7Q45 75 74 102T110 167L130 276Q130 286 121 286H95Q89 286 88 288T87 296L96 344Q97 354 107 354H133Q144 354 145 364L163 463Q170 502 189 534T237 590T299 627T371 640Q409 640 436 630T482 602Q492 593 503 576T515 548Q515 542 507 538Q474 521 461 516T444 510Q438 510 437 516Q414 571 359 571Q338 571 319 564T283 543T257 512T243 473L224 364Q224 359 225 357T232 354H303Q312 354 312 344L303 296Q302 286 291 286H220Q210 286 209 276L188 157Q182 128 148 84Q144 78 144 76Q144 69 154 69H391Q399 69 399 59L391 10Q390 0 379 0H-47Z"  />
<glyph unicode="&#xA4;" horiz-adv-x="613" d="M525 174Q515 163 506 153T485 133L418 199Q368 160 301 160Q276 160 245 168T184 199L117 133L77 174L145 238Q127 263 117 292T106 354Q106 420 145 470Q128 487 111 502T77 535L117 576L184 510Q214 532 245 540T301 548Q329 548 360 539T417 510L485 576Q496 566 505 556T525 535L458 470Q478 443 487 413T496 354Q496 291 458 238L525 174ZM439 355Q439 385 428 410T397 454T353 482T302 492Q272 492 247 481T203 451T174 407T163 355Q163 327 174 302T203 258T247 228T301 217Q329 217 354 228T398 257T428 301T439 355Z"  />
<glyph unicode="&#xA5;" horiz-adv-x="504" d="M167 0Q161 0 160 2T159 10L171 82Q171 92 163 92H10Q4 92 3 94T2 102L10 145Q11 155 21 155H174Q185 155 186 165L201 250Q201 260 193 260H40Q31 260 31 266Q31 268 32 278T39 314Q42 324 51 324H179Q192 324 192 334Q192 336 190 342T178 375T149 454T97 601Q95 607 93 611T91 620Q91 630 104 630H173Q179 630 181 624L256 384Q258 376 263 376Q268 376 274 384L431 624Q435 630 441 630H511Q521 630 521 623Q521 621 517 615L322 339Q318 335 318 330Q318 324 328 324H456Q464 324 464 314L457 270Q454 260 445 260H292Q281 260 280 250L265 165Q265 160 266 158T273 155H426Q435 155 435 145L427 102Q426 92 415 92H262Q253 92 250 82L238 10Q237 0 226 0H167Z"  />
<glyph unicode="&#xA6;" horiz-adv-x="235" d="M92 732H145V367H92V732ZM92 182H145V-183H92V182Z"  />
<glyph unicode="&#xA7;" horiz-adv-x="504" d="M125 -229Q88 -229 62 -220T19 -197Q7 -187 -6 -170T-20 -138Q-20 -132 -11 -127Q24 -109 35 -104T49 -99Q53 -99 57 -105Q68 -133 89 -147T137 -161H180Q202 -161 222 -152T259 -127T286 -90T296 -46Q296 -17 279 2T234 36T177 66T119 99T75 147T57 217Q57 256 70 292T110 358Q114 362 114 365Q114 366 112 370Q104 385 99 401T94 437Q94 480 110 517T154 582T221 624T304 640H321Q359 640 384 631T427 607Q438 597 451 580T465 548Q465 542 457 538Q419 520 408 515T394 510Q389 510 388 516Q377 542 356 556T309 571H292Q271 571 250 562T213 538T186 503T175 460Q175 434 193 417T238 385T296 356T354 321T399 271T417 197Q417 159 406 125T368 64Q361 57 361 53Q361 49 364 43Q378 15 378 -23Q378 -67 363 -105T319 -170T253 -213T168 -229H125ZM334 157Q335 162 335 166T336 174Q336 200 322 218T285 252T234 280T177 310Q173 312 171 312Q167 312 162 307Q148 291 143 275T137 240Q137 217 150 201T186 171T235 144T289 115Q292 113 296 110T305 106Q310 106 315 112T324 127T330 144T334 157Z"  />
<glyph unicode="&#xA8;" horiz-adv-x="500" d="M422 576Q422 555 406 537T366 519Q348 519 337 530T326 559Q326 582 344 597T383 613Q400 613 411 603T422 576ZM263 576Q263 555 247 537T207 519Q189 519 178 530T167 559Q167 582 185 597T224 613Q241 613 252 603T263 576Z"  />
<glyph unicode="&#xA9;" horiz-adv-x="694" d="M191 -70Q118 -70 78 -33T38 65Q38 82 41 100L92 390Q98 427 116 458T161 512T224 547T302 560H482Q555 560 595 523T635 425Q635 408 632 390L581 100Q574 62 556 31T511 -22T448 -57T371 -70H191ZM379 -25Q441 -25 483 9T536 100L587 390Q588 396 588 402T589 415Q589 460 559 487T474 515H294Q232 515 190 481T137 390L86 100Q84 93 84 87T84 75Q84 30 114 3T199 -25H379ZM218 301Q227 355 267 387T366 419Q387 419 405 413T437 398T459 378T467 358Q467 352 461 349Q437 337 431 335T423 332Q419 332 416 337Q406 356 391 365T358 374Q323 374 300 355T271 301L254 202Q252 192 252 187Q252 160 269 144T315 128Q354 128 387 167Q392 172 396 172Q399 172 404 169T427 154Q432 151 432 147Q432 143 429 140Q409 116 379 99T306 82Q255 82 227 108T199 178Q199 184 199 190T201 202L218 301Z"  />
<glyph unicode="&#xAA;" horiz-adv-x="312" d="M231 319Q225 319 225 325L230 355Q230 358 227 360T219 357Q199 336 179 328T143 319Q90 319 62 344T34 414Q34 421 35 427T37 440L51 521Q60 575 99 607T197 640Q214 640 232 632T264 603Q268 598 271 600T276 607L280 633Q282 640 289 640H329Q335 640 335 634Q335 632 334 623T331 609L282 326Q281 319 273 319H231ZM247 520Q248 522 248 526T248 532Q249 555 234 569T194 584Q167 584 146 567T120 523L105 440Q105 438 104 434T103 428Q102 405 117 390T157 374Q170 374 182 379T205 392T223 412T233 436L247 520Z"  />
<glyph unicode="&#xAB;" horiz-adv-x="550" d="M263 242Q260 245 260 250L270 307Q272 312 276 315L494 453Q498 456 503 456Q507 456 507 453T508 445L500 395Q498 390 494 387L337 287Q330 283 330 278Q330 274 334 271L456 170Q459 167 459 162L450 112Q448 101 440 101Q436 101 432 104L263 242ZM44 242Q41 245 41 250L51 307Q53 312 57 315L274 453Q278 456 283 456Q287 456 287 453T288 445L280 395Q278 390 274 387L117 287Q110 283 110 278Q110 274 114 271L236 170Q239 167 239 162L230 112Q228 101 220 101Q216 101 212 104L44 242Z"  />
<glyph unicode="&#xAC;" horiz-adv-x="504" d="M390 120Q384 120 383 122T382 130L411 294Q411 304 403 304H63Q57 304 56 306T54 314L60 347Q61 357 72 357H473Q481 357 481 347L443 130Q442 120 431 120H390Z"  />
<glyph unicode="&#xAD;" horiz-adv-x="255" d="M31 184Q25 184 24 186T23 194L34 253Q35 263 45 263H196Q205 263 205 253L194 194Q193 184 182 184H31Z"  />
<glyph unicode="&#xAE;" horiz-adv-x="414" d="M202 270Q128 270 89 307T49 408Q49 416 50 426T55 460Q61 497 79 528T124 582T188 617T265 630H269Q343 630 382 592T421 491Q421 483 421 473T416 440Q410 402 392 371T347 318T283 283T206 270H202ZM211 300Q245 300 275 310T328 338T366 383T386 440Q389 462 390 470T391 485Q391 537 358 568T264 600H260Q226 600 196 590T143 562T105 517T85 460Q82 438 81 430T80 415Q80 362 112 331T207 300H211ZM167 360Q161 360 160 362T159 370L189 538Q190 548 201 548H264Q289 548 303 535T317 498Q317 495 317 491T315 481Q313 470 304 458T283 438Q275 433 275 429Q275 425 278 418Q288 388 290 380T293 370Q293 360 280 360H264Q258 360 257 366L243 419Q241 425 235 425H210Q199 425 198 415L190 370Q189 360 178 360H167ZM247 453Q261 453 273 464T285 494Q284 505 278 512T259 520H227Q216 520 215 510Q212 494 210 485T208 470T207 463T206 459Q206 453 215 453H247Z"  />
<glyph unicode="&#xAF;" horiz-adv-x="500" d="M186 526Q178 526 178 533Q178 535 181 552T186 584Q189 594 198 594H400Q408 594 408 588Q408 586 407 580T405 565T402 548T400 536Q399 526 388 526H186Z"  />
<glyph unicode="&#xB0;" horiz-adv-x="267" d="M85 545Q92 583 120 606T190 630Q226 630 246 612T266 562Q266 558 266 554T265 545L247 445Q240 407 212 384T142 360Q106 360 86 378T65 427Q65 432 65 436T67 445L85 545ZM195 445Q201 478 204 498T210 529T213 544T214 551Q214 565 205 574T182 583Q165 583 153 572T138 545Q132 511 129 491T123 459T120 444T119 438Q119 425 128 417T151 408Q166 408 179 419T195 445Z"  />
<glyph unicode="&#xB1;" horiz-adv-x="504" d="M208 106Q202 106 201 108T199 116L228 280Q228 290 220 290H56Q50 290 49 292T48 300L54 333Q55 343 66 343H230Q240 343 241 353L270 517Q271 527 282 527H315Q323 527 323 517L294 353Q294 348 295 346T303 343H467Q475 343 475 333L469 300Q468 290 457 290H293Q284 290 281 280L252 116Q251 106 241 106H208ZM5 0Q-1 0 -2 2T-3 10L3 43Q4 53 14 53H415Q424 53 424 43L418 10Q417 0 406 0H5Z"  />
<glyph unicode="&#xB2;" horiz-adv-x="302" d="M46 377Q41 377 41 381Q41 383 42 391T49 425Q55 455 67 474T97 507T133 528T173 542Q184 545 199 549T229 560T252 578T262 607Q262 624 250 636T213 648H187Q172 648 155 639T125 612Q122 608 119 608Q117 608 110 611T100 617L76 629Q73 630 73 634Q73 638 78 644T90 658T106 671T122 683Q153 702 197 702H223Q273 702 299 679T325 617Q325 612 325 606T323 595Q318 568 305 552T273 526T233 509T193 496Q163 485 141 475T116 443L115 434Q115 431 121 431H284Q289 431 289 428Q289 425 287 414T281 383Q280 377 274 377H46Z"  />
<glyph unicode="&#xB3;" horiz-adv-x="302" d="M134 371Q108 371 91 377T62 392Q55 398 48 408T40 429Q40 436 51 440L71 448Q76 450 81 452T88 454Q94 454 98 447Q111 425 141 425H160Q183 425 202 436T225 463L230 485Q230 498 217 506T184 514H139Q127 514 127 520Q127 522 130 534T135 557Q137 568 146 568H192Q215 568 233 578T257 604Q258 606 258 608T259 615Q259 629 247 638T215 647H197Q182 647 167 642T140 624Q136 620 131 620Q126 620 116 625L97 633Q88 637 88 643Q88 651 100 662T120 679Q137 689 157 695T204 701H222Q267 701 293 682T319 628Q319 622 318 616T314 598Q309 582 299 570T275 549Q270 547 267 544T263 539Q263 538 271 530Q288 513 288 488Q288 485 288 481T284 463Q273 420 238 396T152 371H134Z"  />
<glyph unicode="&#xB4;" horiz-adv-x="500" d="M263 509Q253 509 253 515Q253 519 258 524L349 634Q357 642 364 642H440Q450 642 450 635Q450 629 444 625L307 515Q304 512 299 511T290 509H263Z"  />
<glyph unicode="&#xB5;" horiz-adv-x="492" d="M-7 -160Q-13 -160 -14 -158T-15 -150L88 436Q89 446 100 446H159Q167 446 167 436L119 167Q118 162 118 159T117 151Q117 116 140 93T200 69Q220 69 239 76T274 97T301 128T316 167L364 436Q365 446 376 446H434Q442 446 442 436L367 10Q366 0 355 0H307Q301 0 300 2T299 10L304 38Q304 43 303 46T296 50Q292 50 287 45Q263 21 237 11T188 0Q170 0 154 2T124 10Q119 12 112 15T100 19Q94 19 92 11L64 -150Q63 -160 52 -160H-7Z"  />
<glyph unicode="&#xB6;" horiz-adv-x="612" d="M188 -225Q182 -225 181 -223T180 -215L232 82Q232 92 224 92H197Q125 92 86 129T47 226Q47 242 50 259L84 453Q91 493 109 525T155 581T216 617T292 630H582Q590 630 590 620L443 -215Q442 -225 431 -225H372Q366 -225 365 -223T364 -215L499 551Q499 561 491 561H406Q395 561 394 551L259 -215Q258 -225 247 -225H188Z"  />
<glyph unicode="&#xB7;" horiz-adv-x="504" d="M305 247Q305 235 300 224T286 205T266 191T242 186Q223 186 211 198T199 229Q199 252 217 271T260 290Q280 290 292 278T305 247Z"  />
<glyph unicode="&#xB8;" horiz-adv-x="500" d="M90 -229Q84 -229 83 -227T82 -219L87 -191Q88 -181 99 -181H141Q158 -181 171 -170T188 -141L190 -129Q190 -111 181 -104T143 -90Q138 -88 138 -84Q138 -83 140 -79T148 -65T167 -35T202 18Q206 24 214 24L245 18Q251 16 251 11Q251 10 249 4L214 -50Q211 -53 211 -57Q211 -59 215 -63Q248 -81 248 -114Q248 -119 248 -124T245 -141Q237 -181 205 -205T132 -229H90Z"  />
<glyph unicode="&#xB9;" horiz-adv-x="302" d="M54 376Q49 376 49 382L57 424Q57 430 64 430H131Q138 430 139 437Q147 483 152 511T160 556T164 579T165 587Q165 592 161 592Q159 592 156 589L123 563Q113 555 111 555Q108 555 104 560L88 578Q81 587 81 589Q81 591 84 594L210 699Q212 701 217 701H242Q246 701 246 697Q246 695 246 691T244 682Q229 594 220 545T207 472T202 442T201 435Q201 430 208 430H274Q279 430 279 424L271 382Q271 376 264 376H54Z"  />
<glyph unicode="&#xBA;" horiz-adv-x="315" d="M62 520Q71 574 112 607T213 640Q265 640 295 614T325 543Q325 540 325 536T323 520T317 487T307 427Q297 373 255 340T154 306Q100 306 72 332T44 403Q44 406 44 410T46 426T51 460T62 520ZM242 427Q248 463 251 483T256 514T258 528T259 533Q259 557 243 571T203 585Q174 585 153 568T126 520Q119 483 116 463T111 432T109 418T108 414Q108 389 123 375T163 360Q191 360 214 379T242 427Z"  />
<glyph unicode="&#xBB;" horiz-adv-x="550" d="M420 271Q427 276 427 280Q427 283 423 287L300 387Q297 388 297 392Q297 394 299 406T306 445Q308 456 316 456Q319 456 324 453L492 316Q495 313 495 307L485 250Q485 247 480 242L262 104Q256 101 253 101Q247 101 247 108Q247 111 249 125T257 162Q259 168 262 170L420 271ZM200 271Q207 276 207 280Q207 283 203 287L80 387Q77 388 77 392Q77 395 79 406T86 445Q88 456 96 456Q99 456 104 453L273 316Q276 313 276 307L266 250Q266 247 261 242L42 104Q36 101 33 101Q27 101 27 108Q27 110 29 125T37 162Q39 168 42 170L200 271Z"  />
<glyph unicode="&#xBC;" horiz-adv-x="760" d="M42 305Q37 305 37 311L45 353Q45 359 52 359H119Q126 359 127 366Q135 412 140 440T148 485T152 508T153 516Q153 521 149 521Q147 521 144 518L111 492Q101 484 99 484Q96 484 92 489L76 507Q69 516 69 518Q69 520 72 523L198 628Q200 630 205 630H230Q234 630 234 626Q234 624 234 620T232 611Q217 523 208 474T195 401T190 371T189 364Q189 359 196 359H262Q267 359 267 353L259 311Q259 305 252 305H42ZM207 0Q192 0 200 14L569 624Q573 630 579 630H603Q618 630 610 616L241 6Q238 0 231 0H207ZM577 0Q568 0 568 7Q568 10 570 18T574 35T578 52T580 64Q580 69 572 69H450Q439 69 439 79Q439 82 442 95T448 122L633 315Q638 320 642 320H687Q695 320 695 314Q695 310 692 298Q678 240 671 207T660 157T655 134T654 128Q654 123 662 123H698Q707 123 707 118Q707 116 705 105T698 76Q697 69 687 69H649Q644 69 643 67T639 60L627 8Q625 0 618 0H577ZM584 123Q590 123 591 125T595 132L618 233L623 245L621 246Q620 244 619 241T615 235L519 138Q517 136 513 132T509 126Q509 123 518 123H584Z"  />
<glyph unicode="&#xBD;" horiz-adv-x="760" d="M42 305Q37 305 37 311L45 353Q45 359 52 359H119Q126 359 127 366Q135 412 140 440T148 485T152 508T153 516Q153 521 149 521Q147 521 144 518L111 492Q101 484 99 484Q96 484 92 489L76 507Q69 516 69 518Q69 520 72 523L198 628Q200 630 205 630H230Q234 630 234 626Q234 624 234 620T232 611Q217 523 208 474T195 401T190 371T189 364Q189 359 196 359H262Q267 359 267 353L259 311Q259 305 252 305H42ZM439 1Q434 1 434 5Q434 7 435 15T442 49Q448 79 460 98T490 131T526 152T566 166Q577 169 592 173T622 184T645 202T655 231Q655 248 643 260T606 272H580Q565 272 548 263T518 236Q515 232 512 232Q510 232 503 235T493 241L469 253Q466 254 466 258Q466 262 471 268T483 282T499 295T515 307Q546 326 590 326H616Q666 326 692 303T718 241Q718 236 718 230T716 219Q711 192 698 176T666 150T626 133T586 120Q556 109 534 99T509 67L508 58Q508 55 514 55H677Q682 55 682 52Q682 49 680 38T674 7Q673 1 667 1H439ZM177 0Q162 0 170 14L539 624Q543 630 549 630H573Q588 630 580 616L211 6Q208 0 201 0H177Z"  />
<glyph unicode="&#xBE;" horiz-adv-x="760" d="M122 300Q96 300 79 306T50 321Q43 327 36 337T28 358Q28 365 39 369L59 377Q64 379 69 381T76 383Q82 383 86 376Q99 354 129 354H148Q171 354 190 365T213 392L218 414Q218 427 205 435T172 443H127Q115 443 115 449Q115 451 118 463T123 486Q125 497 134 497H180Q203 497 221 507T245 533Q246 535 246 537T247 544Q247 558 235 567T203 576H185Q170 576 155 571T128 553Q124 549 119 549Q114 549 104 554L85 562Q76 566 76 572Q76 580 88 591T108 608Q125 618 145 624T192 630H210Q255 630 281 611T307 557Q307 551 306 545T302 527Q297 511 287 499T263 478Q258 476 255 473T251 468Q251 467 259 459Q276 442 276 417Q276 414 276 410T272 392Q261 349 226 325T140 300H122ZM577 0Q568 0 568 7Q568 10 570 18T574 35T578 52T580 64Q580 69 572 69H450Q439 69 439 79Q439 82 442 95T448 122L633 315Q638 320 642 320H687Q695 320 695 314Q695 310 692 298Q678 240 671 207T660 157T655 134T654 128Q654 123 662 123H698Q707 123 707 118Q707 116 705 105T698 76Q697 69 687 69H649Q644 69 643 67T639 60L627 8Q625 0 618 0H577ZM584 123Q590 123 591 125T595 132L618 233L623 245L621 246Q620 244 619 241T615 235L519 138Q517 136 513 132T509 126Q509 123 518 123H584ZM197 0Q182 0 190 14L559 624Q563 630 569 630H593Q608 630 600 616L231 6Q228 0 221 0H197Z"  />
<glyph unicode="&#xBF;" horiz-adv-x="496" d="M351 407Q347 385 330 370T290 355Q270 355 258 367T246 398Q246 423 265 441T308 459Q327 459 339 447T352 416Q352 414 352 412T351 407ZM151 -194Q79 -194 40 -157T0 -60Q0 -44 3 -26Q12 22 31 51T76 99T128 127T180 150T221 179T245 227Q245 229 245 235T246 247T250 258T259 263H317Q326 263 326 254Q324 240 324 230T321 212Q314 171 294 147T246 106T190 78T137 52T96 15T80 -43Q80 -78 103 -101T163 -125H202Q228 -125 254 -110T301 -68Q306 -63 310 -63Q313 -63 315 -64L362 -91Q367 -94 367 -98Q367 -102 364 -105Q351 -123 335 -139T298 -168T251 -187T190 -194H151Z"  />
<glyph unicode="&#xC0;" horiz-adv-x="441" d="M-44 0Q-54 0 -54 7Q-54 9 -52 13L242 623Q245 630 253 630H299Q307 630 308 623L385 13V11Q385 0 373 0H310Q302 0 301 7L287 142Q287 148 278 148H98Q89 148 87 142L25 7Q22 0 14 0H-44ZM264 217Q277 217 277 228V230L259 452Q257 468 257 483T257 509V524H254Q250 513 246 502Q242 492 238 479T227 452L128 230Q126 226 126 224Q126 217 135 217H264ZM272 695Q263 695 257 701L160 811Q157 814 157 818Q157 828 170 828H246Q253 828 257 820L310 710Q311 708 311 704Q311 695 299 695H272Z"  />
<glyph unicode="&#xC1;" horiz-adv-x="441" d="M-44 0Q-54 0 -54 7Q-54 9 -52 13L242 623Q245 630 253 630H299Q307 630 308 623L385 13V11Q385 0 373 0H310Q302 0 301 7L287 142Q287 148 278 148H98Q89 148 87 142L25 7Q22 0 14 0H-44ZM264 217Q277 217 277 228V230L259 452Q257 468 257 483T257 509V524H254Q250 513 246 502Q242 492 238 479T227 452L128 230Q126 226 126 224Q126 217 135 217H264ZM263 695Q253 695 253 701Q253 705 258 710L349 820Q357 828 364 828H440Q450 828 450 821Q450 815 444 811L307 701Q304 698 299 697T290 695H263Z"  />
<glyph unicode="&#xC2;" horiz-adv-x="441" d="M-44 0Q-54 0 -54 7Q-54 9 -52 13L242 623Q245 630 253 630H299Q307 630 308 623L385 13V11Q385 0 373 0H310Q302 0 301 7L287 142Q287 148 278 148H98Q89 148 87 142L25 7Q22 0 14 0H-44ZM264 217Q277 217 277 228V230L259 452Q257 468 257 483T257 509V524H254Q250 513 246 502Q242 492 238 479T227 452L128 230Q126 226 126 224Q126 217 135 217H264ZM190 693Q180 693 180 699Q180 704 185 709L290 824Q296 828 299 828H332Q337 828 339 824L404 709Q405 707 405 702Q405 693 393 693H352Q348 693 345 698L313 763Q310 768 306 768Q302 768 297 763L240 698Q237 693 231 693H190Z"  />
<glyph unicode="&#xC3;" horiz-adv-x="441" d="M-44 0Q-54 0 -54 7Q-54 9 -52 13L242 623Q245 630 253 630H299Q307 630 308 623L385 13V11Q385 0 373 0H310Q302 0 301 7L287 142Q287 148 278 148H98Q89 148 87 142L25 7Q22 0 14 0H-44ZM264 217Q277 217 277 228V230L259 452Q257 468 257 483T257 509V524H254Q250 513 246 502Q242 492 238 479T227 452L128 230Q126 226 126 224Q126 217 135 217H264ZM166 735Q162 738 162 741Q162 745 165 748Q190 780 212 795T258 810Q274 810 287 805T315 787L332 771Q339 764 349 761T370 758Q396 758 427 786Q431 790 434 790Q437 790 440 787L453 776Q456 773 456 769Q456 767 454 763Q405 699 359 699Q344 699 331 705T302 724L284 738Q276 744 267 748T248 752Q236 752 223 746T193 725Q188 720 185 720Q183 720 180 723L166 735Z"  />
<glyph unicode="&#xC4;" horiz-adv-x="441" d="M-44 0Q-54 0 -54 7Q-54 9 -52 13L242 623Q245 630 253 630H299Q307 630 308 623L385 13V11Q385 0 373 0H310Q302 0 301 7L287 142Q287 148 278 148H98Q89 148 87 142L25 7Q22 0 14 0H-44ZM264 217Q277 217 277 228V230L259 452Q257 468 257 483T257 509V524H254Q250 513 246 502Q242 492 238 479T227 452L128 230Q126 226 126 224Q126 217 135 217H264ZM431 756Q431 735 415 717T375 699Q357 699 346 710T335 739Q335 762 353 777T392 793Q409 793 420 783T431 756ZM272 756Q272 735 256 717T216 699Q198 699 187 710T176 739Q176 762 194 777T233 793Q250 793 261 783T272 756Z"  />
<glyph unicode="&#xC5;" horiz-adv-x="441" d="M-44 0Q-54 0 -54 7Q-54 9 -52 13L242 623Q245 630 253 630H299Q307 630 308 623L385 13V11Q385 0 373 0H310Q302 0 301 7L287 142Q287 148 278 148H98Q89 148 87 142L25 7Q22 0 14 0H-44ZM264 217Q277 217 277 228V230L259 452Q257 468 257 483T257 509V524H254Q250 513 246 502Q242 492 238 479T227 452L128 230Q126 226 126 224Q126 217 135 217H264ZM370 671Q364 636 337 613T270 590Q235 590 216 608T197 655Q197 659 198 666T204 701Q210 736 237 758T303 781Q337 781 356 764T376 717Q376 713 376 706T370 671ZM332 671Q338 707 338 709Q338 726 327 736T297 746Q277 746 261 734T242 701Q237 676 237 670T236 662Q236 645 247 635T276 625Q296 625 312 638T332 671Z"  />
<glyph unicode="&#xC6;" horiz-adv-x="686" d="M-100 0Q-110 0 -110 6Q-110 11 -106 15L361 625Q366 630 371 630H699Q707 630 707 620L699 571Q696 561 687 561H431Q420 561 419 551L386 364Q386 359 387 357T394 354H604Q613 354 613 344L604 295Q603 285 592 285H382Q373 285 370 275L336 79Q336 74 337 72T344 69H600Q608 69 608 59L600 10Q599 0 588 0H254Q248 0 247 2T246 10L270 138Q270 148 261 148H82Q75 148 71 144L-30 5Q-33 0 -40 0H-100ZM272 217Q283 217 284 227L311 380Q316 411 320 431T327 465T331 485T334 495H331Q329 492 322 479T295 440L139 232Q135 228 135 223Q135 217 145 217H272Z"  />
<glyph unicode="&#xC7;" horiz-adv-x="461" d="M58 -229Q52 -229 51 -227T49 -219L54 -191Q57 -181 66 -181H108Q125 -181 138 -170T155 -141Q158 -126 158 -124Q158 -111 148 -104T124 -93L110 -90Q105 -88 105 -84Q105 -80 108 -76T113 -68Q135 -34 141 -25T148 -12Q148 -8 143 -7Q89 3 60 37T31 123Q31 139 34 157L89 473Q95 510 113 541T158 594T220 628T296 640H327Q390 640 421 617T467 560Q468 558 469 555T471 548Q471 542 463 538Q424 521 413 516T400 510Q395 510 394 516Q383 542 362 556T315 571H284Q263 571 244 564T209 543T182 512T168 473L113 157Q112 152 112 149T111 140Q111 105 134 82T193 59H224Q250 59 276 73T323 116Q328 121 332 121Q334 121 345 116T385 93Q390 90 390 87Q390 84 387 80Q375 62 359 46T323 18T276 -1T218 -10Q207 -10 202 -18L181 -50Q179 -54 179 -57Q179 -60 183 -63Q216 -81 216 -114Q216 -119 216 -123T214 -132L212 -141Q203 -180 172 -204T100 -229H58Z"  />
<glyph unicode="&#xC8;" horiz-adv-x="444" d="M172 -10Q101 -10 61 25T21 124Q21 145 25 165L31 196Q35 217 46 236T71 272T101 301T131 320Q135 324 135 326Q135 328 133 330Q110 341 92 368T73 430Q73 435 73 439T75 448L78 466Q85 506 103 538T148 593T211 628T287 640H317Q350 640 374 633T415 614T443 586T460 552Q460 550 460 550T461 548Q461 541 454 538L396 511Q394 510 391 510Q385 510 384 516Q373 544 352 557T305 571H275Q255 571 235 564T199 543T172 512T158 473L156 458Q155 454 155 451T155 444Q155 407 177 383T237 359H312Q321 359 321 351Q321 349 320 343T318 329T315 313T312 301Q311 291 300 291H225Q205 291 186 283T151 262T124 231T109 193L103 157Q102 153 102 149T102 141Q102 106 125 83T184 59H214Q240 59 266 73T313 115Q317 121 322 121Q325 121 327 120L374 93Q379 90 379 86Q379 84 377 80Q352 43 311 17T202 -10H172ZM293 695Q284 695 278 701L181 811Q178 814 178 818Q178 828 191 828H267Q274 828 278 820L331 710Q332 708 332 704Q332 695 320 695H293Z"  />
<glyph unicode="&#xC9;" horiz-adv-x="444" d="M172 -10Q101 -10 61 25T21 124Q21 145 25 165L31 196Q35 217 46 236T71 272T101 301T131 320Q135 324 135 326Q135 328 133 330Q110 341 92 368T73 430Q73 435 73 439T75 448L78 466Q85 506 103 538T148 593T211 628T287 640H317Q350 640 374 633T415 614T443 586T460 552Q460 550 460 550T461 548Q461 541 454 538L396 511Q394 510 391 510Q385 510 384 516Q373 544 352 557T305 571H275Q255 571 235 564T199 543T172 512T158 473L156 458Q155 454 155 451T155 444Q155 407 177 383T237 359H312Q321 359 321 351Q321 349 320 343T318 329T315 313T312 301Q311 291 300 291H225Q205 291 186 283T151 262T124 231T109 193L103 157Q102 153 102 149T102 141Q102 106 125 83T184 59H214Q240 59 266 73T313 115Q317 121 322 121Q325 121 327 120L374 93Q379 90 379 86Q379 84 377 80Q352 43 311 17T202 -10H172ZM274 695Q264 695 264 701Q264 705 269 710L360 820Q368 828 375 828H451Q461 828 461 821Q461 815 455 811L318 701Q315 698 310 697T301 695H274Z"  />
<glyph unicode="&#xCA;" horiz-adv-x="444" d="M172 -10Q101 -10 61 25T21 124Q21 145 25 165L31 196Q35 217 46 236T71 272T101 301T131 320Q135 324 135 326Q135 328 133 330Q110 341 92 368T73 430Q73 435 73 439T75 448L78 466Q85 506 103 538T148 593T211 628T287 640H317Q350 640 374 633T415 614T443 586T460 552Q460 550 460 550T461 548Q461 541 454 538L396 511Q394 510 391 510Q385 510 384 516Q373 544 352 557T305 571H275Q255 571 235 564T199 543T172 512T158 473L156 458Q155 454 155 451T155 444Q155 407 177 383T237 359H312Q321 359 321 351Q321 349 320 343T318 329T315 313T312 301Q311 291 300 291H225Q205 291 186 283T151 262T124 231T109 193L103 157Q102 153 102 149T102 141Q102 106 125 83T184 59H214Q240 59 266 73T313 115Q317 121 322 121Q325 121 327 120L374 93Q379 90 379 86Q379 84 377 80Q352 43 311 17T202 -10H172ZM212 693Q202 693 202 699Q202 704 207 709L312 824Q318 828 321 828H354Q359 828 361 824L426 709Q427 707 427 702Q427 693 415 693H374Q370 693 367 698L335 763Q332 768 328 768Q324 768 319 763L262 698Q259 693 253 693H212Z"  />
<glyph unicode="&#xCB;" horiz-adv-x="444" d="M172 -10Q101 -10 61 25T21 124Q21 145 25 165L31 196Q35 217 46 236T71 272T101 301T131 320Q135 324 135 326Q135 328 133 330Q110 341 92 368T73 430Q73 435 73 439T75 448L78 466Q85 506 103 538T148 593T211 628T287 640H317Q350 640 374 633T415 614T443 586T460 552Q460 550 460 550T461 548Q461 541 454 538L396 511Q394 510 391 510Q385 510 384 516Q373 544 352 557T305 571H275Q255 571 235 564T199 543T172 512T158 473L156 458Q155 454 155 451T155 444Q155 407 177 383T237 359H312Q321 359 321 351Q321 349 320 343T318 329T315 313T312 301Q311 291 300 291H225Q205 291 186 283T151 262T124 231T109 193L103 157Q102 153 102 149T102 141Q102 106 125 83T184 59H214Q240 59 266 73T313 115Q317 121 322 121Q325 121 327 120L374 93Q379 90 379 86Q379 84 377 80Q352 43 311 17T202 -10H172ZM453 756Q453 735 437 717T397 699Q379 699 368 710T357 739Q357 762 375 777T414 793Q431 793 442 783T453 756ZM294 756Q294 735 278 717T238 699Q220 699 209 710T198 739Q198 762 216 777T255 793Q272 793 283 783T294 756Z"  />
<glyph unicode="&#xCC;" horiz-adv-x="232" d="M31 0Q23 0 23 7Q23 8 24 12T28 36T38 94T56 200T86 370T130 620Q133 630 142 630H200Q208 630 208 624Q208 623 207 618T203 592T193 533T174 425T144 256T101 10Q100 0 89 0H31ZM168 695Q159 695 153 701L56 811Q53 814 53 818Q53 828 66 828H142Q149 828 153 820L206 710Q207 708 207 704Q207 695 195 695H168Z"  />
<glyph unicode="&#xCD;" horiz-adv-x="232" d="M31 0Q23 0 23 7Q23 8 24 12T28 36T38 94T56 200T86 370T130 620Q133 630 142 630H200Q208 630 208 624Q208 623 207 618T203 592T193 533T174 425T144 256T101 10Q100 0 89 0H31ZM159 695Q149 695 149 701Q149 705 154 710L245 820Q253 828 260 828H336Q346 828 346 821Q346 815 340 811L203 701Q200 698 195 697T186 695H159Z"  />
<glyph unicode="&#xCE;" horiz-adv-x="232" d="M31 0Q23 0 23 7Q23 8 24 12T28 36T38 94T56 200T86 370T130 620Q133 630 142 630H200Q208 630 208 624Q208 623 207 618T203 592T193 533T174 425T144 256T101 10Q100 0 89 0H31ZM87 693Q77 693 77 699Q77 704 82 709L187 824Q193 828 196 828H229Q234 828 236 824L301 709Q302 707 302 702Q302 693 290 693H249Q245 693 242 698L210 763Q207 768 203 768Q199 768 194 763L137 698Q134 693 128 693H87Z"  />
<glyph unicode="&#xCF;" horiz-adv-x="232" d="M31 0Q23 0 23 7Q23 8 24 12T28 36T38 94T56 200T86 370T130 620Q133 630 142 630H200Q208 630 208 624Q208 623 207 618T203 592T193 533T174 425T144 256T101 10Q100 0 89 0H31ZM328 756Q328 735 312 717T272 699Q254 699 243 710T232 739Q232 762 250 777T289 793Q306 793 317 783T328 756ZM169 756Q169 735 153 717T113 699Q95 699 84 710T73 739Q73 762 91 777T130 793Q147 793 158 783T169 756Z"  />
<glyph unicode="&#xD0;" horiz-adv-x="523" d="M30 0Q24 0 23 2T22 10L68 271Q68 280 61 280H19Q13 280 12 282T11 290L20 338Q21 348 31 348H73Q82 348 83 356L129 620Q132 630 141 630H338Q409 630 448 593T488 492Q486 483 486 474T485 453L436 178Q429 137 411 104T365 48T303 13T227 0H30ZM239 69Q281 69 314 97T355 167L408 463Q409 468 409 479Q409 513 386 537T326 561H208Q197 561 196 551L162 357Q162 353 162 351T168 348H241Q250 348 250 338L241 290Q240 280 229 280H156Q149 280 147 272L113 79Q113 74 114 72T121 69H239Z"  />
<glyph unicode="&#xD1;" horiz-adv-x="554" d="M31 0Q25 0 24 2T23 10L130 620Q133 630 142 630H197Q203 630 205 625L360 208Q362 201 365 188T370 165H373Q375 180 379 208T390 270T402 339T413 405L451 620Q454 630 463 630H522Q530 630 530 620L423 10Q422 0 411 0H355Q349 0 347 5L192 419Q188 428 186 441T181 466H178Q176 452 172 428T163 371T152 300T138 222L101 10Q100 0 89 0H31ZM223 735Q219 738 219 741Q219 745 222 748Q247 780 269 795T315 810Q331 810 344 805T372 787L389 771Q396 764 406 761T427 758Q453 758 484 786Q488 790 491 790Q494 790 497 787L510 776Q513 773 513 769Q513 767 511 763Q462 699 416 699Q401 699 388 705T359 724L341 738Q333 744 324 748T305 752Q293 752 280 746T250 725Q245 720 242 720Q240 720 237 723L223 735Z"  />
<glyph unicode="&#xD2;" horiz-adv-x="509" d="M181 -10Q109 -10 70 26T31 123Q31 139 34 157L89 473Q95 510 113 541T158 594T220 628T296 640H327Q399 640 438 604T477 507Q477 491 474 473L419 157Q413 120 395 89T350 36T288 2T212 -10H181ZM224 59Q244 59 263 66T298 87T325 119T340 157L395 473Q396 478 396 482T397 491Q397 526 374 548T315 571H284Q242 571 209 543T168 473L113 157Q112 152 112 149T111 140Q111 105 134 82T193 59H224ZM305 695Q296 695 290 701L193 811Q190 814 190 818Q190 828 203 828H279Q286 828 290 820L343 710Q344 708 344 704Q344 695 332 695H305Z"  />
<glyph unicode="&#xD3;" horiz-adv-x="509" d="M181 -10Q109 -10 70 26T31 123Q31 139 34 157L89 473Q95 510 113 541T158 594T220 628T296 640H327Q399 640 438 604T477 507Q477 491 474 473L419 157Q413 120 395 89T350 36T288 2T212 -10H181ZM224 59Q244 59 263 66T298 87T325 119T340 157L395 473Q396 478 396 482T397 491Q397 526 374 548T315 571H284Q242 571 209 543T168 473L113 157Q112 152 112 149T111 140Q111 105 134 82T193 59H224ZM296 695Q286 695 286 701Q286 705 291 710L382 820Q390 828 397 828H473Q483 828 483 821Q483 815 477 811L340 701Q337 698 332 697T323 695H296Z"  />
<glyph unicode="&#xD4;" horiz-adv-x="509" d="M181 -10Q109 -10 70 26T31 123Q31 139 34 157L89 473Q95 510 113 541T158 594T220 628T296 640H327Q399 640 438 604T477 507Q477 491 474 473L419 157Q413 120 395 89T350 36T288 2T212 -10H181ZM224 59Q244 59 263 66T298 87T325 119T340 157L395 473Q396 478 396 482T397 491Q397 526 374 548T315 571H284Q242 571 209 543T168 473L113 157Q112 152 112 149T111 140Q111 105 134 82T193 59H224ZM224 693Q214 693 214 699Q214 704 219 709L324 824Q330 828 333 828H366Q371 828 373 824L438 709Q439 707 439 702Q439 693 427 693H386Q382 693 379 698L347 763Q344 768 340 768Q336 768 331 763L274 698Q271 693 265 693H224Z"  />
<glyph unicode="&#xD5;" horiz-adv-x="509" d="M181 -10Q109 -10 70 26T31 123Q31 139 34 157L89 473Q95 510 113 541T158 594T220 628T296 640H327Q399 640 438 604T477 507Q477 491 474 473L419 157Q413 120 395 89T350 36T288 2T212 -10H181ZM224 59Q244 59 263 66T298 87T325 119T340 157L395 473Q396 478 396 482T397 491Q397 526 374 548T315 571H284Q242 571 209 543T168 473L113 157Q112 152 112 149T111 140Q111 105 134 82T193 59H224ZM200 735Q196 738 196 741Q196 745 199 748Q224 780 246 795T292 810Q308 810 321 805T349 787L366 771Q373 764 383 761T404 758Q430 758 461 786Q465 790 468 790Q471 790 474 787L487 776Q490 773 490 769Q490 767 488 763Q439 699 393 699Q378 699 365 705T336 724L318 738Q310 744 301 748T282 752Q270 752 257 746T227 725Q222 720 219 720Q217 720 214 723L200 735Z"  />
<glyph unicode="&#xD6;" horiz-adv-x="509" d="M181 -10Q109 -10 70 26T31 123Q31 139 34 157L89 473Q95 510 113 541T158 594T220 628T296 640H327Q399 640 438 604T477 507Q477 491 474 473L419 157Q413 120 395 89T350 36T288 2T212 -10H181ZM224 59Q244 59 263 66T298 87T325 119T340 157L395 473Q396 478 396 482T397 491Q397 526 374 548T315 571H284Q242 571 209 543T168 473L113 157Q112 152 112 149T111 140Q111 105 134 82T193 59H224ZM465 756Q465 735 449 717T409 699Q391 699 380 710T369 739Q369 762 387 777T426 793Q443 793 454 783T465 756ZM306 756Q306 735 290 717T250 699Q232 699 221 710T210 739Q210 762 228 777T267 793Q284 793 295 783T306 756Z"  />
<glyph unicode="&#xD7;" horiz-adv-x="504" d="M51 87Q48 90 48 93Q48 96 53 101L209 234Q214 239 214 243Q214 245 212 249L105 379Q102 382 102 385Q102 389 107 393L128 411Q134 415 136 415Q139 415 143 411L250 281Q253 277 256 277Q260 277 264 281L420 413Q426 417 428 417Q430 417 434 413L453 390Q456 387 456 384Q456 381 451 376L295 243Q289 238 289 234Q289 231 292 228L399 98Q402 95 402 92Q402 89 397 84L376 67Q372 63 368 63Q364 63 361 67L254 197Q250 201 248 201Q246 201 240 197L84 64Q80 60 76 60Q73 60 70 64L51 87Z"  />
<glyph unicode="&#xD8;" horiz-adv-x="509" d="M181 -10Q109 -10 70 26T31 123Q31 139 34 157L89 473Q95 510 113 541T158 594T220 628T296 640H327Q399 640 438 604T477 507Q477 491 474 473L419 157Q413 120 395 89T350 36T288 2T212 -10H181ZM369 542Q370 544 370 548Q370 554 364 558T349 565T331 569T315 571H284Q263 571 244 564T209 543T182 512T168 473L113 156Q112 151 112 144Q114 139 118 139Q124 139 128 146L369 542ZM224 59Q244 59 263 66T298 87T325 119T340 157L395 472Q397 482 397 492Q395 498 392 498Q389 498 386 493L141 88Q139 85 139 81Q139 77 144 73T157 66T174 61T193 59H224Z"  />
<glyph unicode="&#xD9;" horiz-adv-x="529" d="M191 -10Q119 -10 80 26T41 123Q41 139 44 157L125 620Q128 630 137 630H196Q204 630 204 620L123 157Q122 152 122 149T121 140Q121 105 144 82T203 59H234Q254 59 273 66T308 87T335 119T350 157L431 620Q434 630 443 630H502Q510 630 510 620L429 157Q423 120 405 90T360 37T298 3T222 -10H191ZM315 695Q306 695 300 701L203 811Q200 814 200 818Q200 828 213 828H289Q296 828 300 820L353 710Q354 708 354 704Q354 695 342 695H315Z"  />
<glyph unicode="&#xDA;" horiz-adv-x="529" d="M191 -10Q119 -10 80 26T41 123Q41 139 44 157L125 620Q128 630 137 630H196Q204 630 204 620L123 157Q122 152 122 149T121 140Q121 105 144 82T203 59H234Q254 59 273 66T308 87T335 119T350 157L431 620Q434 630 443 630H502Q510 630 510 620L429 157Q423 120 405 90T360 37T298 3T222 -10H191ZM306 695Q296 695 296 701Q296 705 301 710L392 820Q400 828 407 828H483Q493 828 493 821Q493 815 487 811L350 701Q347 698 342 697T333 695H306Z"  />
<glyph unicode="&#xDB;" horiz-adv-x="529" d="M191 -10Q119 -10 80 26T41 123Q41 139 44 157L125 620Q128 630 137 630H196Q204 630 204 620L123 157Q122 152 122 149T121 140Q121 105 144 82T203 59H234Q254 59 273 66T308 87T335 119T350 157L431 620Q434 630 443 630H502Q510 630 510 620L429 157Q423 120 405 90T360 37T298 3T222 -10H191ZM234 693Q224 693 224 699Q224 704 229 709L334 824Q340 828 343 828H376Q381 828 383 824L448 709Q449 707 449 702Q449 693 437 693H396Q392 693 389 698L357 763Q354 768 350 768Q346 768 341 763L284 698Q281 693 275 693H234Z"  />
<glyph unicode="&#xDC;" horiz-adv-x="529" d="M191 -10Q119 -10 80 26T41 123Q41 139 44 157L125 620Q128 630 137 630H196Q204 630 204 620L123 157Q122 152 122 149T121 140Q121 105 144 82T203 59H234Q254 59 273 66T308 87T335 119T350 157L431 620Q434 630 443 630H502Q510 630 510 620L429 157Q423 120 405 90T360 37T298 3T222 -10H191ZM475 756Q475 735 459 717T419 699Q401 699 390 710T379 739Q379 762 397 777T436 793Q453 793 464 783T475 756ZM316 756Q316 735 300 717T260 699Q242 699 231 710T220 739Q220 762 238 777T277 793Q294 793 305 783T316 756Z"  />
<glyph unicode="&#xDD;" horiz-adv-x="411" d="M120 0Q114 0 113 2T112 10L161 290L45 615Q44 617 44 620Q44 630 57 630H127Q133 630 135 624L209 384Q211 376 216 376Q221 376 227 384L385 624Q389 630 395 630H464Q474 630 474 623Q474 621 470 615L240 290L191 10Q190 0 179 0H120ZM248 695Q238 695 238 701Q238 705 243 710L334 820Q342 828 349 828H425Q435 828 435 821Q435 815 429 811L292 701Q289 698 284 697T275 695H248Z"  />
<glyph unicode="&#xDE;" horiz-adv-x="468" d="M31 0Q25 0 24 2T23 10L130 620Q133 630 142 630H200Q208 630 208 620Q202 588 199 569T193 538T191 522T190 516Q190 510 198 510H318Q389 510 428 473T467 372Q467 354 464 333Q458 297 440 267T395 214T333 178T257 165H138Q129 165 126 155L101 10Q100 0 89 0H31ZM269 234Q290 234 310 241T346 262T373 294T386 333L387 343Q387 385 368 413T306 441H187Q176 441 175 431L142 244Q142 239 143 237T150 234H269Z"  />
<glyph unicode="&#xDF;" horiz-adv-x="481" d="M107 463Q113 500 131 532T177 588T240 626T315 640Q385 640 425 604T465 504Q465 482 461 463L457 443Q450 408 425 377T368 328Q360 324 360 318Q360 313 365 311Q388 296 401 272T415 217Q415 211 414 201T408 165Q393 84 336 38Q314 20 282 6T215 -9Q210 -9 209 -6T208 1L217 51Q219 59 227 61Q267 69 294 95T328 157Q333 184 333 191T334 203Q334 233 317 255T266 284Q261 285 261 287T260 294L269 346Q271 354 279 356Q319 364 347 391T380 453Q383 473 383 479T384 491Q384 527 363 549T303 571Q257 571 226 545T187 473L94 -58Q88 -95 69 -127T21 -184T-42 -221T-114 -235Q-133 -235 -147 -234T-161 -227Q-161 -224 -156 -214T-134 -172Q-130 -165 -123 -165Q-116 -166 -112 -166T-102 -166Q-82 -166 -63 -159T-28 -138T-2 -107T13 -68L107 463Z"  />
<glyph unicode="&#xE0;" horiz-adv-x="471" d="M291 0Q285 0 284 2T283 10L288 38Q288 49 280 49Q275 49 271 45Q244 21 218 11T172 0Q100 0 61 37T21 134Q21 149 24 167L44 280Q50 317 68 347T113 400T175 434T251 446Q274 446 296 436T334 403Q336 398 342 398Q351 398 353 409L358 436Q359 446 370 446H418Q426 446 426 436L351 10Q350 0 339 0H291ZM320 280Q321 285 321 296Q321 330 298 354T239 378Q218 378 199 371T164 350T137 318T123 280L103 167Q102 163 102 159T102 151Q102 116 125 93T184 69Q204 69 223 77T259 98T286 129T300 167L320 280ZM257 509Q248 509 242 515L145 625Q142 628 142 632Q142 642 155 642H231Q238 642 242 634L295 524Q296 522 296 518Q296 509 284 509H257Z"  />
<glyph unicode="&#xE1;" horiz-adv-x="471" d="M291 0Q285 0 284 2T283 10L288 38Q288 49 280 49Q275 49 271 45Q244 21 218 11T172 0Q100 0 61 37T21 134Q21 149 24 167L44 280Q50 317 68 347T113 400T175 434T251 446Q274 446 296 436T334 403Q336 398 342 398Q351 398 353 409L358 436Q359 446 370 446H418Q426 446 426 436L351 10Q350 0 339 0H291ZM320 280Q321 285 321 296Q321 330 298 354T239 378Q218 378 199 371T164 350T137 318T123 280L103 167Q102 163 102 159T102 151Q102 116 125 93T184 69Q204 69 223 77T259 98T286 129T300 167L320 280ZM242 509Q232 509 232 515Q232 519 237 524L328 634Q336 642 343 642H419Q429 642 429 635Q429 629 423 625L286 515Q283 512 278 511T269 509H242Z"  />
<glyph unicode="&#xE2;" horiz-adv-x="471" d="M291 0Q285 0 284 2T283 10L288 38Q288 49 280 49Q275 49 271 45Q244 21 218 11T172 0Q100 0 61 37T21 134Q21 149 24 167L44 280Q50 317 68 347T113 400T175 434T251 446Q274 446 296 436T334 403Q336 398 342 398Q351 398 353 409L358 436Q359 446 370 446H418Q426 446 426 436L351 10Q350 0 339 0H291ZM320 280Q321 285 321 296Q321 330 298 354T239 378Q218 378 199 371T164 350T137 318T123 280L103 167Q102 163 102 159T102 151Q102 116 125 93T184 69Q204 69 223 77T259 98T286 129T300 167L320 280ZM162 509Q152 509 152 515Q152 520 157 525L262 640Q268 644 271 644H304Q309 644 311 640L376 525Q377 523 377 518Q377 509 365 509H324Q320 509 317 514L285 579Q282 584 278 584Q274 584 269 579L212 514Q209 509 203 509H162Z"  />
<glyph unicode="&#xE3;" horiz-adv-x="471" d="M291 0Q285 0 284 2T283 10L288 38Q288 49 280 49Q275 49 271 45Q244 21 218 11T172 0Q100 0 61 37T21 134Q21 149 24 167L44 280Q50 317 68 347T113 400T175 434T251 446Q274 446 296 436T334 403Q336 398 342 398Q351 398 353 409L358 436Q359 446 370 446H418Q426 446 426 436L351 10Q350 0 339 0H291ZM320 280Q321 285 321 296Q321 330 298 354T239 378Q218 378 199 371T164 350T137 318T123 280L103 167Q102 163 102 159T102 151Q102 116 125 93T184 69Q204 69 223 77T259 98T286 129T300 167L320 280ZM131 551Q127 554 127 557Q127 561 130 564Q155 596 177 611T223 626Q239 626 252 621T280 603L297 587Q304 580 314 577T335 574Q361 574 392 602Q396 606 399 606Q402 606 405 603L418 592Q421 589 421 585Q421 583 419 579Q370 515 324 515Q309 515 296 521T267 540L249 554Q241 560 232 564T213 568Q201 568 188 562T158 541Q153 536 150 536Q148 536 145 539L131 551Z"  />
<glyph unicode="&#xE4;" horiz-adv-x="471" d="M291 0Q285 0 284 2T283 10L288 38Q288 49 280 49Q275 49 271 45Q244 21 218 11T172 0Q100 0 61 37T21 134Q21 149 24 167L44 280Q50 317 68 347T113 400T175 434T251 446Q274 446 296 436T334 403Q336 398 342 398Q351 398 353 409L358 436Q359 446 370 446H418Q426 446 426 436L351 10Q350 0 339 0H291ZM320 280Q321 285 321 296Q321 330 298 354T239 378Q218 378 199 371T164 350T137 318T123 280L103 167Q102 163 102 159T102 151Q102 116 125 93T184 69Q204 69 223 77T259 98T286 129T300 167L320 280ZM401 576Q401 555 385 537T345 519Q327 519 316 530T305 559Q305 582 323 597T362 613Q379 613 390 603T401 576ZM242 576Q242 555 226 537T186 519Q168 519 157 530T146 559Q146 582 164 597T203 613Q220 613 231 603T242 576Z"  />
<glyph unicode="&#xE5;" horiz-adv-x="471" d="M291 0Q285 0 284 2T283 10L288 38Q288 49 280 49Q275 49 271 45Q244 21 218 11T172 0Q100 0 61 37T21 134Q21 149 24 167L44 280Q50 317 68 347T113 400T175 434T251 446Q274 446 296 436T334 403Q336 398 342 398Q351 398 353 409L358 436Q359 446 370 446H418Q426 446 426 436L351 10Q350 0 339 0H291ZM320 280Q321 285 321 296Q321 330 298 354T239 378Q218 378 199 371T164 350T137 318T123 280L103 167Q102 163 102 159T102 151Q102 116 125 93T184 69Q204 69 223 77T259 98T286 129T300 167L320 280ZM361 576Q355 541 328 518T261 495Q226 495 207 513T188 560Q188 564 189 571T195 606Q201 641 228 663T294 686Q328 686 347 669T367 622Q367 618 367 611T361 576ZM323 576Q329 612 329 614Q329 631 318 641T288 651Q268 651 252 639T233 606Q228 581 228 575T227 567Q227 550 238 540T267 530Q287 530 303 543T323 576Z"  />
<glyph unicode="&#xE6;" horiz-adv-x="706" d="M119 -10Q69 -10 39 18T9 93Q9 98 9 102T10 112L12 127Q16 155 30 177T65 214T111 238T164 247H287Q297 247 298 257L304 291Q305 296 305 300T306 308Q306 343 283 365T222 387Q197 387 172 374T125 332Q119 326 115 326Q112 326 110 328L64 355Q59 357 59 362Q59 364 62 369Q91 406 133 430T234 455Q321 455 360 405Q363 400 367 400Q370 400 374 404Q401 427 435 441T510 456Q581 456 621 419T661 322Q661 306 658 290L646 224Q645 214 635 214H380Q369 214 368 204L360 157Q359 152 359 149T358 140Q358 105 381 82T440 59Q466 59 492 73T539 116Q544 121 548 121Q551 121 553 120L601 93Q606 90 606 87Q606 84 603 80Q589 61 573 45T536 16T489 -3T428 -10Q378 -10 344 8T292 59Q290 63 288 63Q285 63 281 59Q256 33 224 12T158 -10H119ZM566 273Q577 273 578 283L580 295Q581 299 581 303T581 311Q581 343 559 365T498 388Q451 388 421 360T383 290L381 279Q381 273 390 273H566ZM170 59Q186 59 202 67T234 88T260 117T279 148L285 179Q285 189 276 189H153Q131 189 113 174T92 137L88 111Q88 109 88 107T87 103Q87 84 99 72T131 59H170Z"  />
<glyph unicode="&#xE7;" horiz-adv-x="418" d="M37 -229Q31 -229 30 -227T28 -219L33 -191Q36 -181 45 -181H87Q104 -181 117 -170T134 -141Q137 -126 137 -124Q137 -111 127 -104T103 -93L89 -90Q84 -88 84 -84Q84 -82 85 -80T94 -66L125 -19Q127 -15 127 -11Q127 -6 121 -4Q72 8 46 42T20 125Q20 140 23 157L46 290Q52 326 69 356T114 408T176 443T252 456Q285 456 309 449T350 431T378 403T396 369Q396 364 395 361T389 355Q354 338 342 332T326 326Q321 326 320 332Q309 358 288 373T240 388Q193 388 163 360T125 290L102 157Q101 152 101 147T100 137Q100 104 120 82T182 59Q208 59 234 73T281 116Q286 121 290 121Q292 121 295 120T303 115L343 93Q348 90 348 87Q348 84 345 80Q322 46 287 21T198 -9Q193 -10 188 -12T179 -20L160 -50Q158 -54 158 -57Q158 -60 162 -63Q195 -81 195 -114Q195 -119 195 -123T193 -132L191 -141Q182 -180 151 -204T79 -229H37Z"  />
<glyph unicode="&#xE8;" horiz-adv-x="448" d="M343 93Q348 90 348 87Q348 84 345 80Q331 61 315 45T277 16T230 -3T170 -10Q98 -10 59 26T20 123Q20 139 23 157L46 290Q52 326 69 356T114 408T176 443T252 456Q323 456 363 419T403 322Q403 306 400 290L388 224Q387 214 377 214H122Q111 214 110 204L102 157Q101 152 101 149T100 140Q100 105 123 82T182 59Q208 59 234 73T281 116Q286 121 290 121Q293 121 295 120L343 93ZM308 273Q319 273 320 283L322 295Q323 299 323 303T323 311Q323 343 301 365T240 388Q193 388 163 360T125 290L123 279Q123 273 132 273H308ZM253 509Q244 509 238 515L141 625Q138 628 138 632Q138 642 151 642H227Q234 642 238 634L291 524Q292 522 292 518Q292 509 280 509H253Z"  />
<glyph unicode="&#xE9;" horiz-adv-x="448" d="M343 93Q348 90 348 87Q348 84 345 80Q331 61 315 45T277 16T230 -3T170 -10Q98 -10 59 26T20 123Q20 139 23 157L46 290Q52 326 69 356T114 408T176 443T252 456Q323 456 363 419T403 322Q403 306 400 290L388 224Q387 214 377 214H122Q111 214 110 204L102 157Q101 152 101 149T100 140Q100 105 123 82T182 59Q208 59 234 73T281 116Q286 121 290 121Q293 121 295 120L343 93ZM308 273Q319 273 320 283L322 295Q323 299 323 303T323 311Q323 343 301 365T240 388Q193 388 163 360T125 290L123 279Q123 273 132 273H308ZM238 509Q228 509 228 515Q228 519 233 524L324 634Q332 642 339 642H415Q425 642 425 635Q425 629 419 625L282 515Q279 512 274 511T265 509H238Z"  />
<glyph unicode="&#xEA;" horiz-adv-x="448" d="M343 93Q348 90 348 87Q348 84 345 80Q331 61 315 45T277 16T230 -3T170 -10Q98 -10 59 26T20 123Q20 139 23 157L46 290Q52 326 69 356T114 408T176 443T252 456Q323 456 363 419T403 322Q403 306 400 290L388 224Q387 214 377 214H122Q111 214 110 204L102 157Q101 152 101 149T100 140Q100 105 123 82T182 59Q208 59 234 73T281 116Q286 121 290 121Q293 121 295 120L343 93ZM308 273Q319 273 320 283L322 295Q323 299 323 303T323 311Q323 343 301 365T240 388Q193 388 163 360T125 290L123 279Q123 273 132 273H308ZM158 509Q148 509 148 515Q148 520 153 525L258 640Q264 644 267 644H300Q305 644 307 640L372 525Q373 523 373 518Q373 509 361 509H320Q316 509 313 514L281 579Q278 584 274 584Q270 584 265 579L208 514Q205 509 199 509H158Z"  />
<glyph unicode="&#xEB;" horiz-adv-x="448" d="M343 93Q348 90 348 87Q348 84 345 80Q331 61 315 45T277 16T230 -3T170 -10Q98 -10 59 26T20 123Q20 139 23 157L46 290Q52 326 69 356T114 408T176 443T252 456Q323 456 363 419T403 322Q403 306 400 290L388 224Q387 214 377 214H122Q111 214 110 204L102 157Q101 152 101 149T100 140Q100 105 123 82T182 59Q208 59 234 73T281 116Q286 121 290 121Q293 121 295 120L343 93ZM308 273Q319 273 320 283L322 295Q323 299 323 303T323 311Q323 343 301 365T240 388Q193 388 163 360T125 290L123 279Q123 273 132 273H308ZM397 576Q397 555 381 537T341 519Q323 519 312 530T301 559Q301 582 319 597T358 613Q375 613 386 603T397 576ZM238 576Q238 555 222 537T182 519Q164 519 153 530T142 559Q142 582 160 597T199 613Q216 613 227 603T238 576Z"  />
<glyph unicode="&#xEC;" horiz-adv-x="211" d="M20 0Q14 0 13 2T12 10L87 436Q88 446 99 446H158Q166 446 166 436L91 10Q90 0 79 0H20ZM134 509Q125 509 119 515L22 625Q19 628 19 632Q19 642 32 642H108Q115 642 119 634L172 524Q173 522 173 518Q173 509 161 509H134Z"  />
<glyph unicode="&#xED;" horiz-adv-x="211" d="M20 0Q14 0 13 2T12 10L87 436Q88 446 99 446H158Q166 446 166 436L91 10Q90 0 79 0H20ZM119 509Q109 509 109 515Q109 519 114 524L205 634Q213 642 220 642H296Q306 642 306 635Q306 629 300 625L163 515Q160 512 155 511T146 509H119Z"  />
<glyph unicode="&#xEE;" horiz-adv-x="211" d="M20 0Q14 0 13 2T12 10L87 436Q88 446 99 446H158Q166 446 166 436L91 10Q90 0 79 0H20ZM39 509Q29 509 29 515Q29 520 34 525L139 640Q145 644 148 644H181Q186 644 188 640L253 525Q254 523 254 518Q254 509 242 509H201Q197 509 194 514L162 579Q159 584 155 584Q151 584 146 579L89 514Q86 509 80 509H39Z"  />
<glyph unicode="&#xEF;" horiz-adv-x="211" d="M20 0Q14 0 13 2T12 10L87 436Q88 446 99 446H158Q166 446 166 436L91 10Q90 0 79 0H20ZM278 576Q278 555 262 537T222 519Q204 519 193 530T182 559Q182 582 200 597T239 613Q256 613 267 603T278 576ZM119 576Q119 555 103 537T63 519Q45 519 34 530T23 559Q23 582 41 597T80 613Q97 613 108 603T119 576Z"  />
<glyph unicode="&#xF0;" horiz-adv-x="456" d="M46 290Q52 324 69 354T111 406T170 441T242 456L200 507Q166 493 146 485T114 473T99 467T93 466Q86 466 86 472L90 494Q92 507 99 510L173 540Q153 564 141 579T121 603T112 616T109 621Q109 625 113 627T123 630H184Q189 630 190 628T193 623L239 567Q274 581 296 590T330 604T347 610T353 612Q362 612 362 605L357 580Q355 570 347 567L266 534L385 391Q393 376 398 359T403 321Q403 306 400 290L377 156Q371 120 353 90T308 38T246 3T170 -10Q99 -10 60 27T20 125Q20 139 23 156L46 290ZM322 295Q323 299 323 303T323 311Q323 343 301 365T240 388Q193 388 163 360T125 290L101 151Q100 146 100 143T99 134Q99 102 121 80T182 58Q229 58 260 86T298 156L322 295Z"  />
<glyph unicode="&#xF1;" horiz-adv-x="482" d="M20 0Q14 0 13 2T12 10L87 436Q88 446 99 446H148Q156 446 156 436L151 410Q151 405 152 402T158 398Q162 398 167 403Q192 427 217 436T266 446Q338 446 377 410T417 313Q417 296 414 280L367 10Q366 0 355 0H296Q290 0 289 2T288 10L335 280Q336 284 336 288T336 296Q336 331 313 354T254 378Q234 378 215 371T179 350T152 318T138 280L91 10Q90 0 79 0H20ZM144 551Q140 554 140 557Q140 561 143 564Q168 596 190 611T236 626Q252 626 265 621T293 603L310 587Q317 580 327 577T348 574Q374 574 405 602Q409 606 412 606Q415 606 418 603L431 592Q434 589 434 585Q434 583 432 579Q383 515 337 515Q322 515 309 521T280 540L262 554Q254 560 245 564T226 568Q214 568 201 562T171 541Q166 536 163 536Q161 536 158 539L144 551Z"  />
<glyph unicode="&#xF2;" horiz-adv-x="456" d="M46 290Q52 326 69 356T114 408T176 443T252 456Q323 456 363 419T403 321Q403 305 400 290L377 156Q371 120 353 90T308 38T246 3T170 -10Q99 -10 60 27T20 125Q20 139 23 156L46 290ZM322 295Q323 299 323 303T323 311Q323 343 301 365T240 388Q193 388 163 360T125 290L101 151Q100 146 100 143T99 134Q99 102 121 80T182 58Q229 58 260 86T298 156L322 295ZM257 509Q248 509 242 515L145 625Q142 628 142 632Q142 642 155 642H231Q238 642 242 634L295 524Q296 522 296 518Q296 509 284 509H257Z"  />
<glyph unicode="&#xF3;" horiz-adv-x="456" d="M46 290Q52 326 69 356T114 408T176 443T252 456Q323 456 363 419T403 321Q403 305 400 290L377 156Q371 120 353 90T308 38T246 3T170 -10Q99 -10 60 27T20 125Q20 139 23 156L46 290ZM322 295Q323 299 323 303T323 311Q323 343 301 365T240 388Q193 388 163 360T125 290L101 151Q100 146 100 143T99 134Q99 102 121 80T182 58Q229 58 260 86T298 156L322 295ZM242 509Q232 509 232 515Q232 519 237 524L328 634Q336 642 343 642H419Q429 642 429 635Q429 629 423 625L286 515Q283 512 278 511T269 509H242Z"  />
<glyph unicode="&#xF4;" horiz-adv-x="456" d="M46 290Q52 326 69 356T114 408T176 443T252 456Q323 456 363 419T403 321Q403 305 400 290L377 156Q371 120 353 90T308 38T246 3T170 -10Q99 -10 60 27T20 125Q20 139 23 156L46 290ZM322 295Q323 299 323 303T323 311Q323 343 301 365T240 388Q193 388 163 360T125 290L101 151Q100 146 100 143T99 134Q99 102 121 80T182 58Q229 58 260 86T298 156L322 295ZM162 509Q152 509 152 515Q152 520 157 525L262 640Q268 644 271 644H304Q309 644 311 640L376 525Q377 523 377 518Q377 509 365 509H324Q320 509 317 514L285 579Q282 584 278 584Q274 584 269 579L212 514Q209 509 203 509H162Z"  />
<glyph unicode="&#xF5;" horiz-adv-x="456" d="M46 290Q52 326 69 356T114 408T176 443T252 456Q323 456 363 419T403 321Q403 305 400 290L377 156Q371 120 353 90T308 38T246 3T170 -10Q99 -10 60 27T20 125Q20 139 23 156L46 290ZM322 295Q323 299 323 303T323 311Q323 343 301 365T240 388Q193 388 163 360T125 290L101 151Q100 146 100 143T99 134Q99 102 121 80T182 58Q229 58 260 86T298 156L322 295ZM131 551Q127 554 127 557Q127 561 130 564Q155 596 177 611T223 626Q239 626 252 621T280 603L297 587Q304 580 314 577T335 574Q361 574 392 602Q396 606 399 606Q402 606 405 603L418 592Q421 589 421 585Q421 583 419 579Q370 515 324 515Q309 515 296 521T267 540L249 554Q241 560 232 564T213 568Q201 568 188 562T158 541Q153 536 150 536Q148 536 145 539L131 551Z"  />
<glyph unicode="&#xF6;" horiz-adv-x="456" d="M46 290Q52 326 69 356T114 408T176 443T252 456Q323 456 363 419T403 321Q403 305 400 290L377 156Q371 120 353 90T308 38T246 3T170 -10Q99 -10 60 27T20 125Q20 139 23 156L46 290ZM322 295Q323 299 323 303T323 311Q323 343 301 365T240 388Q193 388 163 360T125 290L101 151Q100 146 100 143T99 134Q99 102 121 80T182 58Q229 58 260 86T298 156L322 295ZM401 576Q401 555 385 537T345 519Q327 519 316 530T305 559Q305 582 323 597T362 613Q379 613 390 603T401 576ZM242 576Q242 555 226 537T186 519Q168 519 157 530T146 559Q146 582 164 597T203 613Q220 613 231 603T242 576Z"  />
<glyph unicode="&#xF7;" horiz-adv-x="504" d="M333 406Q333 394 328 383T314 364T294 350T270 345Q251 345 239 357T227 388Q227 411 245 430T288 449Q308 449 320 437T333 406ZM47 212Q41 212 40 214T39 222L45 255Q46 265 57 265H458Q466 265 466 255L460 222Q459 212 448 212H47ZM277 89Q277 77 272 66T258 47T238 33T214 28Q195 28 183 40T171 71Q171 94 189 113T232 132Q252 132 264 120T277 89Z"  />
<glyph unicode="&#xF8;" horiz-adv-x="456" d="M46 290Q52 326 69 356T114 408T176 443T252 456Q323 456 363 419T403 321Q403 305 400 290L377 156Q371 120 353 90T308 38T246 3T170 -10Q99 -10 60 27T20 125Q20 139 23 156L46 290ZM322 295Q323 300 323 303T323 312Q323 323 320 337T309 351Q307 351 304 347L143 77Q140 72 140 70Q140 67 144 65T155 61T169 59T182 58Q229 58 260 86T298 156L322 295ZM272 370Q275 374 275 378Q275 385 262 386T240 388Q193 388 163 360T125 290L101 151Q100 146 100 142T99 134Q99 126 100 115T107 104Q110 104 113 109L272 370Z"  />
<glyph unicode="&#xF9;" horiz-adv-x="481" d="M301 0Q295 0 294 2T293 10L298 38Q298 43 297 46T290 50Q286 50 281 45Q257 21 231 11T182 0Q110 0 71 37T31 134Q31 149 34 167L82 436Q83 446 94 446H153Q161 446 161 436L113 167Q112 162 112 158T111 150Q111 115 135 92T194 69Q236 69 269 97T310 167L358 436Q359 446 370 446H428Q436 446 436 436L361 10Q360 0 349 0H301ZM269 509Q260 509 254 515L157 625Q154 628 154 632Q154 642 167 642H243Q250 642 254 634L307 524Q308 522 308 518Q308 509 296 509H269Z"  />
<glyph unicode="&#xFA;" horiz-adv-x="481" d="M301 0Q295 0 294 2T293 10L298 38Q298 43 297 46T290 50Q286 50 281 45Q257 21 231 11T182 0Q110 0 71 37T31 134Q31 149 34 167L82 436Q83 446 94 446H153Q161 446 161 436L113 167Q112 162 112 158T111 150Q111 115 135 92T194 69Q236 69 269 97T310 167L358 436Q359 446 370 446H428Q436 446 436 436L361 10Q360 0 349 0H301ZM254 509Q244 509 244 515Q244 519 249 524L340 634Q348 642 355 642H431Q441 642 441 635Q441 629 435 625L298 515Q295 512 290 511T281 509H254Z"  />
<glyph unicode="&#xFB;" horiz-adv-x="481" d="M301 0Q295 0 294 2T293 10L298 38Q298 43 297 46T290 50Q286 50 281 45Q257 21 231 11T182 0Q110 0 71 37T31 134Q31 149 34 167L82 436Q83 446 94 446H153Q161 446 161 436L113 167Q112 162 112 158T111 150Q111 115 135 92T194 69Q236 69 269 97T310 167L358 436Q359 446 370 446H428Q436 446 436 436L361 10Q360 0 349 0H301ZM174 509Q164 509 164 515Q164 520 169 525L274 640Q280 644 283 644H316Q321 644 323 640L388 525Q389 523 389 518Q389 509 377 509H336Q332 509 329 514L297 579Q294 584 290 584Q286 584 281 579L224 514Q221 509 215 509H174Z"  />
<glyph unicode="&#xFC;" horiz-adv-x="481" d="M301 0Q295 0 294 2T293 10L298 38Q298 43 297 46T290 50Q286 50 281 45Q257 21 231 11T182 0Q110 0 71 37T31 134Q31 149 34 167L82 436Q83 446 94 446H153Q161 446 161 436L113 167Q112 162 112 158T111 150Q111 115 135 92T194 69Q236 69 269 97T310 167L358 436Q359 446 370 446H428Q436 446 436 436L361 10Q360 0 349 0H301ZM413 576Q413 555 397 537T357 519Q339 519 328 530T317 559Q317 582 335 597T374 613Q391 613 402 603T413 576ZM254 576Q254 555 238 537T198 519Q180 519 169 530T158 559Q158 582 176 597T215 613Q232 613 243 603T254 576Z"  />
<glyph unicode="&#xFD;" horiz-adv-x="481" d="M61 -106Q63 -105 66 -105Q71 -105 74 -110Q85 -137 106 -151T153 -166Q173 -166 192 -159T227 -138T254 -107T269 -68L287 33Q287 38 286 41T279 45Q275 45 270 40Q250 20 228 10T182 0Q110 0 71 37T31 134Q31 149 34 167L82 436Q83 446 94 446H153Q161 446 161 436L113 167Q112 162 112 158T111 150Q111 115 135 92T194 69Q217 69 237 78T272 101T297 132T310 167L358 436Q359 446 370 446H428Q436 446 436 436L349 -57Q342 -95 325 -127T282 -184T221 -221T141 -235Q99 -235 71 -224T26 -194Q18 -185 7 -169T-4 -142Q-4 -135 4 -132L61 -106ZM254 509Q244 509 244 515Q244 519 249 524L340 634Q348 642 355 642H431Q441 642 441 635Q441 629 435 625L298 515Q295 512 290 511T281 509H254Z"  />
<glyph unicode="&#xFE;" horiz-adv-x="472" d="M-20 -225Q-26 -225 -27 -223T-28 -215L119 620Q122 630 131 630H180Q188 630 188 620L151 410Q151 405 152 402T158 398Q162 398 167 403Q191 427 217 436T266 446Q338 446 377 410T417 313Q417 296 414 280L394 167Q388 130 370 100T325 47T265 13T197 0Q178 0 155 10T114 44Q111 48 106 48Q97 48 95 36L51 -215Q50 -225 39 -225H-20ZM118 167Q117 163 117 159T117 151Q117 116 140 93T199 69Q219 69 238 77T274 98T301 129T315 167Q323 211 327 236T333 273T335 290T336 296Q336 330 313 354T254 378Q233 378 214 371T179 350T152 318T138 280L118 167Z"  />
<glyph unicode="&#xFF;" horiz-adv-x="481" d="M61 -106Q63 -105 66 -105Q71 -105 74 -110Q85 -137 106 -151T153 -166Q173 -166 192 -159T227 -138T254 -107T269 -68L287 33Q287 38 286 41T279 45Q275 45 270 40Q250 20 228 10T182 0Q110 0 71 37T31 134Q31 149 34 167L82 436Q83 446 94 446H153Q161 446 161 436L113 167Q112 162 112 158T111 150Q111 115 135 92T194 69Q217 69 237 78T272 101T297 132T310 167L358 436Q359 446 370 446H428Q436 446 436 436L349 -57Q342 -95 325 -127T282 -184T221 -221T141 -235Q99 -235 71 -224T26 -194Q18 -185 7 -169T-4 -142Q-4 -135 4 -132L61 -106ZM413 576Q413 555 397 537T357 519Q339 519 328 530T317 559Q317 582 335 597T374 613Q391 613 402 603T413 576ZM254 576Q254 555 238 537T198 519Q180 519 169 530T158 559Q158 582 176 597T215 613Q232 613 243 603T254 576Z"  />
<glyph unicode="&#x131;" horiz-adv-x="211" d="M20 0Q14 0 13 2T12 10L87 436Q88 446 99 446H158Q166 446 166 436L91 10Q90 0 79 0H20Z"  />
<glyph unicode="&#x152;" horiz-adv-x="755" d="M181 -10Q109 -10 70 26T31 123Q31 139 34 157L89 473Q95 510 113 541T158 594T220 628T296 640H327Q365 640 392 630H768Q776 630 776 620L768 571Q765 561 756 561H483Q471 561 471 551Q471 546 474 534T477 504Q477 491 474 473L455 364Q455 359 456 357T463 354H673Q682 354 682 344L673 295Q672 285 661 285H451Q442 285 440 276L419 157Q416 138 411 125T400 103T392 87T388 77Q388 69 397 69H669Q677 69 677 59L669 10Q668 0 657 0H281Q265 -5 248 -7T212 -10H181ZM224 59Q243 59 262 66T298 87T325 119T340 157L395 473Q396 478 396 482T397 491Q397 526 374 548T315 571H284Q263 571 244 564T208 543T182 512T168 473L113 157Q112 152 112 149T111 140Q111 105 134 82T193 59H224Z"  />
<glyph unicode="&#x153;" horiz-adv-x="723" d="M377 157Q376 152 376 149T375 140Q375 105 398 82T457 59Q483 59 509 73T556 116Q561 121 565 121Q566 121 569 120T577 116T592 108T618 93Q623 90 623 87Q623 84 620 80Q593 43 553 17T445 -10Q407 -10 378 1T329 32Q327 34 324 38T317 42Q315 42 308 37Q281 15 246 3T170 -10Q98 -10 59 26T20 123Q20 127 20 133T23 156T31 204T46 290Q52 327 70 357T115 410T176 444T252 456Q295 456 326 443T377 406Q380 401 384 401Q387 401 395 407Q421 429 455 442T527 456Q598 456 638 419T678 322Q678 306 675 290L663 224Q662 214 652 214H397Q386 214 385 204L377 157ZM583 273Q594 273 595 283Q597 296 597 301T598 311Q598 343 576 365T515 388Q468 388 438 360T400 290L398 279Q398 273 407 273H583ZM321 290Q322 294 322 298T322 306Q322 341 299 364T240 388Q220 388 201 381T166 360T139 328T125 290Q116 238 111 209T104 166T101 147T100 140Q100 105 123 82T182 59Q202 59 221 66T257 87T284 119T298 157L321 290Z"  />
<glyph unicode="&#x160;" horiz-adv-x="458" d="M140 -10Q100 -10 74 0T30 26Q20 35 9 52T-3 83Q-3 90 4 93L61 120Q63 121 66 121Q71 121 74 115Q85 87 106 73T152 59H195Q218 59 239 68T277 93T304 129T314 174Q314 204 296 224T251 259T193 289T135 322T90 369T72 438Q72 480 88 517T132 581T199 624T282 640H298Q331 640 355 633T396 614T424 586T441 552Q442 550 442 548Q442 542 434 538L376 512Q372 510 371 510Q366 510 365 516Q354 543 333 557T286 571H270Q247 571 226 563T188 539T163 504T153 459Q153 432 171 414T215 382T273 353T331 318T376 268T394 196Q394 152 379 114T335 49T268 6T183 -10H140ZM277 693Q274 693 270 697L205 812Q203 816 203 818Q203 828 216 828H258Q263 828 265 823L298 759Q300 754 305 754Q310 754 314 759L368 823Q373 828 377 828H419Q429 828 429 822Q429 819 424 812L319 697Q315 693 310 693H277Z"  />
<glyph unicode="&#x161;" horiz-adv-x="433" d="M144 -10Q105 -10 80 -1T37 24Q26 34 14 51T2 82Q2 88 10 91L62 115Q64 116 68 116Q73 116 75 111Q84 86 106 71T156 55H186Q230 55 256 78T283 133Q283 153 265 163T221 180T163 193T105 210T60 242T42 297Q42 337 57 366T99 416T158 446T226 456H256Q290 456 314 449T355 429T382 402T398 370Q398 365 397 362T391 356L339 332Q335 330 334 330Q329 330 326 336Q315 361 295 376T245 391H215Q167 391 145 370T122 319Q122 298 140 287T185 268T243 255T301 238T346 208T364 156Q364 123 351 93T312 40T252 4T174 -10H144ZM235 509Q232 509 228 513L163 628Q161 632 161 634Q161 644 174 644H216Q221 644 223 639L256 575Q258 570 263 570Q268 570 272 575L326 639Q331 644 335 644H377Q387 644 387 638Q387 635 382 628L277 513Q273 509 268 509H235Z"  />
<glyph unicode="&#x178;" horiz-adv-x="411" d="M120 0Q114 0 113 2T112 10L161 290L45 615Q44 617 44 620Q44 630 57 630H127Q133 630 135 624L209 384Q211 376 216 376Q221 376 227 384L385 624Q389 630 395 630H464Q474 630 474 623Q474 621 470 615L240 290L191 10Q190 0 179 0H120ZM417 756Q417 735 401 717T361 699Q343 699 332 710T321 739Q321 762 339 777T378 793Q395 793 406 783T417 756ZM258 756Q258 735 242 717T202 699Q184 699 173 710T162 739Q162 762 180 777T219 793Q236 793 247 783T258 756Z"  />
<glyph unicode="&#x17D;" horiz-adv-x="411" d="M-21 0Q-31 0 -31 7Q-31 9 -28 14L301 547Q304 551 304 554Q304 561 295 561H88Q79 561 79 567Q79 569 80 571L88 620Q91 630 100 630H422Q431 630 431 623Q431 618 429 616L98 83Q95 78 95 75Q95 69 104 69H335Q343 69 343 59L335 10Q334 0 323 0H-21ZM258 693Q255 693 251 697L186 812Q184 816 184 818Q184 828 197 828H239Q244 828 246 823L279 759Q281 754 286 754Q291 754 295 759L349 823Q354 828 358 828H400Q410 828 410 822Q410 819 405 812L300 697Q296 693 291 693H258Z"  />
<glyph unicode="&#x17E;" horiz-adv-x="408" d="M-21 0Q-31 0 -31 6Q-31 11 -27 15L242 362Q245 366 245 370Q245 377 235 377H49Q43 377 42 379T41 387L50 435Q51 445 61 445H378Q388 445 388 438Q388 434 385 430L115 84Q111 80 111 75Q111 69 121 69H328Q336 69 336 59L328 10Q327 0 316 0H-21ZM223 509Q220 509 216 513L151 628Q149 632 149 634Q149 644 162 644H204Q209 644 211 639L244 575Q246 570 251 570Q256 570 260 575L314 639Q319 644 323 644H365Q375 644 375 638Q375 635 370 628L265 513Q261 509 256 509H223Z"  />
<glyph unicode="&#x192;" horiz-adv-x="504" d="M-19 -172Q-16 -165 -8 -165Q-1 -166 3 -166T13 -166Q33 -166 52 -159T87 -138T113 -107T128 -68L191 292Q191 302 183 302H157Q151 302 150 304T149 312L157 360Q160 370 169 370H195Q206 370 207 380L222 463Q229 500 248 532T295 588T357 626T429 640Q434 640 441 640T456 639T469 637T475 632Q475 631 473 625L449 577Q445 570 438 570Q431 571 427 571T417 571Q397 571 378 564T342 543T315 512T301 473L285 380Q285 375 286 373T293 370H365Q373 370 373 360L365 312Q364 302 353 302H281Q272 302 269 292L208 -58Q202 -95 183 -127T135 -183T73 -221T1 -235Q-18 -235 -32 -234T-46 -227Q-46 -226 -44 -220L-19 -172Z"  />
<glyph unicode="&#x2C6;" horiz-adv-x="500" d="M183 509Q173 509 173 515Q173 520 178 525L283 640Q289 644 292 644H325Q330 644 332 640L397 525Q398 523 398 518Q398 509 386 509H345Q341 509 338 514L306 579Q303 584 299 584Q295 584 290 579L233 514Q230 509 224 509H183Z"  />
<glyph unicode="&#x2DC;" horiz-adv-x="500" d="M152 551Q148 554 148 557Q148 561 151 564Q176 596 198 611T244 626Q260 626 273 621T301 603L318 587Q325 580 335 577T356 574Q382 574 413 602Q417 606 420 606Q423 606 426 603L439 592Q442 589 442 585Q442 583 440 579Q391 515 345 515Q330 515 317 521T288 540L270 554Q262 560 253 564T234 568Q222 568 209 562T179 541Q174 536 171 536Q169 536 166 539L152 551Z"  />
<glyph unicode="&#x2013;" horiz-adv-x="550" d="M31 212Q25 212 24 214T23 222L29 255Q30 265 41 265H492Q500 265 500 255L494 222Q493 212 482 212H31Z"  />
<glyph unicode="&#x2014;" horiz-adv-x="826" d="M31 212Q25 212 24 214T23 222L29 255Q30 265 41 265H768Q776 265 776 255L770 222Q769 212 758 212H31Z"  />
<glyph unicode="&#x2018;" horiz-adv-x="158" d="M71 453Q62 453 62 459Q62 460 62 462T64 471T67 488T72 518Q83 583 109 617T173 672Q175 673 179 673Q184 673 187 667Q192 653 193 649T194 642Q194 637 188 634Q169 623 156 602T135 543Q135 538 136 536T143 533H154Q162 533 162 523L152 463Q149 453 140 453H71Z"  />
<glyph unicode="&#x2019;" horiz-adv-x="158" d="M90 552Q84 552 83 554T82 562L93 622Q94 632 104 632H173Q182 632 182 622L172 567Q166 532 155 507T130 463Q125 457 118 449T101 433T83 420T67 414Q61 414 60 420Q55 432 54 436T52 443Q52 449 59 453Q76 464 89 484T111 542Q111 552 102 552H90Z"  />
<glyph unicode="&#x201A;" horiz-adv-x="158" d="M-3 21Q-9 21 -10 23T-12 31L-1 92Q0 102 11 102H80Q88 102 88 92L79 37Q73 2 63 -23T38 -67Q33 -73 25 -82T7 -99T-12 -112T-27 -118Q-33 -118 -34 -112Q-39 -100 -40 -95T-42 -87Q-42 -82 -36 -79Q-19 -68 -5 -48T17 11Q17 15 16 18T9 21H-3Z"  />
<glyph unicode="&#x201C;" horiz-adv-x="287" d="M205 453Q196 453 196 459Q196 462 206 518Q218 586 248 624Q253 631 262 639T280 655T299 668T313 673Q318 673 320 667Q324 654 325 649T327 642Q327 636 321 633Q313 628 304 619T288 599Q277 582 272 564T267 540Q267 533 276 533H287Q295 533 295 523L285 463Q282 453 273 453H205ZM71 453Q62 453 62 459Q62 462 64 473T72 518Q78 555 89 581T117 628Q122 634 130 642T146 656T164 668T179 673Q184 673 187 667Q194 646 194 642Q194 637 188 634Q169 623 156 602T135 543Q135 538 136 536T143 533H154Q162 533 162 523L152 463Q149 453 140 453H71Z"  />
<glyph unicode="&#x201D;" horiz-adv-x="287" d="M224 552Q218 552 217 554T216 562L227 622Q228 632 238 632H307Q316 632 316 622L306 567Q295 504 269 470T207 416Q203 414 201 414Q197 414 194 420Q186 439 186 444Q186 448 192 453Q210 464 223 484T244 542Q244 552 235 552H224ZM90 552Q84 552 83 554T82 562L93 622Q94 632 104 632H173Q182 632 182 622L172 567Q160 503 134 469T73 416Q69 414 67 414Q61 414 60 420Q52 439 52 443Q52 449 59 453Q76 464 89 484T111 542Q111 552 102 552H90Z"  />
<glyph unicode="&#x201E;" horiz-adv-x="287" d="M131 21Q125 21 124 23T122 31L133 92Q134 102 145 102H214Q222 102 222 92L213 37Q207 1 196 -25T170 -70Q165 -76 157 -84T139 -100T121 -113T107 -118Q101 -118 100 -112Q92 -91 92 -87Q92 -82 97 -79Q115 -66 128 -47T150 11Q150 15 149 18T142 21H131ZM-3 21Q-9 21 -10 23T-12 31L-1 92Q0 102 11 102H80Q88 102 88 92L79 37Q73 0 62 -26T35 -71Q30 -77 22 -85T6 -100T-12 -113T-27 -118Q-31 -118 -34 -112Q-42 -93 -42 -87Q-42 -82 -36 -79Q-19 -68 -5 -48T17 11Q17 15 16 18T9 21H-3Z"  />
<glyph unicode="&#x2020;" horiz-adv-x="404" d="M95 -225Q89 -225 88 -223T87 -215L161 319L184 385Q187 394 187 396Q187 402 177 402L21 390Q11 390 11 396Q11 399 13 414T21 455Q22 465 34 465L187 452Q199 452 200 463L215 619Q217 630 227 630H280Q286 630 287 627T288 619Q274 565 266 534T254 487T248 465T247 459Q247 452 257 452L413 465Q419 465 420 463T422 455L413 400Q409 390 400 390L250 402Q237 402 237 391L235 319L122 -215Q121 -225 110 -225H95Z"  />
<glyph unicode="&#x2021;" horiz-adv-x="404" d="M95 -225Q89 -225 88 -223T87 -215L143 178Q143 188 134 188L-17 175Q-27 175 -27 181Q-27 183 -25 197T-17 240Q-14 250 -4 250L142 237Q154 237 155 248L161 320Q168 342 173 356T181 378T185 390T187 396Q187 402 177 402L21 390Q11 390 11 396Q11 398 13 411T21 455Q22 465 34 465L187 452Q199 452 200 463L215 619Q217 630 227 630H280Q286 630 287 627T288 619Q274 566 266 535T254 488T248 466T247 459Q247 452 257 452L413 465Q419 465 420 463T422 455L413 400Q409 390 400 390L250 402Q237 402 237 391L236 321Q230 298 227 284T221 261T218 249T217 244Q217 237 227 237L375 250Q384 250 384 240L375 185Q371 175 362 175L216 188Q204 188 203 178L122 -215Q121 -225 110 -225H95Z"  />
<glyph unicode="&#x2022;" horiz-adv-x="500" d="M223 169Q163 169 131 199T98 280Q98 286 99 294T103 326Q112 388 159 425T274 462H278Q338 462 370 432T402 351Q402 345 401 337T397 305Q392 274 378 249T341 206T289 179T227 169H223Z"  />
<glyph unicode="&#x2026;" horiz-adv-x="1000" d="M266 40Q262 18 244 3T204 -12Q184 -12 173 0T161 30Q161 54 180 73T222 92Q242 92 254 80T267 49Q267 47 267 45T266 40ZM563 40Q559 18 541 3T501 -12Q481 -12 470 0T458 30Q458 54 477 73T519 92Q539 92 551 80T564 49Q564 47 564 45T563 40ZM858 40Q854 18 836 3T796 -12Q776 -12 765 0T753 30Q753 54 772 73T814 92Q834 92 846 80T859 49Q859 47 859 45T858 40Z"  />
<glyph unicode="&#x2030;" horiz-adv-x="716" d="M479 185Q486 223 514 246T584 270Q620 270 640 252T660 202Q660 198 660 194T659 185L641 85Q634 47 606 24T536 0Q500 0 480 18T459 67Q459 72 459 76T461 85L479 185ZM85 545Q92 583 120 606T190 630Q226 630 246 612T266 562Q266 560 266 557T264 542T258 508T247 445Q240 407 212 384T142 360Q106 360 86 378T65 427Q65 429 65 433T68 448T74 482T85 545ZM49 0Q39 0 39 6Q39 9 42 14L411 624Q415 630 421 630H445Q454 630 454 623Q454 619 452 616L83 6Q80 0 73 0H49ZM409 85Q402 47 374 24T304 0Q268 0 248 18T227 67Q227 69 227 73T230 88T236 122T247 185Q254 223 282 246T352 270Q388 270 408 252T428 202Q428 198 428 194T427 185L409 85ZM589 85Q596 120 600 140T605 172T607 186T608 191Q608 205 599 214T575 223Q559 223 547 212T532 185Q526 150 522 130T516 98T514 83T513 78Q513 65 521 57T544 48Q560 48 573 59T589 85ZM195 445Q201 478 205 498T211 529T213 545T214 551Q214 565 205 574T182 583Q165 583 153 572T138 545Q132 509 128 489T122 458T120 443T119 438Q119 426 128 417T151 408Q166 408 179 419T195 445ZM357 85Q364 120 368 141T373 172T375 186T376 191Q376 205 367 214T343 223Q327 223 315 212T300 185Q293 150 289 130T284 98T282 83T281 78Q281 65 289 57T312 48Q328 48 341 59T357 85Z"  />
<glyph unicode="&#x2039;" horiz-adv-x="319" d="M44 242Q41 245 41 250L51 307Q53 312 57 315L274 453Q278 456 283 456Q287 456 287 453T288 445L280 395Q278 390 274 387L117 287Q110 283 110 278Q110 274 114 271L236 170Q239 167 239 162L230 112Q228 101 220 101Q216 101 212 104L44 242Z"  />
<glyph unicode="&#x203A;" horiz-adv-x="319" d="M200 271Q207 276 207 280Q207 283 203 287L80 387Q77 388 77 392Q77 397 86 445Q88 456 96 456Q99 456 104 453L274 315Q275 313 275 312T276 307L266 250Q266 247 261 242L42 104Q36 101 33 101Q27 101 27 108Q27 110 30 127T37 162Q39 168 42 170L200 271Z"  />
<glyph unicode="&#x20AC;" horiz-adv-x="504" d="M235 -10Q163 -10 124 27T85 125Q85 140 88 157L93 189Q93 199 85 199H25Q19 199 18 201T17 209L24 252Q27 262 36 262H96Q106 262 108 272L123 357Q123 367 115 367H55Q49 367 48 369T46 377L54 421Q55 431 66 431H126Q136 431 138 441L143 473Q149 510 166 541T211 594T274 628T350 640H381Q420 640 446 631T490 605Q501 595 513 578T525 548Q525 542 517 538Q498 529 487 524T468 515T458 511T454 510Q449 510 448 516Q437 542 416 556T369 571H338Q317 571 298 564T262 543T236 512T222 473L217 441Q217 431 225 431H374Q382 431 382 421L374 377Q373 367 363 367H214Q204 367 202 357L187 272Q187 262 195 262H344Q352 262 352 252L345 209Q344 199 333 199H184Q174 199 172 189L167 157Q166 153 166 149T166 141Q166 106 188 83T247 59H278Q304 59 330 73T377 116Q380 119 386 121Q389 122 399 116T439 93Q444 90 444 87Q444 84 441 80Q428 62 412 46T375 17T327 -3T266 -10H235Z"  />
<glyph unicode="&#x2122;" horiz-adv-x="382" d="M203 360Q197 360 196 362T195 370L225 538Q226 548 237 548H249Q254 548 257 543L289 462Q292 455 297 455Q301 455 307 462L369 543Q372 548 379 548H391Q399 548 399 538L369 370Q368 360 357 360H345Q339 360 338 362T337 370L350 442Q350 447 349 450T343 454Q337 454 332 447L300 406Q295 401 290 401H286Q281 401 279 406L259 447Q256 453 250 453Q242 453 240 442L227 370Q226 360 215 360H203ZM86 360Q80 360 79 362T78 370L102 507Q102 517 94 517H67Q61 517 60 519T59 527L61 538Q62 548 73 548H179Q187 548 187 538L185 527Q184 517 173 517H146Q137 517 134 507L110 370Q109 360 98 360H86Z"  />

</font>
</defs>
</svg>
